<?xml version="1.0" encoding="UTF-8"?>
<!DOCTYPE svg PUBLIC "-//W3C//DTD SVG 1.1//EN" "http://www.w3.org/Graphics/SVG/1.1/DTD/svg11.dtd">
<!-- Creator: CorelDRAW 2020 (64-Bit) -->
<svg xmlns="http://www.w3.org/2000/svg" xml:space="preserve" width="0.44522in" height="0.44522in" version="1.1" style="shape-rendering:geometricPrecision; text-rendering:geometricPrecision; image-rendering:optimizeQuality; fill-rule:evenodd; clip-rule:evenodd"
viewBox="0 0 4.54 4.54"
 xmlns:xlink="http://www.w3.org/1999/xlink"
 xmlns:xodm="http://www.corel.com/coreldraw/odm/2003">
 <defs>
  <style type="text/css">
   <![CDATA[
    .fil0 {fill:#FEFEFE;fill-rule:nonzero}
   ]]>
  </style>
 </defs>
 <g id="Layer_x0020_1">
  <metadata id="CorelCorpID_0Corel-Layer"/>
  <g id="_1477943039600">
   <path class="fil0" d="M2.27 0c-0.62,0 -0.69,0 -0.94,0.01 -0.24,0.01 -0.41,0.05 -0.55,0.11 -0.15,0.06 -0.28,0.14 -0.4,0.26 -0.13,0.13 -0.2,0.25 -0.26,0.4 -0.06,0.14 -0.09,0.31 -0.11,0.55 -0.01,0.24 -0.01,0.32 -0.01,0.94 0,0.62 0,0.69 0.01,0.94 0.01,0.24 0.05,0.41 0.11,0.55 0.06,0.15 0.14,0.28 0.26,0.4 0.13,0.13 0.25,0.2 0.4,0.26 0.14,0.06 0.31,0.09 0.55,0.11 0.24,0.01 0.32,0.01 0.94,0.01 0.62,0 0.69,-0 0.94,-0.01 0.24,-0.01 0.41,-0.05 0.55,-0.11 0.15,-0.06 0.28,-0.14 0.4,-0.26 0.13,-0.13 0.2,-0.25 0.26,-0.4 0.06,-0.14 0.09,-0.31 0.11,-0.55 0.01,-0.24 0.01,-0.32 0.01,-0.94 0,-0.62 -0,-0.69 -0.01,-0.94 -0.01,-0.24 -0.05,-0.41 -0.11,-0.55 -0.06,-0.15 -0.14,-0.28 -0.26,-0.4 -0.13,-0.13 -0.25,-0.2 -0.4,-0.26 -0.14,-0.06 -0.31,-0.09 -0.55,-0.11 -0.24,-0.01 -0.32,-0.01 -0.94,-0.01zm0 0.41c0.61,0 0.68,0 0.92,0.01 0.22,0.01 0.34,0.05 0.42,0.08 0.11,0.04 0.18,0.09 0.26,0.17 0.08,0.08 0.13,0.16 0.17,0.26 0.03,0.08 0.07,0.2 0.08,0.42 0.01,0.24 0.01,0.31 0.01,0.92 0,0.61 -0,0.68 -0.01,0.92 -0.01,0.22 -0.05,0.34 -0.08,0.42 -0.04,0.11 -0.09,0.18 -0.17,0.26 -0.08,0.08 -0.16,0.13 -0.26,0.17 -0.08,0.03 -0.2,0.07 -0.42,0.08 -0.24,0.01 -0.31,0.01 -0.92,0.01 -0.61,0 -0.68,-0 -0.92,-0.01 -0.22,-0.01 -0.34,-0.05 -0.42,-0.08 -0.11,-0.04 -0.18,-0.09 -0.26,-0.17 -0.08,-0.08 -0.13,-0.16 -0.17,-0.26 -0.03,-0.08 -0.07,-0.2 -0.08,-0.42 -0.01,-0.24 -0.01,-0.31 -0.01,-0.92 0,-0.61 0,-0.68 0.01,-0.92 0.01,-0.22 0.05,-0.34 0.08,-0.42 0.04,-0.11 0.09,-0.18 0.17,-0.26 0.08,-0.08 0.15,-0.13 0.26,-0.17 0.08,-0.03 0.2,-0.07 0.42,-0.08 0.24,-0.01 0.31,-0.01 0.92,-0.01z"/>
   <path class="fil0" d="M2.27 3.03c-0.42,0 -0.76,-0.34 -0.76,-0.76 0,-0.42 0.34,-0.76 0.76,-0.76 0.42,0 0.76,0.34 0.76,0.76 0,0.42 -0.34,0.76 -0.76,0.76zm0 -1.92c-0.64,0 -1.17,0.52 -1.17,1.17 0,0.64 0.52,1.17 1.17,1.17 0.64,0 1.16,-0.52 1.16,-1.17 0,-0.64 -0.52,-1.17 -1.16,-1.17z"/>
   <path class="fil0" d="M3.75 1.06c0,0.15 -0.12,0.27 -0.27,0.27 -0.15,0 -0.27,-0.12 -0.27,-0.27 0,-0.15 0.12,-0.27 0.27,-0.27 0.15,0 0.27,0.12 0.27,0.27z"/>
  </g>
 </g>
</svg>
