<?xml version="1.0" encoding="UTF-8"?>
<!DOCTYPE svg PUBLIC "-//W3C//DTD SVG 1.1//EN" "http://www.w3.org/Graphics/SVG/1.1/DTD/svg11.dtd">
<!-- Creator: CorelDRAW 2020 (64-Bit) -->
<svg xmlns="http://www.w3.org/2000/svg" xml:space="preserve" width="0.566913in" height="0.348992in" version="1.1" style="shape-rendering:geometricPrecision; text-rendering:geometricPrecision; image-rendering:optimizeQuality; fill-rule:evenodd; clip-rule:evenodd"
viewBox="0 0 8.22 5.06"
 xmlns:xlink="http://www.w3.org/1999/xlink"
 xmlns:xodm="http://www.corel.com/coreldraw/odm/2003">
 <defs>
  <style type="text/css">
   <![CDATA[
    .fil0 {fill:#FEFEFE;fill-rule:nonzero}
   ]]>
  </style>
 </defs>
 <g id="Layer_x0020_1">
  <metadata id="CorelCorpID_0Corel-Layer"/>
  <path class="fil0" d="M4.84 2.38l-2.35 0 0 0.67 1.59 0c-0.19,0.82 -0.77,1.32 -1.54,1.32 -1.02,0 -1.85,-0.83 -1.85,-1.85 0,-1.02 0.83,-1.85 1.85,-1.85 0.49,0 0.93,0.19 1.26,0.49l0.52 -0.45c-0.46,-0.45 -1.08,-0.73 -1.78,-0.73 -1.4,0 -2.53,1.13 -2.53,2.53 0,1.4 1.13,2.53 2.53,2.53 1.34,0 2.31,-1.02 2.31,-2.42l-0 -0.26zm3.38 0.03l-0.97 0 0 -0.97 -0.62 0 0 0.97 -0.97 0 0 0.62 0.97 0 0 0.97 0.62 0 0 -0.97 0.97 0 0 -0.62z"/>
 </g>
</svg>
