<?xml version="1.0" encoding="UTF-8"?>
<!DOCTYPE svg PUBLIC "-//W3C//DTD SVG 1.1//EN" "http://www.w3.org/Graphics/SVG/1.1/DTD/svg11.dtd">
<!-- Creator: CorelDRAW 2020 (64-Bit) -->
<svg xmlns="http://www.w3.org/2000/svg" xml:space="preserve" width="0.431307in" height="0.350543in" version="1.1" style="shape-rendering:geometricPrecision; text-rendering:geometricPrecision; image-rendering:optimizeQuality; fill-rule:evenodd; clip-rule:evenodd"
viewBox="0 0 5.08 4.13"
 xmlns:xlink="http://www.w3.org/1999/xlink"
 xmlns:xodm="http://www.corel.com/coreldraw/odm/2003">
 <defs>
  <style type="text/css">
   <![CDATA[
    .fil0 {fill:#FEFEFE;fill-rule:nonzero}
   ]]>
  </style>
 </defs>
 <g id="Layer_x0020_1">
  <metadata id="CorelCorpID_0Corel-Layer"/>
  <path class="fil0" d="M-0 3.66c0.46,0.3 1.01,0.47 1.6,0.47 1.93,0 3.03,-1.63 2.96,-3.1 0.2,-0.15 0.38,-0.33 0.52,-0.54 -0.19,0.08 -0.39,0.14 -0.6,0.16 0.21,-0.13 0.38,-0.33 0.46,-0.58 -0.2,0.12 -0.42,0.21 -0.66,0.25 -0.19,-0.2 -0.46,-0.33 -0.76,-0.33 -0.67,0 -1.17,0.63 -1.01,1.28 -0.87,-0.04 -1.63,-0.46 -2.15,-1.09 -0.27,0.47 -0.14,1.08 0.32,1.39 -0.17,-0.01 -0.33,-0.05 -0.47,-0.13 -0.01,0.48 0.33,0.93 0.84,1.03 -0.15,0.04 -0.31,0.05 -0.47,0.02 0.13,0.41 0.52,0.72 0.97,0.72 -0.44,0.34 -0.99,0.5 -1.54,0.43z"/>
 </g>
</svg>
