<?xml version="1.0" encoding="UTF-8"?>
<!DOCTYPE svg PUBLIC "-//W3C//DTD SVG 1.1//EN" "http://www.w3.org/Graphics/SVG/1.1/DTD/svg11.dtd">
<!-- Creator: CorelDRAW 2020 (64-Bit) -->
<svg xmlns="http://www.w3.org/2000/svg" xml:space="preserve" width="0.403528in" height="0.403701in" version="1.1" style="shape-rendering:geometricPrecision; text-rendering:geometricPrecision; image-rendering:optimizeQuality; fill-rule:evenodd; clip-rule:evenodd"
viewBox="0 0 4.74 4.74"
 xmlns:xlink="http://www.w3.org/1999/xlink"
 xmlns:xodm="http://www.corel.com/coreldraw/odm/2003">
 <defs>
  <style type="text/css">
   <![CDATA[
    .fil0 {fill:#FEFEFE;fill-rule:nonzero}
   ]]>
  </style>
 </defs>
 <g id="Layer_x0020_1">
  <metadata id="CorelCorpID_0Corel-Layer"/>
  <path class="fil0" d="M0.09 4.74l0.98 0 0 -3.16 -0.98 0 0 3.16zm2.54 -1.66c0,-0.44 0.2,-0.71 0.6,-0.71 0.36,0 0.53,0.25 0.53,0.71l0 1.66 0.97 0 0 -2c0,-0.85 -0.48,-1.26 -1.15,-1.26 -0.67,0 -0.95,0.52 -0.95,0.52l0 -0.43 -0.94 0 0 3.16 0.94 0 0 -1.66zm-2.06 -1.91c0.32,0 0.58,-0.26 0.58,-0.58 0,-0.32 -0.26,-0.58 -0.58,-0.58 -0.32,0 -0.58,0.26 -0.58,0.58 0,0.32 0.26,0.58 0.58,0.58z"/>
 </g>
</svg>
