<?xml version="1.0" encoding="UTF-8"?>
<!DOCTYPE svg PUBLIC "-//W3C//DTD SVG 1.1//EN" "http://www.w3.org/Graphics/SVG/1.1/DTD/svg11.dtd">
<!-- Creator: CorelDRAW 2020 (64-Bit) -->
<svg xmlns="http://www.w3.org/2000/svg" xml:space="preserve" width="0.344496in" height="0.445008in" version="1.1" style="shape-rendering:geometricPrecision; text-rendering:geometricPrecision; image-rendering:optimizeQuality; fill-rule:evenodd; clip-rule:evenodd"
viewBox="0 0 3.71 4.79"
 xmlns:xlink="http://www.w3.org/1999/xlink"
 xmlns:xodm="http://www.corel.com/coreldraw/odm/2003">
 <defs>
  <style type="text/css">
   <![CDATA[
    .fil0 {fill:#FEFEFE;fill-rule:nonzero}
   ]]>
  </style>
 </defs>
 <g id="Layer_x0020_1">
  <metadata id="CorelCorpID_0Corel-Layer"/>
  <path class="fil0" d="M0.56 2.77c0.06,0.03 0.12,0 0.14,-0.07 0.01,-0.05 0.04,-0.17 0.06,-0.22 0.02,-0.07 0.01,-0.09 -0.04,-0.15 -0.11,-0.13 -0.18,-0.3 -0.18,-0.54 0,-0.7 0.52,-1.32 1.35,-1.32 0.74,0 1.14,0.45 1.14,1.05 0,0.79 -0.35,1.46 -0.87,1.46 -0.29,0 -0.5,-0.24 -0.43,-0.53 0.08,-0.35 0.24,-0.72 0.24,-0.98 0,-0.23 -0.12,-0.41 -0.37,-0.41 -0.29,0 -0.53,0.3 -0.53,0.71 0,0.26 0.09,0.44 0.09,0.44 0,0 -0.3,1.28 -0.35,1.5 -0.11,0.44 -0.02,0.99 -0.01,1.05 0,0.03 0.05,0.04 0.07,0.02 0.03,-0.04 0.38,-0.47 0.5,-0.9 0.03,-0.12 0.19,-0.76 0.19,-0.76 0.1,0.18 0.38,0.34 0.67,0.34 0.88,0 1.48,-0.81 1.48,-1.89 0,-0.82 -0.69,-1.58 -1.74,-1.58 -1.31,0 -1.97,0.94 -1.97,1.72 0,0.47 0.18,0.89 0.56,1.05z"/>
 </g>
</svg>
