<?xml version="1.0" encoding="UTF-8"?>
<!DOCTYPE svg PUBLIC "-//W3C//DTD SVG 1.1//EN" "http://www.w3.org/Graphics/SVG/1.1/DTD/svg11.dtd">
<!-- Creator: CorelDRAW 2020 (64-Bit) -->
<svg xmlns="http://www.w3.org/2000/svg" xml:space="preserve" width="0.44172in" height="0.281213in" version="1.1" style="shape-rendering:geometricPrecision; text-rendering:geometricPrecision; image-rendering:optimizeQuality; fill-rule:evenodd; clip-rule:evenodd"
viewBox="0 0 6.54 4.16"
 xmlns:xlink="http://www.w3.org/1999/xlink"
 xmlns:xodm="http://www.corel.com/coreldraw/odm/2003">
 <defs>
  <style type="text/css">
   <![CDATA[
    .fil0 {fill:#FEFEFE;fill-rule:nonzero}
   ]]>
  </style>
 </defs>
 <g id="Layer_x0020_1">
  <metadata id="CorelCorpID_0Corel-Layer"/>
  <path class="fil0" d="M0.81 3.36l0 -1.08 1 0c0.17,0 0.31,0.02 0.41,0.07 0.17,0.08 0.26,0.22 0.26,0.44 0,0.25 -0.09,0.42 -0.27,0.51 -0.1,0.05 -0.24,0.07 -0.41,0.07l-0.99 0zm5.07 -3.12l-1.77 0 0 0.41 1.77 0 0 -0.41zm-1.3 1.56c0.11,-0.11 0.27,-0.17 0.47,-0.17 0.19,0 0.34,0.05 0.47,0.16 0.13,0.11 0.19,0.27 0.21,0.47l-1.35 0c0.03,-0.2 0.1,-0.35 0.21,-0.46zm-0.56 2c0.31,0.25 0.66,0.37 1.06,0.37 0.48,0 0.86,-0.15 1.13,-0.44 0.17,-0.18 0.27,-0.36 0.29,-0.54l-0.8 0c-0.05,0.09 -0.1,0.16 -0.16,0.21 -0.11,0.09 -0.26,0.14 -0.44,0.14 -0.17,0 -0.31,-0.04 -0.43,-0.11 -0.2,-0.12 -0.3,-0.33 -0.31,-0.63l2.19 0c0,-0.26 -0,-0.46 -0.03,-0.6 -0.04,-0.24 -0.12,-0.44 -0.24,-0.62 -0.14,-0.2 -0.31,-0.35 -0.52,-0.44 -0.21,-0.09 -0.44,-0.14 -0.71,-0.14 -0.44,0 -0.8,0.14 -1.07,0.42 -0.28,0.28 -0.41,0.68 -0.41,1.2 0,0.56 0.15,0.96 0.46,1.2zm-3.21 -3.09l0.88 0c0.19,0 0.35,0.02 0.48,0.06 0.15,0.06 0.22,0.19 0.22,0.37 0,0.17 -0.06,0.29 -0.17,0.36 -0.11,0.07 -0.25,0.1 -0.43,0.1l-0.99 0 0 -0.9zm1.59 3.3c0.18,-0.04 0.33,-0.1 0.46,-0.2 0.11,-0.09 0.21,-0.19 0.29,-0.32 0.12,-0.19 0.18,-0.41 0.18,-0.65 0,-0.23 -0.05,-0.43 -0.16,-0.6 -0.11,-0.16 -0.26,-0.28 -0.47,-0.36 0.14,-0.07 0.24,-0.15 0.31,-0.23 0.13,-0.15 0.19,-0.35 0.19,-0.6 0,-0.24 -0.06,-0.45 -0.19,-0.62 -0.21,-0.28 -0.56,-0.43 -1.05,-0.43l-1.96 0 0 4.06 1.83 0c0.21,0 0.4,-0.02 0.57,-0.06z"/>
 </g>
</svg>
