<?xml version="1.0" encoding="UTF-8"?>
<!DOCTYPE svg PUBLIC "-//W3C//DTD SVG 1.1//EN" "http://www.w3.org/Graphics/SVG/1.1/DTD/svg11.dtd">
<!-- Creator: CorelDRAW 2020 (64-Bit) -->
<svg xmlns="http://www.w3.org/2000/svg" xml:space="preserve" width="0.37922in" height="0.377535in" version="1.1" style="shape-rendering:geometricPrecision; text-rendering:geometricPrecision; image-rendering:optimizeQuality; fill-rule:evenodd; clip-rule:evenodd"
viewBox="0 0 5.24 5.21"
 xmlns:xlink="http://www.w3.org/1999/xlink"
 xmlns:xodm="http://www.corel.com/coreldraw/odm/2003">
 <defs>
  <style type="text/css">
   <![CDATA[
    .fil0 {fill:#FEFEFE;fill-rule:nonzero}
   ]]>
  </style>
 </defs>
 <g id="Layer_x0020_1">
  <metadata id="CorelCorpID_0Corel-Layer"/>
  <path class="fil0" d="M2.64 0.87c0.79,0.05 1.25,0.39 1.29,0.72 0.02,0.21 -0.12,0.38 -0.36,0.38 -0.36,0 -0.39,-0.48 -1.01,-0.48 -0.28,0 -0.51,0.12 -0.51,0.36 0,0.52 1.97,0.22 1.97,1.37 0,0.66 -0.53,1.1 -1.32,1.1 -0.7,0 -1.4,-0.32 -1.39,-0.86 0,-0.16 0.12,-0.31 0.29,-0.31 0.41,0 0.41,0.61 1.06,0.61 0.46,0 0.61,-0.25 0.61,-0.42 0,-0.63 -1.98,-0.24 -1.98,-1.43 0,-0.64 0.53,-1.08 1.35,-1.03zm-2.47 1.74c0,1.35 1.09,2.44 2.44,2.44 0.16,0 0.31,-0.02 0.46,-0.04 0.22,0.13 0.47,0.2 0.74,0.2 0.79,-0 1.43,-0.64 1.43,-1.43 0,-0.28 -0.08,-0.53 -0.21,-0.75 0.02,-0.14 0.04,-0.28 0.04,-0.43 0,-1.35 -1.09,-2.44 -2.44,-2.44 -0.15,0 -0.3,0.01 -0.45,0.04 -0.22,-0.13 -0.47,-0.21 -0.74,-0.21 -0.79,0 -1.43,0.64 -1.43,1.43 0,0.27 0.08,0.53 0.21,0.75 -0.03,0.14 -0.04,0.29 -0.04,0.43z"/>
 </g>
</svg>
