<?xml version="1.0" encoding="UTF-8"?>
<!DOCTYPE svg PUBLIC "-//W3C//DTD SVG 1.1//EN" "http://www.w3.org/Graphics/SVG/1.1/DTD/svg11.dtd">
<!-- Creator: CorelDRAW 2020 (64-Bit) -->
<svg xmlns="http://www.w3.org/2000/svg" xml:space="preserve" width="0.423083in" height="0.298071in" version="1.1" style="shape-rendering:geometricPrecision; text-rendering:geometricPrecision; image-rendering:optimizeQuality; fill-rule:evenodd; clip-rule:evenodd"
viewBox="0 0 7.08 4.99"
 xmlns:xlink="http://www.w3.org/1999/xlink"
 xmlns:xodm="http://www.corel.com/coreldraw/odm/2003">
 <defs>
  <style type="text/css">
   <![CDATA[
    .fil0 {fill:#FEFEFE;fill-rule:nonzero}
   ]]>
  </style>
 </defs>
 <g id="Layer_x0020_1">
  <metadata id="CorelCorpID_0Corel-Layer"/>
  <path class="fil0" d="M6.94 0.78c-0.08,-0.31 -0.32,-0.55 -0.63,-0.63 -0.55,-0.15 -2.77,-0.15 -2.77,-0.15 0,0 -2.22,0 -2.77,0.15 -0.3,0.08 -0.54,0.32 -0.63,0.63 -0.15,0.56 -0.15,1.72 -0.15,1.72 0,0 0,1.16 0.15,1.72 0.08,0.31 0.32,0.55 0.63,0.63 0.55,0.15 2.77,0.15 2.77,0.15 0,0 2.22,0 2.77,-0.15 0.3,-0.08 0.54,-0.32 0.63,-0.63 0.15,-0.56 0.15,-1.72 0.15,-1.72 0,0 0,-1.16 -0.15,-1.72zm-4.12 2.77l0 -2.11 1.85 1.05 -1.85 1.05z"/>
 </g>
</svg>
