<?xml version="1.0" encoding="UTF-8"?>
<!DOCTYPE svg PUBLIC "-//W3C//DTD SVG 1.1//EN" "http://www.w3.org/Graphics/SVG/1.1/DTD/svg11.dtd">
<!-- Creator: CorelDRAW 2020 (64-Bit) -->
<svg xmlns="http://www.w3.org/2000/svg" xml:space="preserve" width="0.427843in" height="0.399283in" version="1.1" style="shape-rendering:geometricPrecision; text-rendering:geometricPrecision; image-rendering:optimizeQuality; fill-rule:evenodd; clip-rule:evenodd"
viewBox="0 0 7.97 7.44"
 xmlns:xlink="http://www.w3.org/1999/xlink"
 xmlns:xodm="http://www.corel.com/coreldraw/odm/2003">
 <defs>
  <style type="text/css">
   <![CDATA[
    .fil0 {fill:#FEFEFE}
   ]]>
  </style>
 </defs>
 <g id="Layer_x0020_1">
  <metadata id="CorelCorpID_0Corel-Layer"/>
  <path class="fil0" d="M7.89 5.67l0 -0c-0,-0 -0,-0 -0.01,-0.01l-0 0c-0.1,-0.06 -0.19,-0.07 -0.25,-0.09 -0,0 -0,0 -0,-0 -0.41,-0.13 -0.77,-0.41 -1.04,-0.76 -0.15,-0.19 -0.27,-0.4 -0.36,-0.62l0 -0c-0.03,-0.09 -0.03,-0.2 0.01,-0.27 0,0 0,0 0,-0 0.08,-0.11 0.21,-0.17 0.36,-0.23l0 0c0.16,-0.06 0.34,-0.12 0.48,-0.25 0,0 0,-0 0,-0 0.02,-0.02 0.05,-0.05 0.07,-0.09 0,-0.01 0.01,-0.02 0.01,-0.03 0.01,-0.04 0.01,-0.09 -0.01,-0.13l0 -0c-0.04,-0.08 -0.11,-0.13 -0.17,-0.16l-0 0c-0.09,-0.05 -0.2,-0.06 -0.29,-0.03l-0 0c-0.1,0.03 -0.18,0.07 -0.26,0.08 -0,0 -0,0 -0.01,0 -0.11,0.02 -0.21,0.02 -0.29,-0.01 -0,-0.01 -0,-0.04 -0.01,-0.06l0 0c-0.01,-0.18 0.01,-0.36 0.01,-0.55l0 -0c0.01,-0.29 0.02,-0.58 -0.02,-0.88l0 -0c-0.09,-0.5 -0.41,-0.93 -0.82,-1.22 -0.29,-0.21 -0.65,-0.32 -1,-0.36 -0.12,-0.01 -0.24,-0.01 -0.36,-0.01 -0.48,0 -0.98,0.13 -1.37,0.44 -0.29,0.23 -0.52,0.53 -0.67,0.87l0 0c-0.14,0.35 -0.13,0.72 -0.11,1.06 0.01,0.24 0.04,0.48 0.02,0.7 -0,0.01 -0,0.01 -0,0.01 -0.11,0.02 -0.23,0.01 -0.34,-0.01l-0 0c-0.08,-0.01 -0.17,-0.05 -0.26,-0.07 -0,0 -0,0 -0.01,-0 -0.09,-0.02 -0.19,0.01 -0.26,0.06 -0,0 -0,0 -0,0 -0,0 -0,0 -0,0 -0.06,0.04 -0.14,0.1 -0.14,0.21 -0,0.01 0,0.01 0,0.02 0,0 0,0 0,0 0.01,0.06 0.05,0.11 0.09,0.14 0.04,0.03 0.07,0.05 0.09,0.07 0,0 0,0 0.01,0 0.18,0.12 0.37,0.17 0.54,0.23 0.12,0.05 0.22,0.13 0.24,0.23 0.03,0.13 -0.03,0.27 -0.1,0.41l0 0c-0.19,0.37 -0.47,0.7 -0.82,0.94 -0.18,0.13 -0.39,0.22 -0.6,0.27 -0,0 -0.01,0 -0.01,0 -0.04,0.02 -0.15,0.03 -0.21,0.12 -0,0.01 -0.01,0.01 -0.01,0.02 -0.02,0.06 0,0.13 0.04,0.17 0.03,0.03 0.06,0.06 0.09,0.07 0,0 0,0 0.01,0 0.18,0.1 0.38,0.15 0.56,0.19 0,0 0,0 0,0 0.13,0.03 0.25,0.04 0.35,0.09 0,0.01 0.01,0.04 0.04,0.09 0.03,0.1 0.05,0.21 0.08,0.34 0.01,0.03 0.04,0.06 0.08,0.07 0.08,0.02 0.13,-0.01 0.13,-0.01l0.01 0c0.3,-0.05 0.6,-0.1 0.88,-0.03 0.29,0.08 0.54,0.28 0.83,0.45l0 0c0.19,0.12 0.41,0.23 0.66,0.24l0 0c0.19,0.01 0.38,-0 0.56,-0.01l0 0c0.16,-0.01 0.31,-0.07 0.44,-0.15 0,-0 0,-0 0.01,-0 0.3,-0.17 0.56,-0.37 0.85,-0.5l0 0c0.09,-0.03 0.21,-0.03 0.34,-0.04l0 0c0.24,-0.01 0.48,0 0.72,0.04 0.01,0 0.02,0 0.02,0 0.03,-0 0.07,-0.03 0.08,-0.05 0.02,-0.02 0.02,-0.04 0.03,-0.05 0.01,-0.02 0.01,-0.03 0,-0.01 0,-0.01 0.01,-0.01 0.01,-0.02 0.04,-0.14 0.07,-0.27 0.14,-0.36 0.03,-0.03 0.09,-0.05 0.15,-0.05l0.01 0c0.21,-0.02 0.4,-0.1 0.57,-0.16 0,-0 0.01,-0 0.01,-0 0.07,-0.03 0.16,-0.06 0.23,-0.16l0 -0c0.06,-0.08 0.03,-0.19 -0.05,-0.23z"/>
 </g>
</svg>
