<?xml version="1.0" encoding="UTF-8"?>
<!DOCTYPE svg PUBLIC "-//W3C//DTD SVG 1.1//EN" "http://www.w3.org/Graphics/SVG/1.1/DTD/svg11.dtd">
<!-- Creator: CorelDRAW 2020 (64-Bit) -->
<svg xmlns="http://www.w3.org/2000/svg" xml:space="preserve" width="0.41398in" height="0.413992in" version="1.1" style="shape-rendering:geometricPrecision; text-rendering:geometricPrecision; image-rendering:optimizeQuality; fill-rule:evenodd; clip-rule:evenodd"
viewBox="0 0 8.26 8.26"
 xmlns:xlink="http://www.w3.org/1999/xlink"
 xmlns:xodm="http://www.corel.com/coreldraw/odm/2003">
 <defs>
  <style type="text/css">
   <![CDATA[
    .fil0 {fill:#FEFEFE;fill-rule:nonzero}
   ]]>
  </style>
 </defs>
 <g id="Layer_x0020_1">
  <metadata id="CorelCorpID_0Corel-Layer"/>
  <path class="fil0" d="M5.09 3.91c-0.08,-0.19 -0.17,-0.39 -0.26,-0.58 0.8,-0.34 1.43,-0.81 1.91,-1.4 0.46,0.55 0.76,1.25 0.8,2.01 -0.89,-0.15 -1.7,-0.15 -2.45,-0.03zm0.94 3.05c-0.15,-0.81 -0.37,-1.6 -0.66,-2.37 0.65,-0.09 1.36,-0.07 2.13,0.07 -0.15,0.96 -0.7,1.79 -1.47,2.31zm-1.89 0.58c-0.79,0 -1.52,-0.27 -2.09,-0.72 0.68,-1.06 1.54,-1.76 2.62,-2.08 0.32,0.83 0.55,1.69 0.7,2.57 -0.38,0.15 -0.79,0.23 -1.22,0.23zm-3.41 -3.41c0,-0.03 0,-0.06 0,-0.09 1.32,-0 2.47,-0.15 3.42,-0.46 0.08,0.16 0.16,0.33 0.23,0.49 -1.16,0.36 -2.12,1.11 -2.87,2.23 -0.49,-0.59 -0.79,-1.35 -0.79,-2.18zm1.87 -3.04c0.46,0.6 0.86,1.22 1.22,1.85 -0.84,0.25 -1.83,0.37 -2.99,0.38 0.24,-0.98 0.9,-1.79 1.77,-2.23zm1.54 -0.37c0.78,0 1.5,0.27 2.08,0.71 -0.41,0.53 -0.99,0.96 -1.72,1.27 -0.35,-0.64 -0.75,-1.26 -1.2,-1.87 0.27,-0.07 0.55,-0.11 0.84,-0.11zm0 -0.72c-2.28,0 -4.13,1.85 -4.13,4.13 0,2.28 1.85,4.13 4.13,4.13 2.28,0 4.13,-1.85 4.13,-4.13 0,-2.28 -1.85,-4.13 -4.13,-4.13z"/>
 </g>
</svg>
