<?xml version="1.0" encoding="UTF-8"?>
<!DOCTYPE svg PUBLIC "-//W3C//DTD SVG 1.1//EN" "http://www.w3.org/Graphics/SVG/1.1/DTD/svg11.dtd">
<!-- Creator: CorelDRAW 2020 (64-Bit) -->
<svg xmlns="http://www.w3.org/2000/svg" xml:space="preserve" width="0.414004in" height="0.35828in" version="1.1" style="shape-rendering:geometricPrecision; text-rendering:geometricPrecision; image-rendering:optimizeQuality; fill-rule:evenodd; clip-rule:evenodd"
viewBox="0 0 10.58 9.15"
 xmlns:xlink="http://www.w3.org/1999/xlink"
 xmlns:xodm="http://www.corel.com/coreldraw/odm/2003">
 <defs>
  <style type="text/css">
   <![CDATA[
    .fil0 {fill:#FEFEFE;fill-rule:nonzero}
   ]]>
  </style>
 </defs>
 <g id="Layer_x0020_1">
  <metadata id="CorelCorpID_0Corel-Layer"/>
  <path class="fil0" d="M9.04 0c-1.47,-0.05 -2.46,0.78 -2.98,2.48 0.27,-0.12 0.53,-0.17 0.78,-0.17 0.54,0 0.78,0.3 0.71,0.91 -0.03,0.37 -0.27,0.9 -0.71,1.6 -0.44,0.7 -0.78,1.05 -1,1.05 -0.29,0 -0.55,-0.54 -0.78,-1.62 -0.08,-0.32 -0.22,-1.13 -0.43,-2.43 -0.19,-1.21 -0.7,-1.77 -1.52,-1.69 -0.35,0.03 -0.87,0.35 -1.57,0.95 -0.51,0.46 -1.02,0.92 -1.54,1.38l0.5 0.64c0.47,-0.33 0.75,-0.5 0.83,-0.5 0.36,0 0.7,0.57 1.02,1.71 0.28,1.04 0.57,2.09 0.85,3.13 0.43,1.14 0.95,1.71 1.56,1.71 1,0 2.21,-0.93 3.65,-2.81 1.39,-1.79 2.11,-3.2 2.16,-4.23 0.06,-1.38 -0.45,-2.08 -1.54,-2.12z"/>
 </g>
</svg>
