<?xml version="1.0" encoding="UTF-8"?>
<!DOCTYPE svg PUBLIC "-//W3C//DTD SVG 1.1//EN" "http://www.w3.org/Graphics/SVG/1.1/DTD/svg11.dtd">
<!-- Creator: CorelDRAW 2020 (64-Bit) -->
<svg xmlns="http://www.w3.org/2000/svg" xml:space="preserve" width="0.398031in" height="0.398031in" version="1.1" style="shape-rendering:geometricPrecision; text-rendering:geometricPrecision; image-rendering:optimizeQuality; fill-rule:evenodd; clip-rule:evenodd"
viewBox="0 0 5.23 5.23"
 xmlns:xlink="http://www.w3.org/1999/xlink"
 xmlns:xodm="http://www.corel.com/coreldraw/odm/2003">
 <defs>
  <style type="text/css">
   <![CDATA[
    .fil0 {fill:#FEFEFE;fill-rule:nonzero}
   ]]>
  </style>
 </defs>
 <g id="Layer_x0020_1">
  <metadata id="CorelCorpID_0Corel-Layer"/>
  <path class="fil0" d="M4.85 0l-4.47 0c-0.21,0 -0.38,0.17 -0.38,0.38l0 0.55c0,0.21 0.17,0.38 0.38,0.38l4.47 0c0.21,0 0.38,-0.17 0.38,-0.38l0 -0.55c0,-0.21 -0.17,-0.38 -0.38,-0.38l0 0zm0.22 3.05l-0.98 0c-0.09,0 -0.16,0.07 -0.16,0.16 0,0.09 0.07,0.16 0.16,0.16l0.98 0c0.09,0 0.16,-0.07 0.16,-0.16 0,-0.09 -0.07,-0.16 -0.16,-0.16l0 0zm0 -1.31l-0.98 0c-0.09,0 -0.16,0.07 -0.16,0.16 0,0.09 0.07,0.16 0.16,0.16l0.98 0c0.09,0 0.16,-0.07 0.16,-0.16 0,-0.09 -0.07,-0.16 -0.16,-0.16l0 0zm0 0.65l-0.98 0c-0.09,0 -0.16,0.07 -0.16,0.16 0,0.09 0.07,0.16 0.16,0.16l0.98 0c0.09,0 0.16,-0.07 0.16,-0.16 0,-0.09 -0.07,-0.16 -0.16,-0.16zm0.16 2.07c0,-0.36 -0.29,-0.65 -0.65,-0.65 -0.36,0 -0.65,0.29 -0.65,0.65 0,0.36 0.29,0.65 0.65,0.65 0.36,0 0.65,-0.29 0.65,-0.65zm-2.13 -2.73l-2.73 0c-0.21,0 -0.38,0.17 -0.38,0.38l0 2.73c0,0.21 0.17,0.38 0.38,0.38l2.73 0c0.21,0 0.38,-0.17 0.38,-0.38l0 -2.73c0,-0.21 -0.17,-0.38 -0.38,-0.38l0 0zm-1.36 0.87c0.18,0 0.33,0.15 0.33,0.33 0,0.18 -0.15,0.33 -0.33,0.33 -0.18,0 -0.33,-0.15 -0.33,-0.33 0,-0.18 0.15,-0.33 0.33,-0.33zm0.65 1.36c0,0.09 -0.07,0.16 -0.16,0.16l-0.98 0c-0.09,0 -0.16,-0.07 -0.16,-0.16l0 -0.08c0,-0.23 0.2,-0.41 0.46,-0.41l0.39 0c0.25,0 0.46,0.18 0.46,0.41l0 0.08z"/>
 </g>
</svg>
