<?xml version="1.0" encoding="UTF-8"?>
<!DOCTYPE svg PUBLIC "-//W3C//DTD SVG 1.1//EN" "http://www.w3.org/Graphics/SVG/1.1/DTD/svg11.dtd">
<!-- Creator: CorelDRAW 2020 (64-Bit) -->
<svg xmlns="http://www.w3.org/2000/svg" xml:space="preserve" width="0.502409in" height="0.476787in" version="1.1" style="shape-rendering:geometricPrecision; text-rendering:geometricPrecision; image-rendering:optimizeQuality; fill-rule:evenodd; clip-rule:evenodd"
viewBox="0 0 5.77 5.48"
 xmlns:xlink="http://www.w3.org/1999/xlink"
 xmlns:xodm="http://www.corel.com/coreldraw/odm/2003">
 <defs>
  <style type="text/css">
   <![CDATA[
    .fil0 {fill:#FEFEFE;fill-rule:nonzero}
   ]]>
  </style>
 </defs>
 <g id="Layer_x0020_1">
  <metadata id="CorelCorpID_0Corel-Layer"/>
  <path class="fil0" d="M5.39 2.29c-0.03,-0 -0.05,-0.01 -0.08,-0.01l-3.89 0 0.1 -0.05c0.1,-0.05 0.18,-0.11 0.26,-0.18l1.26 -1.26c0.17,-0.16 0.19,-0.41 0.07,-0.61 -0.15,-0.2 -0.43,-0.25 -0.64,-0.1 -0.02,0.01 -0.03,0.03 -0.05,0.04l-2.28 2.28c-0.18,0.18 -0.18,0.47 -0,0.65 0,0 0,0 0,0l2.28 2.28c0.18,0.18 0.47,0.18 0.65,-0 0.01,-0.01 0.03,-0.03 0.04,-0.04 0.13,-0.19 0.1,-0.45 -0.07,-0.61l-1.26 -1.27c-0.07,-0.07 -0.14,-0.12 -0.23,-0.17l-0.14 -0.06 3.87 0c0.23,0.01 0.44,-0.15 0.48,-0.38 0.04,-0.25 -0.13,-0.48 -0.38,-0.52z"/>
 </g>
</svg>
