<?xml version="1.0" encoding="UTF-8"?>
<!DOCTYPE svg PUBLIC "-//W3C//DTD SVG 1.1//EN" "http://www.w3.org/Graphics/SVG/1.1/DTD/svg11.dtd">
<!-- Creator: CorelDRAW 2020 (64-Bit) -->
<svg xmlns="http://www.w3.org/2000/svg" xml:space="preserve" width="0.429213in" height="0.429213in" version="1.1" style="shape-rendering:geometricPrecision; text-rendering:geometricPrecision; image-rendering:optimizeQuality; fill-rule:evenodd; clip-rule:evenodd"
viewBox="0 0 9.57 9.57"
 xmlns:xlink="http://www.w3.org/1999/xlink"
 xmlns:xodm="http://www.corel.com/coreldraw/odm/2003">
 <defs>
  <style type="text/css">
   <![CDATA[
    .fil0 {fill:#FEFEFE;fill-rule:nonzero}
   ]]>
  </style>
 </defs>
 <g id="Layer_x0020_1">
  <metadata id="CorelCorpID_0Corel-Layer"/>
  <path class="fil0" d="M9.29 0l-1.14 0c-0.15,0 -0.28,0.13 -0.28,0.28l0 0.28 -2.29 0c-0.12,-0.33 -0.42,-0.56 -0.79,-0.56 -0.36,0 -0.67,0.23 -0.79,0.56l-2.29 0 0 -0.28c0,-0.15 -0.13,-0.28 -0.28,-0.28l-1.14 0c-0.15,0 -0.28,0.13 -0.28,0.28l0 1.12c0,0.15 0.13,0.28 0.28,0.28l1.14 0c0.15,0 0.28,-0.13 0.28,-0.28l0 -0.28 1.15 0c-0.97,0.61 -1.61,1.67 -1.69,2.87 -0.34,0.11 -0.58,0.42 -0.58,0.8 0,0.46 0.38,0.84 0.84,0.84 0.46,0 0.84,-0.38 0.84,-0.84 0,-0.36 -0.23,-0.66 -0.54,-0.78 0.1,-1.33 1.03,-2.46 2.32,-2.78 0.14,0.27 0.42,0.46 0.74,0.46 0.32,0 0.6,-0.19 0.74,-0.46 1.29,0.32 2.22,1.44 2.32,2.78 -0.32,0.12 -0.54,0.43 -0.54,0.78 0,0.46 0.38,0.84 0.84,0.84 0.46,0 0.84,-0.38 0.84,-0.84 0,-0.37 -0.25,-0.69 -0.58,-0.8 -0.08,-1.2 -0.72,-2.26 -1.69,-2.87l1.15 0 0 0.28c0,0.15 0.13,0.28 0.28,0.28l1.14 0c0.15,0 0.28,-0.13 0.28,-0.28l0 -1.12c0,-0.15 -0.13,-0.28 -0.28,-0.28zm-4.5 5.62c-0.15,0 -0.28,0.13 -0.28,0.28 0,0.15 0.13,0.28 0.28,0.28 0.15,0 0.28,-0.13 0.28,-0.28 0,-0.15 -0.13,-0.28 -0.28,-0.28zm2.48 0.12l-2.2 -3.29 0 2.66c0.33,0.12 0.56,0.42 0.56,0.79 0,0.46 -0.38,0.84 -0.84,0.84 -0.46,0 -0.84,-0.38 -0.84,-0.84 0,-0.36 0.23,-0.67 0.56,-0.79l0 -2.66 -2.2 3.29c-0.07,0.11 -0.06,0.26 0.04,0.35 0.51,0.51 0.84,1.18 0.97,1.89 0.19,-0.08 0.41,-0.12 0.63,-0.12l1.68 0c0.22,0 0.43,0.05 0.63,0.12 0.13,-0.71 0.46,-1.37 0.97,-1.89 0.09,-0.09 0.11,-0.24 0.04,-0.35zm-0.57 3.47c-0.15,-0.45 -0.57,-0.79 -1.07,-0.79l-1.68 0c-0.5,0 -0.92,0.34 -1.07,0.79 -0.06,0.17 0.09,0.35 0.27,0.35l3.27 0c0.18,0 0.33,-0.17 0.27,-0.35z"/>
 </g>
</svg>
