<?xml version="1.0" encoding="UTF-8"?>
<!DOCTYPE svg PUBLIC "-//W3C//DTD SVG 1.1//EN" "http://www.w3.org/Graphics/SVG/1.1/DTD/svg11.dtd">
<!-- Creator: CorelDRAW 2020 (64-Bit) -->
<svg xmlns="http://www.w3.org/2000/svg" xml:space="preserve" width="0.41672in" height="0.357004in" version="1.1" style="shape-rendering:geometricPrecision; text-rendering:geometricPrecision; image-rendering:optimizeQuality; fill-rule:evenodd; clip-rule:evenodd"
viewBox="0 0 4.44 3.8"
 xmlns:xlink="http://www.w3.org/1999/xlink"
 xmlns:xodm="http://www.corel.com/coreldraw/odm/2003">
 <defs>
  <style type="text/css">
   <![CDATA[
    .fil0 {fill:#FEFEFE}
   ]]>
  </style>
 </defs>
 <g id="Layer_x0020_1">
  <metadata id="CorelCorpID_0Corel-Layer"/>
  <path class="fil0" d="M1.59 0.32l1.26 0 0 0.31 -1.26 0 0 -0.31zm0.31 2.2c0,0.02 0,0.02 0.02,0.02l0.59 0c0.02,0 0.02,-0 0.02,-0.02l0 -0.28c0,-0.02 -0,-0.02 -0.02,-0.02l-0.62 0 0 0.3zm-1.9 0.94c0,0.16 0.18,0.35 0.38,0.35l3.67 0c0.11,0 0.2,-0.05 0.27,-0.12 0.06,-0.06 0.11,-0.17 0.11,-0.3l0 -1.17 -1.67 0 0 0.41c0,0.04 -0.02,0.08 -0.04,0.1 -0.03,0.03 -0.06,0.04 -0.11,0.04l-0.8 0c-0.09,0 -0.15,-0.09 -0.15,-0.18l0 -0.37 -1.66 0 0 1.24zm1.27 -3.22l0 0.4 -0.84 0c-0.18,0 -0.32,0.08 -0.38,0.22 -0.02,0.04 -0.04,0.1 -0.04,0.16l0 0.97 4.44 0 0 -0.96c0,-0.12 -0.06,-0.2 -0.13,-0.27 -0.07,-0.07 -0.16,-0.11 -0.3,-0.11l-0.84 0c0,-0.1 0.01,-0.38 -0.01,-0.46 -0.02,-0.09 -0.12,-0.17 -0.2,-0.17l-1.47 0c-0.12,0 -0.22,0.11 -0.22,0.23z"/>
 </g>
</svg>
