<?xml version="1.0" encoding="UTF-8"?>
<!DOCTYPE svg PUBLIC "-//W3C//DTD SVG 1.1//EN" "http://www.w3.org/Graphics/SVG/1.1/DTD/svg11.dtd">
<!-- Creator: CorelDRAW 2020 (64-Bit) -->
<svg xmlns="http://www.w3.org/2000/svg" xml:space="preserve" width="0.421244in" height="0.414417in" version="1.1" style="shape-rendering:geometricPrecision; text-rendering:geometricPrecision; image-rendering:optimizeQuality; fill-rule:evenodd; clip-rule:evenodd"
viewBox="0 0 5.11 5.03"
 xmlns:xlink="http://www.w3.org/1999/xlink"
 xmlns:xodm="http://www.corel.com/coreldraw/odm/2003">
 <defs>
  <style type="text/css">
   <![CDATA[
    .fil0 {fill:#FEFEFE;fill-rule:nonzero}
   ]]>
  </style>
 </defs>
 <g id="Layer_x0020_1">
  <metadata id="CorelCorpID_0Corel-Layer"/>
  <path class="fil0" d="M2.56 2.98c-0.04,0 -0.08,-0.02 -0.11,-0.05l-1.12 -1.12c-0.1,-0.1 -0.03,-0.27 0.11,-0.27l0.59 0 0 -1.28c0,-0.15 0.12,-0.27 0.27,-0.27l0.53 0c0.15,0 0.27,0.12 0.27,0.27l0 1.28 0.59 0c0.14,0 0.21,0.17 0.11,0.27l-1.12 1.12c-0.03,0.03 -0.07,0.05 -0.11,0.05zm1.19 -0.52l-0.77 0.77c-0.11,0.11 -0.26,0.17 -0.41,0.17 -0.16,0 -0.3,-0.06 -0.41,-0.17l-0.77 -0.77 -1.37 0.63 2.56 1.17 2.56 -1.17 -1.37 -0.63zm-0.98 2.05l0 0.52 2.28 -0.99c0.04,-0.02 0.06,-0.06 0.06,-0.1l0 -0.5 -2.34 1.07zm-0.43 0l-2.34 -1.07 0 0.5c0,0.04 0.03,0.08 0.06,0.1l2.28 0.99 0 -0.52z"/>
 </g>
</svg>
