<?xml version="1.0" encoding="UTF-8"?>
<!DOCTYPE svg PUBLIC "-//W3C//DTD SVG 1.1//EN" "http://www.w3.org/Graphics/SVG/1.1/DTD/svg11.dtd">
<!-- Creator: CorelDRAW 2020 (64-Bit) -->
<svg xmlns="http://www.w3.org/2000/svg" xml:space="preserve" width="0.391248in" height="0.39124in" version="1.1" style="shape-rendering:geometricPrecision; text-rendering:geometricPrecision; image-rendering:optimizeQuality; fill-rule:evenodd; clip-rule:evenodd"
viewBox="0 0 3.7 3.7"
 xmlns:xlink="http://www.w3.org/1999/xlink"
 xmlns:xodm="http://www.corel.com/coreldraw/odm/2003">
 <defs>
  <style type="text/css">
   <![CDATA[
    .fil0 {fill:#FEFEFE;fill-rule:nonzero}
   ]]>
  </style>
 </defs>
 <g id="Layer_x0020_1">
  <metadata id="CorelCorpID_0Corel-Layer"/>
  <path class="fil0" d="M3.04 1.85c-0.07,0 -0.13,0.06 -0.13,0.13l0 1.32c0,0.07 -0.06,0.13 -0.13,0.13l-2.38 0c-0.07,0 -0.13,-0.06 -0.13,-0.13l0 -2.64c0,-0.07 0.06,-0.13 0.13,-0.13l1.59 0c0.07,0 0.13,-0.06 0.13,-0.13 0,-0.07 -0.06,-0.13 -0.13,-0.13l-1.59 0c-0.22,0 -0.4,0.18 -0.4,0.4l0 2.64c0,0.22 0.18,0.4 0.4,0.4l2.38 0c0.22,0 0.4,-0.18 0.4,-0.4l0 -1.32c0,-0.07 -0.06,-0.13 -0.13,-0.13zm0.51 -1.7c-0.09,-0.09 -0.22,-0.15 -0.36,-0.15 -0.13,-0 -0.26,0.05 -0.36,0.15l-1.74 1.74c-0.01,0.01 -0.03,0.03 -0.03,0.05l-0.26 0.79c-0.02,0.07 0.01,0.14 0.08,0.17 0.01,0 0.03,0.01 0.04,0.01 0.01,-0 0.03,-0 0.04,-0.01l0.79 -0.26c0.02,-0.01 0.04,-0.02 0.05,-0.03l1.74 -1.74c0.2,-0.2 0.2,-0.52 0,-0.72z"/>
 </g>
</svg>
