<?xml version="1.0" encoding="UTF-8"?>
<!DOCTYPE svg PUBLIC "-//W3C//DTD SVG 1.1//EN" "http://www.w3.org/Graphics/SVG/1.1/DTD/svg11.dtd">
<!-- Creator: CorelDRAW 2020 (64-Bit) -->
<svg xmlns="http://www.w3.org/2000/svg" xml:space="preserve" width="0.449228in" height="0.449228in" version="1.1" style="shape-rendering:geometricPrecision; text-rendering:geometricPrecision; image-rendering:optimizeQuality; fill-rule:evenodd; clip-rule:evenodd"
viewBox="0 0 4.62 4.62"
 xmlns:xlink="http://www.w3.org/1999/xlink"
 xmlns:xodm="http://www.corel.com/coreldraw/odm/2003">
 <defs>
  <style type="text/css">
   <![CDATA[
    .fil0 {fill:#FEFEFE}
   ]]>
  </style>
 </defs>
 <g id="Layer_x0020_1">
  <metadata id="CorelCorpID_0Corel-Layer"/>
  <path class="fil0" d="M3.82 4.06c0.04,-0.04 0.08,-0.07 0.12,-0.11 0.44,-0.44 0.68,-1.02 0.68,-1.63 0,-0.14 -0.01,-0.28 -0.04,-0.42l-0.02 -0.11 -2.39 0 0 1.08 1.23 0c-0.09,0.17 -0.21,0.31 -0.35,0.43l0.77 0.77zm-2.49 -2.49c0.22,-0.3 0.58,-0.49 0.98,-0.49 0.33,0 0.64,0.13 0.87,0.36l0.1 0.1 0.77 -0.77 -0.1 -0.1c-0.44,-0.44 -1.02,-0.68 -1.63,-0.68 -0.62,0 -1.2,0.24 -1.63,0.68 -0.04,0.04 -0.08,0.08 -0.11,0.12l0.77 0.77zm-0.14 1.24c-0.07,-0.15 -0.11,-0.32 -0.11,-0.5 0,-0.18 0.04,-0.35 0.11,-0.5l-0.79 -0.79c-0.26,0.38 -0.4,0.83 -0.4,1.29 0,0.47 0.14,0.92 0.4,1.29l0.79 -0.79zm1.62 0.62c-0.15,0.07 -0.32,0.11 -0.5,0.11 -0.4,0 -0.75,-0.19 -0.98,-0.49l-0.77 0.77c0.04,0.04 0.07,0.08 0.11,0.12 0.44,0.44 1.02,0.68 1.63,0.68 0.47,0 0.92,-0.14 1.29,-0.4l-0.79 -0.79z"/>
 </g>
</svg>
