<?xml version="1.0" encoding="UTF-8"?>
<!DOCTYPE svg PUBLIC "-//W3C//DTD SVG 1.1//EN" "http://www.w3.org/Graphics/SVG/1.1/DTD/svg11.dtd">
<!-- Creator: CorelDRAW 2020 (64-Bit) -->
<svg xmlns="http://www.w3.org/2000/svg" xml:space="preserve" width="0.427421in" height="0.427457in" version="1.1" style="shape-rendering:geometricPrecision; text-rendering:geometricPrecision; image-rendering:optimizeQuality; fill-rule:evenodd; clip-rule:evenodd"
viewBox="0 0 4.18 4.18"
 xmlns:xlink="http://www.w3.org/1999/xlink"
 xmlns:xodm="http://www.corel.com/coreldraw/odm/2003">
 <defs>
  <style type="text/css">
   <![CDATA[
    .fil0 {fill:#FEFEFE;fill-rule:nonzero}
   ]]>
  </style>
 </defs>
 <g id="Layer_x0020_1">
  <metadata id="CorelCorpID_0Corel-Layer"/>
  <path class="fil0" d="M4.07 1.82c-0,-0 -0,-0 -0,-0l-1.71 -1.71c-0.07,-0.07 -0.17,-0.11 -0.27,-0.11 -0.1,0 -0.2,0.04 -0.27,0.11l-1.71 1.71c-0,0 -0,0 -0,0 -0.15,0.15 -0.15,0.39 0,0.54 0.07,0.07 0.16,0.11 0.26,0.11 0,0 0.01,0 0.01,0l0.07 0 0 1.26c0,0.25 0.2,0.45 0.45,0.45l0.67 0c0.07,0 0.12,-0.05 0.12,-0.12l0 -0.98c0,-0.11 0.09,-0.21 0.21,-0.21l0.39 0c0.11,0 0.21,0.09 0.21,0.21l0 0.98c0,0.07 0.05,0.12 0.12,0.12l0.67 0c0.25,0 0.45,-0.2 0.45,-0.45l0 -1.26 0.06 0c0.1,0 0.2,-0.04 0.27,-0.11 0.15,-0.15 0.15,-0.39 0,-0.54zm0 0z"/>
 </g>
</svg>
