<?xml version="1.0" encoding="UTF-8"?>
<!DOCTYPE svg PUBLIC "-//W3C//DTD SVG 1.1//EN" "http://www.w3.org/Graphics/SVG/1.1/DTD/svg11.dtd">
<!-- Creator: CorelDRAW 2020 (64-Bit) -->
<svg xmlns="http://www.w3.org/2000/svg" xml:space="preserve" width="1.17244in" height="1.1723in" version="1.1" style="shape-rendering:geometricPrecision; text-rendering:geometricPrecision; image-rendering:optimizeQuality; fill-rule:evenodd; clip-rule:evenodd"
viewBox="0 0 54.18 54.17"
 xmlns:xlink="http://www.w3.org/1999/xlink"
 xmlns:xodm="http://www.corel.com/coreldraw/odm/2003">
 <defs>
  <style type="text/css">
   <![CDATA[
    .fil0 {fill:#FF8200;fill-rule:nonzero}
   ]]>
  </style>
 </defs>
 <g id="Layer_x0020_1">
  <metadata id="CorelCorpID_0Corel-Layer"/>
  <path class="fil0" d="M53.11 51.08c-0.67,-0.39 -4.73,-2.91 -6.91,-7.46 5.08,-4.75 7.97,-11.36 7.97,-18.13 0,-14 -12.21,-25.5 -27.08,-25.5 -14.88,0 -27.08,11.5 -27.08,25.5 0,14 12.21,25.5 27.08,25.5 2,0 4.14,-0.19 7.1,-0.81 7.78,4.13 14.76,4.02 17.42,3.98 1.18,-0.01 2.04,0.2 2.48,-1.02 0.3,-0.82 -0.14,-1.77 -0.98,-2.05zm-22.85 -12.79c0,1.75 -1.42,3.17 -3.17,3.17 -1.75,0 -3.17,-1.42 -3.17,-3.17l0 -12.8c0,-1.75 1.42,-3.17 3.17,-3.17 1.75,0 3.17,1.42 3.17,3.17l0 12.8zm-3.17 -20.84c-1.75,0 -3.17,-1.42 -3.17,-3.17 0,-1.75 1.42,-3.17 3.17,-3.17 1.75,0 3.17,1.42 3.17,3.17 0,1.75 -1.42,3.17 -3.17,3.17z"/>
 </g>
</svg>
