<?xml version="1.0" encoding="UTF-8"?>
<!DOCTYPE svg PUBLIC "-//W3C//DTD SVG 1.1//EN" "http://www.w3.org/Graphics/SVG/1.1/DTD/svg11.dtd">
<!-- Creator: CorelDRAW 2020 (64-Bit) -->
<svg xmlns="http://www.w3.org/2000/svg" xml:space="preserve" width="0.975787in" height="0.975787in" version="1.1" style="shape-rendering:geometricPrecision; text-rendering:geometricPrecision; image-rendering:optimizeQuality; fill-rule:evenodd; clip-rule:evenodd"
viewBox="0 0 70.83 70.83"
 xmlns:xlink="http://www.w3.org/1999/xlink"
 xmlns:xodm="http://www.corel.com/coreldraw/odm/2003">
 <defs>
  <style type="text/css">
   <![CDATA[
    .fil1 {fill:#FEFEFE}
    .fil0 {fill:#FF8200}
   ]]>
  </style>
 </defs>
 <g id="Layer_x0020_1">
  <metadata id="CorelCorpID_0Corel-Layer"/>
  <rect class="fil0" x="-0" y="-0" width="70.83" height="70.83" rx="35.42" ry="35.42"/>
  <path class="fil1" d="M29.13 43.16c0.05,0.13 -0.11,0.16 0.56,0.14 0.21,-0.01 0.42,-0.01 0.63,-0.01l6.48 0.01c0.42,0 0.84,-0.01 1.26,-0.01 1.14,0.01 0.66,0 1.11,-0.24 0.07,-0.15 0.09,-0.18 0.23,-0.31 0.03,-0.03 0.13,-0.13 0.17,-0.15 0.14,-0.1 0.04,-0.06 0.18,-0.09 0.11,-0.22 0.15,-0.24 0.36,-0.35 0.09,-0.22 1.57,-1.56 1.98,-1.95 0.16,-0.15 0.18,-0.14 0.27,-0.33l-13.24 0 -0 3.29zm9.46 5.23l-0.35 1.44c0.08,0.09 -0.02,0.03 0.15,0.05 0.27,-0.07 0.64,-0.21 0.9,-0.17 0.05,-0.04 0.05,-0.05 0.14,-0.09 0.07,-0.03 0.07,-0.03 0.15,-0.05 0.1,-0.03 0.27,-0.05 0.37,-0.07l0.37 -0.11c-0.08,-0.17 -1.39,-1.43 -1.56,-1.58l-0.17 0.57zm0.49 -2.07c-0.06,0.36 -0.19,0.69 -0.19,1.06 0.14,0.02 0.87,0.8 1.01,0.93 0.42,0.41 0.74,0.9 1.12,0.98l0.18 -0.1c0.06,-0.02 0.18,-0.05 0.25,-0.07l1.5 -0.37 0.51 -0.17c-0.12,-0.1 -0.28,-0.22 -0.34,-0.38 -0.14,-0.06 -0.09,-0 -0.16,-0.16 -0.17,-0.05 -0.67,-0.58 -0.75,-0.7 -0.14,-0.09 -0.18,-0.13 -0.27,-0.27 -0.14,-0.1 -0.22,-0.19 -0.35,-0.33 -0.13,-0.12 -0.22,-0.17 -0.25,-0.32 -0.24,-0.12 -0.17,-0.06 -0.28,-0.24 -0.19,-0.1 -1.25,-1.19 -1.58,-1.5l-0.41 1.63zm17.66 -19.08l-0.07 0.08c-0.01,0.01 -0.02,0.02 -0.03,0.03 -0.25,0.27 -0.96,0.92 -1.07,1.14 0.28,0.32 0.67,0.66 0.98,0.97 0.35,0.34 0.6,0.59 0.97,0.98 0.17,0.17 0.31,0.32 0.47,0.48 0.36,0.38 1.29,1.35 1.55,1.49 0.25,-0.15 1.15,-1.06 1.3,-1.37 0.42,-0.87 -0.32,-1.51 -0.66,-1.83l-2.06 -2.03c-0.01,-0.02 -0.03,-0.02 -0.04,-0.04 -0.33,-0.01 -0.39,-0.13 -0.91,-0.08l-0.42 0.18zm-37.84 -8.36c-0.03,-0.61 0.61,-1.64 0.9,-2 0.93,-1.17 2.08,-1.94 3.67,-2.11 0.72,-0.08 2,-0 2.52,0.32 0.87,0.25 1.45,0.77 2.02,1.3 0.44,0.41 0.98,1.32 1.22,2.06 0.2,0.84 0.28,1.27 0.23,2.24 -0.02,0.23 0.02,0.21 -0.1,0.34 0.05,0.46 -0.49,1.78 -0.72,1.91 -0.21,0.58 -1.16,1.49 -1.7,1.71 -0.07,0.13 -0.75,0.42 -0.89,0.48 -0.28,0.11 -0.78,0.31 -1.11,0.24l-0.38 0.1 -1.41 -0.06c-0.22,-0.04 -0.39,-0.04 -0.53,-0.18 -0.39,0 -1.03,-0.34 -1.31,-0.51 -0.42,-0.25 -0.66,-0.47 -0.98,-0.78 -0.33,-0.32 -1.34,-1.53 -1.31,-2.19 -0.11,-0.13 -0.1,-0.13 -0.15,-0.32 -0.15,-0.57 -0.32,-2.17 0.03,-2.55zm2.38 -7.16c-0.07,0.08 0,0.01 -0.12,0.1 -0.01,0.01 -0.03,0.02 -0.04,0.03 -0.45,0.33 -0.38,0.23 -0.86,0.71 -0.37,0.37 -0.82,1.11 -1.65,1.34 -0.54,0.31 -1.23,0.51 -1.57,0.93 -0.41,0.51 -0.49,1.23 -0.54,1.95 -0.02,0.23 0.01,0.28 -0.11,0.43 0.05,0.52 -0.62,1.51 -0.83,1.9l-0.26 0.73c-0.04,0.5 0.07,0.64 0.08,1.01 0.1,0.09 0.55,0.92 0.62,1.1 0.21,0.34 0.59,1.1 0.46,1.62l0.1 0.38c0.03,0.49 0.13,0.73 0.25,1.15 0.12,0.11 0.07,0.06 0.13,0.21 0.25,0.26 0.42,0.43 0.79,0.63 0.31,0.17 0.64,0.33 0.97,0.44l-0.53 1.16 -0.68 1.47c-0.09,0.18 -0.13,0.33 -0.27,0.46 -0.02,0.19 -0.65,1.52 -0.77,1.76l-0.88 1.83c-0.06,0.24 -0.33,0.75 -0.46,1 -0.17,0.34 -0.33,0.7 -0.48,1.02 -0.12,0.33 -0.06,0.08 0.09,0.18 0.22,-0.1 0.54,-0.18 0.79,-0.17 0.18,-0.18 1.63,-0.49 2,-0.54l1.11 -0.29c0.16,0.22 1.29,2.38 1.31,2.62 0.11,0.05 0.04,-0.08 0.12,0.12 0.09,0.15 0.38,0.73 0.39,0.88 0.13,0.1 0.08,0.02 0.15,0.2l0.22 -0.24c0.01,-0.22 1.2,-2.71 1.39,-3.12 0.14,-0.25 0.27,-0.62 0.4,-0.77 0.03,-0.21 0.71,-1.65 0.83,-1.75l0.69 -1.52c0.14,0.16 0.6,1.16 0.61,1.35 0.06,0.06 0.04,0.03 0.1,0.12 0.04,0.06 0.03,0.05 0.07,0.13 0.05,0.11 0.08,0.19 0.12,0.28 0.22,0.51 1.55,3.14 1.55,3.43 0.18,0.18 0.39,0.68 0.45,0.91 0.27,0.36 0.33,0.92 0.63,1.19l1.14 -2.2c0.11,-0.37 0.58,-1.34 0.81,-1.61 0.23,0.03 0.89,0.17 1.07,0.31 0.23,-0.02 1.77,0.37 2.05,0.47l0.85 0.19c0.13,-0.03 -0.01,0.06 0.07,-0.06 -0.14,-0.29 -0.61,-1.17 -0.62,-1.43 -0.06,-0.06 -0.04,-0.02 -0.1,-0.11 -0.03,-0.04 -0.05,-0.08 -0.07,-0.13 -0.05,-0.1 -0.06,-0.16 -0.09,-0.28 -0.12,-0.14 -1.71,-3.52 -1.74,-3.79l-0.11 -0.11c-0.15,-0.26 -0.82,-1.68 -0.84,-1.9 -0.16,-0.13 -0.46,-0.81 -0.52,-1.05 0.41,-0.16 0.92,-0.54 1.32,-0.6 0.11,-0.22 0.06,-0.16 0.3,-0.28 0.02,-0.12 0.31,-0.55 0.4,-0.92 0.08,-0.35 0.13,-0.83 0.15,-1.18l0.1 -0.47c0.01,-0.01 0.02,-0.02 0.03,-0.05 0,-0.03 0.02,-0.03 0.03,-0.05 -0.04,-0.36 0.27,-0.79 0.45,-1.09 0.21,-0.34 0.33,-0.65 0.51,-1.01l0.08 -0.77c-0.16,-0.95 -0.68,-1.36 -0.98,-2.16 -0.15,-0.41 -0.22,-0.82 -0.26,-1.31 -0.04,-0.47 -0.2,-0.94 -0.23,-1.27 -0.19,-0.15 -0.18,-0.26 -0.34,-0.42 -0.15,-0.15 -0.23,-0.15 -0.36,-0.35 -0.23,-0.02 -0.37,-0.15 -0.57,-0.26 -0.06,-0.02 -0.22,-0.07 -0.26,-0.09 -0.2,-0.1 -0.1,-0.04 -0.19,-0.14 -0.36,-0.03 -0.9,-0.45 -1.1,-0.64 -0.54,-0.51 -1.12,-1.41 -1.88,-1.58 -0.57,-0.13 -1.07,0.11 -1.57,0.08 -0.12,0.1 -0.07,0.06 -0.28,0.11 -0.09,0.02 -0.23,0.03 -0.33,0.05 -0.74,0.05 -1.01,-0.01 -1.68,-0.16 -0.25,-0.05 -0.5,-0.1 -0.77,-0.11 -0.28,-0.01 -0.59,0.07 -0.81,0.06zm22.08 17.2l0.17 -0.04 -0 -3.38 0.02 -0 -3.44 -0.01 -0.06 -0 -6.29 -0 -0.09 0 0.01 3.44 9.7 -0zm-9.48 -11.01c0.12,0.06 0.44,0.73 0.45,0.97 0.12,0.13 0.16,0.35 0.23,0.57 0.06,0.61 0.04,0.86 -0.02,1.46l12.52 -0c0.16,0.66 0.02,3.36 0.04,4.26l-0 0.17 -0 8.3c0.2,-0.11 0.43,-0.39 0.59,-0.55l0.12 -0.06c0.07,-0.17 0.73,-0.8 0.86,-0.88 -0.01,-0.1 -0.03,-0.07 0.08,-0.07 0.09,-0.18 0.6,-0.68 0.78,-0.79 0,-0.1 -0.03,-0.08 0.07,-0.07 0.12,-0.18 0.27,-0.3 0.43,-0.46 0.13,-0.14 0.29,-0.34 0.45,-0.4l0.05 -0.11 0.01 -12.67 -0 -0.09 -16 -0.01 -0.84 0.01c0.1,0.19 0.13,0.2 0.2,0.43zm0.49 15.24c0.11,0.08 0.51,1.16 0.61,1.4 0.15,0.35 0.55,1.13 0.55,1.46 0.16,0.14 0.1,0.16 0.22,0.35l7.78 0.01 -0.01 -3.43 -9.1 -0c-0.13,0.11 -0.04,-0.03 -0.06,0.21zm-12.2 5.54l-0.03 17.6 28.43 -0.02c-0.08,-0.37 -0.09,-10.98 -0.01,-11.33 -0.16,0.05 -2.08,2.1 -2.38,2.41 -0.15,0.16 -0.25,0.27 -0.4,0.42 -0.07,0.07 -0.11,0.12 -0.18,0.19 -0.16,0.16 -0.04,0.08 -0.24,0.18 -0.05,0.22 -0.16,0.17 -0.23,0.34 -0.1,0.22 0.01,4.01 -0.03,4.24 -0.09,0.19 0.16,0.1 -0.25,0.13l-1.1 -0 -0.81 0 -1.06 0 -0.83 -0 -1.03 -0 -0.94 -0 -0.99 0 -0.82 0 -1.07 -0 -0.81 0 -1.06 0 -0.83 -0 -1.03 -0 -0.94 -0 -0.99 0 -0.82 0 -1.07 -0 -0.81 0 -1.06 0 -0.83 -0 -1.02 -0 -1.35 -0.03 -0 -14.64c0,-0.74 -0.1,-0.49 -0.12,-0.81 -0.07,-0.07 -0.03,-0.01 -0.1,-0.11 -0.01,-0.01 -0.07,-0.12 -0.07,-0.12 -0.07,-0.15 -0.05,-0.13 -0.1,-0.28 -0.11,-0.1 -0.79,-1.6 -0.8,-1.77 -0.17,-0.15 -0.07,-0.09 -0.17,-0.23 -0.06,-0.09 0.01,-0 -0.09,-0.12l-0.08 -0.07c-0.02,0.18 -0.78,1.73 -0.92,2.03 -0.16,0.35 -0.31,0.67 -0.48,1.03l-0.48 0.95zm32.21 -9.1c-0.15,0.3 -1.33,1.42 -1.66,1.77 -0.55,0.59 -1.15,1.11 -1.69,1.71l-1.71 1.69c-1.73,1.7 -3.38,3.5 -5.05,5.15 -0.1,0.1 -0.12,0.1 -0.24,0.2 -0.09,0.08 -0.14,0.14 -0.22,0.23l-0.86 0.84c-0.5,0.44 -1.78,1.91 -2.15,2.1l-0.28 0.39c0.22,0.32 1.59,1.59 1.99,1.98l1.99 1.94c0.29,-0.19 1.48,-1.45 1.82,-1.8 1.2,-1.24 3.12,-3.22 4.39,-4.43 1.4,-1.33 2.96,-3.02 4.37,-4.44 0.6,-0.6 1.14,-1.19 1.75,-1.77 0.71,-0.68 1.14,-1.06 1.75,-1.75 -0.07,-0.2 -0.41,-0.5 -0.55,-0.63 -0.13,-0.12 -0.47,-0.41 -0.53,-0.57 -0.15,-0.08 -0.11,-0.04 -0.24,-0.17 -0.14,-0.14 -0.09,-0.08 -0.18,-0.24 -0.28,-0.13 -0.54,-0.5 -0.79,-0.74 -0.23,-0.21 -0.64,-0.55 -0.78,-0.79l-0.26 -0.27 -0.61 -0.55 -0.26 0.14z"/>
 </g>
</svg>
