<?xml version="1.0" encoding="UTF-8"?>
<!DOCTYPE svg PUBLIC "-//W3C//DTD SVG 1.1//EN" "http://www.w3.org/Graphics/SVG/1.1/DTD/svg11.dtd">
<!-- Creator: CorelDRAW 2020 (64-Bit) -->
<svg xmlns="http://www.w3.org/2000/svg" xml:space="preserve" width="0.470882in" height="0.450268in" version="1.1" style="shape-rendering:geometricPrecision; text-rendering:geometricPrecision; image-rendering:optimizeQuality; fill-rule:evenodd; clip-rule:evenodd"
viewBox="0 0 14.98 14.32"
 xmlns:xlink="http://www.w3.org/1999/xlink"
 xmlns:xodm="http://www.corel.com/coreldraw/odm/2003">
 <defs>
  <style type="text/css">
   <![CDATA[
    .fil0 {fill:#FEFEFE;fill-rule:nonzero}
   ]]>
  </style>
 </defs>
 <g id="Layer_x0020_1">
  <metadata id="CorelCorpID_0Corel-Layer"/>
  <path class="fil0" d="M7.82 0c-1.52,0 -2.97,0.47 -4.2,1.36 -0.14,0.1 -0.18,0.3 -0.09,0.44l1.15 1.87c0.05,0.08 0.13,0.13 0.22,0.15 0.09,0.02 0.18,-0 0.26,-0.06 0.72,-0.52 1.57,-0.8 2.46,-0.8 2.31,0 4.19,1.88 4.19,4.19 0,2.31 -1.88,4.19 -4.19,4.19 -0.89,0 -1.74,-0.28 -2.46,-0.8 -0.07,-0.05 -0.17,-0.07 -0.26,-0.06 -0.09,0.02 -0.17,0.07 -0.22,0.15l-1.15 1.87c-0.09,0.15 -0.05,0.34 0.09,0.44 1.23,0.89 2.68,1.36 4.2,1.36 3.95,0 7.16,-3.21 7.16,-7.16 0,-3.95 -3.21,-7.16 -7.16,-7.16zm-3.26 9.85c0.06,-0.11 0.05,-0.24 -0.02,-0.34l-0.78 -1.17 4.72 0c0.65,0 1.17,-0.53 1.17,-1.17 0,-0.65 -0.53,-1.17 -1.17,-1.17l-4.72 0 0.78 -1.17c0.07,-0.1 0.07,-0.23 0.02,-0.34 -0.06,-0.11 -0.17,-0.18 -0.29,-0.18l-2.25 0c-0.11,0 -0.21,0.06 -0.28,0.15l-1.69 2.53c-0.07,0.11 -0.07,0.26 0,0.37l1.69 2.53c0.06,0.09 0.17,0.15 0.28,0.15l2.25 0c0.12,0 0.24,-0.07 0.29,-0.18z"/>
 </g>
</svg>
