<?xml version="1.0" encoding="UTF-8"?>
<!DOCTYPE svg PUBLIC "-//W3C//DTD SVG 1.1//EN" "http://www.w3.org/Graphics/SVG/1.1/DTD/svg11.dtd">
<!-- Creator: CorelDRAW 2020 (64-Bit) -->
<svg xmlns="http://www.w3.org/2000/svg" xml:space="preserve" width="0.412283in" height="0.289886in" version="1.1" style="shape-rendering:geometricPrecision; text-rendering:geometricPrecision; image-rendering:optimizeQuality; fill-rule:evenodd; clip-rule:evenodd"
viewBox="0 0 4.11 2.89"
 xmlns:xlink="http://www.w3.org/1999/xlink"
 xmlns:xodm="http://www.corel.com/coreldraw/odm/2003">
 <defs>
  <style type="text/css">
   <![CDATA[
    .fil0 {fill:#FEFEFE;fill-rule:nonzero}
   ]]>
  </style>
 </defs>
 <g id="Layer_x0020_1">
  <metadata id="CorelCorpID_0Corel-Layer"/>
  <path class="fil0" d="M4.07 0.21l-1.25 1.24 1.25 1.24c0.02,-0.05 0.04,-0.1 0.04,-0.15l0 -2.17c0,-0.06 -0.01,-0.11 -0.04,-0.15zm-1.42 1.41l-0.18 0.18c-0.23,0.23 -0.62,0.23 -0.85,0l-0.18 -0.18 -1.25 1.24c0.05,0.02 0.1,0.04 0.15,0.04l3.39 0c0.06,0 0.11,-0.01 0.15,-0.04l-1.25 -1.24zm-2.62 -1.41c-0.02,0.05 -0.04,0.1 -0.04,0.15l0 2.17c0,0.06 0.01,0.11 0.04,0.15l1.25 -1.24 -1.25 -1.24zm3.71 -0.21l-3.39 0c-0.06,0 -0.11,0.01 -0.15,0.04l1.59 1.58c0.14,0.14 0.37,0.14 0.51,0l1.59 -1.58c-0.05,-0.02 -0.1,-0.04 -0.15,-0.04z"/>
 </g>
</svg>
