<?xml version="1.0" encoding="UTF-8"?>
<!DOCTYPE svg PUBLIC "-//W3C//DTD SVG 1.1//EN" "http://www.w3.org/Graphics/SVG/1.1/DTD/svg11.dtd">
<!-- Creator: CorelDRAW 2020 (64-Bit) -->
<svg xmlns="http://www.w3.org/2000/svg" xml:space="preserve" width="0.439441in" height="0.334732in" version="1.1" style="shape-rendering:geometricPrecision; text-rendering:geometricPrecision; image-rendering:optimizeQuality; fill-rule:evenodd; clip-rule:evenodd"
viewBox="0 0 4.66 3.55"
 xmlns:xlink="http://www.w3.org/1999/xlink"
 xmlns:xodm="http://www.corel.com/coreldraw/odm/2003">
 <defs>
  <style type="text/css">
   <![CDATA[
    .fil0 {fill:#FEFEFE;fill-rule:nonzero}
   ]]>
  </style>
 </defs>
 <g id="Layer_x0020_1">
  <metadata id="CorelCorpID_0Corel-Layer"/>
  <path class="fil0" d="M4.25 0l-2.75 0c-0.23,0 -0.41,0.18 -0.41,0.41 0,0.23 0.18,0.41 0.41,0.41l2.75 0c0.23,0 0.41,-0.18 0.41,-0.41 0,-0.23 -0.18,-0.41 -0.41,-0.41zm-3.84 2.73c-0.23,0 -0.41,0.18 -0.41,0.41 0,0.23 0.18,0.41 0.41,0.41 0.23,0 0.41,-0.18 0.41,-0.41 0,-0.23 -0.18,-0.41 -0.41,-0.41zm0 -1.37c-0.23,0 -0.41,0.18 -0.41,0.41 0,0.23 0.18,0.41 0.41,0.41 0.23,0 0.41,-0.18 0.41,-0.41 0,-0.23 -0.18,-0.41 -0.41,-0.41zm0 -1.37c-0.23,0 -0.41,0.18 -0.41,0.41 0,0.23 0.18,0.41 0.41,0.41 0.23,0 0.41,-0.18 0.41,-0.41 0,-0.23 -0.18,-0.41 -0.41,-0.41zm3.84 2.73l-2.75 0c-0.23,0 -0.41,0.18 -0.41,0.41 0,0.23 0.18,0.41 0.41,0.41l2.75 0c0.23,0 0.41,-0.18 0.41,-0.41 0,-0.23 -0.18,-0.41 -0.41,-0.41zm0 -1.37l-2.75 0c-0.23,0 -0.41,0.18 -0.41,0.41 0,0.23 0.18,0.41 0.41,0.41l2.75 0c0.23,0 0.41,-0.18 0.41,-0.41 0,-0.23 -0.18,-0.41 -0.41,-0.41z"/>
 </g>
</svg>
