<?xml version="1.0" encoding="UTF-8"?>
<!DOCTYPE svg PUBLIC "-//W3C//DTD SVG 1.1//EN" "http://www.w3.org/Graphics/SVG/1.1/DTD/svg11.dtd">
<!-- Creator: CorelDRAW 2020 (64-Bit) -->
<svg xmlns="http://www.w3.org/2000/svg" xml:space="preserve" width="0.387217in" height="0.422425in" version="1.1" style="shape-rendering:geometricPrecision; text-rendering:geometricPrecision; image-rendering:optimizeQuality; fill-rule:evenodd; clip-rule:evenodd"
viewBox="0 0 3.84 4.19"
 xmlns:xlink="http://www.w3.org/1999/xlink"
 xmlns:xodm="http://www.corel.com/coreldraw/odm/2003">
 <defs>
  <style type="text/css">
   <![CDATA[
    .fil0 {fill:#FEFEFE;fill-rule:nonzero}
   ]]>
  </style>
 </defs>
 <g id="Layer_x0020_1">
  <metadata id="CorelCorpID_0Corel-Layer"/>
  <path class="fil0" d="M3.56 2.95c-0.26,-0.22 -0.42,-0.55 -0.42,-0.89l0 -0.49c0,-0.61 -0.46,-1.12 -1.05,-1.21l0 -0.19c0,-0.1 -0.08,-0.17 -0.17,-0.17 -0.1,0 -0.17,0.08 -0.17,0.17l0 0.19c-0.59,0.09 -1.05,0.59 -1.05,1.21l0 0.49c0,0.35 -0.15,0.67 -0.42,0.9 -0.07,0.06 -0.11,0.14 -0.11,0.23 0,0.17 0.14,0.31 0.31,0.31l2.88 0c0.17,0 0.31,-0.14 0.31,-0.31 0,-0.09 -0.04,-0.17 -0.11,-0.23l0 0zm0.11 -1.05c-0.1,0 -0.17,-0.08 -0.17,-0.17 0,-0.49 -0.19,-0.95 -0.54,-1.3 -0.07,-0.07 -0.07,-0.18 0,-0.25 0.07,-0.07 0.18,-0.07 0.25,0 0.41,0.41 0.64,0.96 0.64,1.54 0,0.1 -0.08,0.17 -0.17,0.17zm-3.49 0c-0.1,0 -0.17,-0.08 -0.17,-0.17 0,-0.58 0.23,-1.13 0.64,-1.54 0.07,-0.07 0.18,-0.07 0.25,0 0.07,0.07 0.07,0.18 0,0.25 -0.35,0.35 -0.54,0.81 -0.54,1.3 0,0.1 -0.08,0.17 -0.17,0.17zm1.74 2.29c0.32,0 0.58,-0.23 0.64,-0.52l-1.28 0c0.06,0.3 0.33,0.52 0.64,0.52z"/>
 </g>
</svg>
