<?xml version="1.0" encoding="UTF-8"?>
<!DOCTYPE svg PUBLIC "-//W3C//DTD SVG 1.1//EN" "http://www.w3.org/Graphics/SVG/1.1/DTD/svg11.dtd">
<!-- Creator: CorelDRAW 2020 (64-Bit) -->
<svg xmlns="http://www.w3.org/2000/svg" xml:space="preserve" width="0.500606in" height="0.500583in" version="1.1" style="shape-rendering:geometricPrecision; text-rendering:geometricPrecision; image-rendering:optimizeQuality; fill-rule:evenodd; clip-rule:evenodd"
viewBox="0 0 11.64 11.64"
 xmlns:xlink="http://www.w3.org/1999/xlink"
 xmlns:xodm="http://www.corel.com/coreldraw/odm/2003">
 <defs>
  <style type="text/css">
   <![CDATA[
    .fil0 {fill:#FEFEFE}
   ]]>
  </style>
 </defs>
 <g id="Layer_x0020_1">
  <metadata id="CorelCorpID_0Corel-Layer"/>
  <g id="_1478148802032">
   <path class="fil0" d="M-0 3.28l0 0.03c0,0.08 0,0.14 0.05,0.21 0.03,0.06 0.49,0.28 0.58,0.33l2.96 1.57c0.28,0.14 2.19,1.18 2.23,1.18 0.03,0 0.64,-0.34 0.73,-0.38l1.12 -0.59c0.07,-0.03 0.11,-0.06 0.18,-0.1l3.15 -1.67c0.07,-0.04 0.12,-0.07 0.18,-0.1 0.06,-0.03 0.13,-0.06 0.19,-0.1 0.06,-0.03 0.14,-0.06 0.18,-0.1l0.06 -0.08c0.02,-0.04 0.03,-0.07 0.03,-0.11l0 -0.1c-0.02,-0.13 -0.09,-0.26 -0.22,-0.33l-0.18 -0.1c-0.03,-0.02 -0.06,-0.03 -0.09,-0.05 -0.49,-0.26 -1.09,-0.61 -1.58,-0.85 -0.07,-0.03 -0.11,-0.06 -0.18,-0.1l-3.13 -1.69c-0.19,-0.1 -0.29,-0.16 -0.38,-0.17l-0.11 0c-0.09,0.02 -0.19,0.07 -0.37,0.17 -0.06,0.03 -0.11,0.06 -0.18,0.1 -0.07,0.04 -0.12,0.07 -0.19,0.1l-4.79 2.58c-0.12,0.06 -0.23,0.19 -0.23,0.34zm7.87 -1.77c-0.17,0 -0.35,0 -0.52,0 -0.07,0 -0.12,0.03 -0.12,0.08 0,0.03 0.01,0.05 0.01,0.08 -0.35,-0 -0.7,-0 -1.05,-0 -0.05,-0.09 -0.19,-0.15 -0.35,-0.15 -0.16,0 -0.3,0.06 -0.37,0.15 -0.34,-0 -0.69,-0 -1.03,-0 0.01,-0.03 0.01,-0.05 0.02,-0.08 0.01,-0.04 -0.04,-0.07 -0.11,-0.07 -0.17,0 -0.33,0 -0.5,0 -0.07,0 -0.13,0.03 -0.15,0.07 -0.03,0.1 -0.07,0.2 -0.1,0.31 -0.01,0.04 0.03,0.08 0.1,0.08 0.17,0 0.35,0 0.53,0 0.07,0 0.14,-0.04 0.15,-0.08 0.01,-0.03 0.01,-0.05 0.02,-0.08 0.17,0 0.35,0 0.52,0 -0.24,0.09 -0.45,0.21 -0.62,0.36 -0.18,0.15 -0.31,0.34 -0.38,0.54 -0.18,0.04 -0.34,0.15 -0.38,0.28 -0.05,0.18 0.11,0.33 0.36,0.33 0.25,0 0.48,-0.14 0.52,-0.32 0.03,-0.13 -0.07,-0.24 -0.22,-0.29 0.08,-0.23 0.24,-0.43 0.47,-0.58 0.22,-0.15 0.49,-0.25 0.8,-0.3 0.06,0.08 0.18,0.13 0.34,0.13 0.15,0 0.29,-0.06 0.35,-0.13 0.3,0.05 0.57,0.16 0.78,0.31 0.21,0.16 0.37,0.36 0.42,0.59 -0.16,0.04 -0.27,0.15 -0.26,0.29 0.02,0.18 0.24,0.34 0.5,0.34 0.26,0 0.45,-0.15 0.41,-0.33 -0.03,-0.14 -0.18,-0.26 -0.36,-0.3 -0.05,-0.21 -0.17,-0.4 -0.34,-0.56 -0.16,-0.15 -0.36,-0.28 -0.6,-0.37 0.18,0 0.36,0 0.54,0 0,0.03 0.01,0.05 0.01,0.08 0.01,0.05 0.07,0.08 0.15,0.08 0.18,0 0.37,0 0.55,0 0.08,0 0.13,-0.04 0.12,-0.08 -0.02,-0.11 -0.05,-0.22 -0.07,-0.32 -0.01,-0.04 -0.07,-0.08 -0.15,-0.08zm-2.13 1.85c-0.08,-0 -0.16,0.05 -0.16,0.11 -0,0.06 0.06,0.12 0.15,0.12 0.09,0 0.16,-0.05 0.16,-0.12 0,-0.06 -0.07,-0.12 -0.15,-0.12zm1.38 0.07c-0.22,-0.22 -0.43,-0.44 -0.63,-0.64 -0.19,-0.19 -0.37,-0.38 -0.55,-0.56 -0.01,0.14 -0.01,0.29 -0.02,0.44 -0.01,0.16 -0.01,0.32 -0.02,0.49 0.18,0.05 0.3,0.17 0.3,0.32 -0,0.2 -0.22,0.36 -0.49,0.36 -0.27,-0 -0.47,-0.17 -0.45,-0.37 0.02,-0.15 0.15,-0.27 0.33,-0.31 0.01,-0.17 0.02,-0.33 0.03,-0.49 0.01,-0.15 0.02,-0.3 0.03,-0.44 -0.19,0.18 -0.4,0.36 -0.6,0.55 -0.22,0.2 -0.45,0.41 -0.68,0.62 -0.05,0.04 -0.05,0.11 -0.01,0.15 0.25,0.22 0.39,0.53 0.42,0.87 0.12,-0.04 0.25,-0.06 0.39,-0.06 0.34,0.01 0.68,0.01 1.02,0.02 0.14,0 0.27,0.03 0.39,0.07 0.07,-0.35 0.24,-0.65 0.52,-0.87 0.05,-0.04 0.05,-0.1 0.01,-0.15zm-0.22 1.68c-0.11,-0.25 -0.38,-0.44 -0.7,-0.45 -0.35,-0.01 -0.7,-0.01 -1.05,-0.02 -0.31,-0.01 -0.6,0.17 -0.73,0.41 -0.05,0.1 0.03,0.2 0.15,0.2 0.36,0.01 0.71,0.02 1.07,0.02 0.36,0.01 0.72,0.02 1.09,0.02 0.12,0 0.21,-0.1 0.17,-0.2z"/>
   <path class="fil0" d="M-0 8.27c0,0.34 0.21,0.4 0.49,0.55 0.04,0.02 0.06,0.03 0.1,0.06l3.32 1.78c0.13,0.07 0.24,0.13 0.37,0.2 0.07,0.03 0.11,0.06 0.18,0.1 0.07,0.03 0.12,0.07 0.19,0.1l0.37 0.2c0.13,0.06 0.63,0.37 0.76,0.37 0.23,0 0.24,-0.05 0.48,-0.17l1.1 -0.6c0.48,-0.25 1.01,-0.55 1.48,-0.79l2.21 -1.19c0.24,-0.13 0.6,-0.27 0.6,-0.54 0,-0.15 -0.03,-0.27 -0.16,-0.37 -0.08,-0.06 -0.87,-0.48 -0.89,-0.48 -0.08,0 -1.26,0.67 -1.61,0.84 -0.05,0.02 -0.11,0.05 -0.15,0.08l-2.06 1.09c-0.05,0.03 -0.09,0.05 -0.14,0.08 -0.15,0.08 -0.65,0.37 -0.77,0.37 -0.17,0 -0.23,-0.02 -0.41,-0.13l-0.88 -0.47c-0.61,-0.3 -1.3,-0.71 -1.9,-1l-0.3 -0.16c-0.06,-0.03 -0.09,-0.05 -0.15,-0.08 -0.13,-0.07 -1.14,-0.61 -1.18,-0.61 -0.04,0 -0.52,0.27 -0.59,0.31 -0.1,0.06 -0.2,0.09 -0.29,0.16 -0.08,0.06 -0.16,0.17 -0.16,0.3z"/>
   <path class="fil0" d="M-0 5.77c0,0.31 0.09,0.28 0.26,0.37l0.74 0.39c0.07,0.03 0.11,0.06 0.18,0.1 0.51,0.25 1.15,0.61 1.68,0.89 0.06,0.03 0.11,0.06 0.18,0.1l2.78 1.47 2.03 -1.07c0.46,-0.23 1.03,-0.56 1.48,-0.79l2.05 -1.08c0.2,-0.11 0.26,-0.08 0.26,-0.37 0,-0.25 -0.36,-0.41 -0.59,-0.53 -0.13,-0.06 -0.24,-0.13 -0.37,-0.2 -0.13,-0.07 -0.13,-0.01 -0.37,0.11l-2.03 1.07c-0.06,0.03 -0.13,0.06 -0.19,0.1l-1.11 0.59c-0.06,0.03 -0.13,0.06 -0.18,0.09 -0.19,0.11 -0.81,0.46 -0.97,0.46 -0.18,0 -0.57,-0.25 -0.77,-0.35l-0.74 -0.39c-0.07,-0.04 -0.12,-0.06 -0.18,-0.09 -0.07,-0.04 -0.11,-0.07 -0.19,-0.1l-2.22 -1.18c-0.06,-0.03 -0.13,-0.06 -0.18,-0.09l-0.37 -0.2c-0.18,-0.09 -0.09,-0.07 -0.37,0.07l-0.56 0.3c-0.11,0.06 -0.24,0.18 -0.24,0.33z"/>
  </g>
 </g>
</svg>
