<?xml version="1.0" encoding="UTF-8"?>
<!DOCTYPE svg PUBLIC "-//W3C//DTD SVG 1.1//EN" "http://www.w3.org/Graphics/SVG/1.1/DTD/svg11.dtd">
<!-- Creator: CorelDRAW 2020 (64-Bit) -->
<svg xmlns="http://www.w3.org/2000/svg" xml:space="preserve" width="0.397in" height="0.39698in" version="1.1" style="shape-rendering:geometricPrecision; text-rendering:geometricPrecision; image-rendering:optimizeQuality; fill-rule:evenodd; clip-rule:evenodd"
viewBox="0 0 4.03 4.03"
 xmlns:xlink="http://www.w3.org/1999/xlink"
 xmlns:xodm="http://www.corel.com/coreldraw/odm/2003">
 <defs>
  <style type="text/css">
   <![CDATA[
    .fil0 {fill:#FEFEFE;fill-rule:nonzero}
   ]]>
  </style>
 </defs>
 <g id="Layer_x0020_1">
  <metadata id="CorelCorpID_0Corel-Layer"/>
  <path id="Shape" class="fil0" d="M1.67 2.36c-0.38,-0.38 -0.47,-0.77 -0.49,-0.92 -0.01,-0.04 0.01,-0.09 0.04,-0.12l0.31 -0.31c0.05,-0.05 0.05,-0.12 0.02,-0.17l-0.5 -0.77c-0.04,-0.06 -0.12,-0.08 -0.18,-0.05l-0.8 0.37c-0.05,0.03 -0.08,0.08 -0.08,0.14 0.04,0.4 0.21,1.37 1.17,2.33 0.96,0.96 1.93,1.13 2.33,1.17 0.06,0.01 0.11,-0.02 0.14,-0.08l0.37 -0.8c0.03,-0.06 0.01,-0.14 -0.05,-0.18l-0.77 -0.5c-0.05,-0.03 -0.13,-0.03 -0.17,0.02l-0.31 0.31c-0.03,0.03 -0.07,0.05 -0.12,0.04 -0.15,-0.02 -0.54,-0.11 -0.92,-0.49l0 0zm2.22 -0.21c-0.08,0 -0.14,-0.06 -0.14,-0.14 -0,-0.96 -0.78,-1.74 -1.74,-1.74 -0.08,0 -0.14,-0.06 -0.14,-0.14 0,-0.08 0.06,-0.14 0.14,-0.14 1.11,0 2.01,0.9 2.02,2.02 0,0.04 -0.01,0.07 -0.04,0.1 -0.03,0.03 -0.06,0.04 -0.1,0.04l0 0zm-0.7 0c-0.08,0 -0.14,-0.06 -0.14,-0.14 -0,-0.58 -0.47,-1.04 -1.04,-1.04 -0.08,0 -0.14,-0.06 -0.14,-0.14 0,-0.08 0.06,-0.14 0.14,-0.14 0.73,0 1.32,0.59 1.32,1.32 0,0.08 -0.06,0.14 -0.14,0.14l0 0z"/>
 </g>
</svg>
