<?xml version="1.0" encoding="UTF-8"?>
<!DOCTYPE svg PUBLIC "-//W3C//DTD SVG 1.1//EN" "http://www.w3.org/Graphics/SVG/1.1/DTD/svg11.dtd">
<!-- Creator: CorelDRAW 2020 (64-Bit) -->
<svg xmlns="http://www.w3.org/2000/svg" xml:space="preserve" width="0.383835in" height="0.383831in" version="1.1" style="shape-rendering:geometricPrecision; text-rendering:geometricPrecision; image-rendering:optimizeQuality; fill-rule:evenodd; clip-rule:evenodd"
viewBox="0 0 4.54 4.54"
 xmlns:xlink="http://www.w3.org/1999/xlink"
 xmlns:xodm="http://www.corel.com/coreldraw/odm/2003">
 <defs>
  <style type="text/css">
   <![CDATA[
    .fil0 {fill:#FEFEFE;fill-rule:nonzero}
   ]]>
  </style>
 </defs>
 <g id="Layer_x0020_1">
  <metadata id="CorelCorpID_0Corel-Layer"/>
  <path class="fil0" d="M-0 2l0 0.55c0,0.11 0.09,0.19 0.19,0.19l1.42 0c0.11,0 0.19,0.09 0.19,0.19l0 1.42c0,0.11 0.09,0.19 0.19,0.19l0.55 0c0.11,0 0.19,-0.09 0.19,-0.19l0 -1.42c0,-0.11 0.09,-0.19 0.19,-0.19l1.42 0c0.11,0 0.19,-0.09 0.19,-0.19l0 -0.55c0,-0.11 -0.09,-0.19 -0.19,-0.19l-1.42 0c-0.11,0 -0.19,-0.09 -0.19,-0.19l0 -1.42c0,-0.11 -0.09,-0.19 -0.19,-0.19l-0.55 0c-0.11,0 -0.19,0.09 -0.19,0.19l0 1.42c0,0.11 -0.09,0.19 -0.19,0.19l-1.42 0c-0.11,0 -0.19,0.09 -0.19,0.19zm4.27 0.18l-0.89 0c-0.05,0 -0.09,-0.04 -0.09,-0.09 0,-0.05 0.04,-0.09 0.09,-0.09l0.89 0c0.05,0 0.09,0.04 0.09,0.09 0,0.05 -0.04,0.09 -0.09,0.09zm-1.17 0l-0.07 0c-0.05,0 -0.09,-0.04 -0.09,-0.09 0,-0.05 0.04,-0.09 0.09,-0.09l0.07 0c0.05,0 0.09,0.04 0.09,0.09 0,0.05 -0.04,0.09 -0.09,0.09z"/>
 </g>
</svg>
