<?xml version="1.0" encoding="UTF-8"?>
<!DOCTYPE svg PUBLIC "-//W3C//DTD SVG 1.1//EN" "http://www.w3.org/Graphics/SVG/1.1/DTD/svg11.dtd">
<!-- Creator: CorelDRAW 2020 (64-Bit) -->
<svg xmlns="http://www.w3.org/2000/svg" xml:space="preserve" width="0.516669in" height="0.516669in" version="1.1" style="shape-rendering:geometricPrecision; text-rendering:geometricPrecision; image-rendering:optimizeQuality; fill-rule:evenodd; clip-rule:evenodd"
viewBox="0 0 9.83 9.83"
 xmlns:xlink="http://www.w3.org/1999/xlink"
 xmlns:xodm="http://www.corel.com/coreldraw/odm/2003">
 <defs>
  <style type="text/css">
   <![CDATA[
    .fil0 {fill:#FEFEFE;fill-rule:nonzero}
   ]]>
  </style>
 </defs>
 <g id="Layer_x0020_1">
  <metadata id="CorelCorpID_0Corel-Layer"/>
  <path class="fil0" d="M9.11 6.55l-8.4 0c-0.39,0 -0.72,-0.32 -0.72,-0.72l0 -5.12c0,-0.39 0.32,-0.72 0.72,-0.72l8.4 0c0.39,0 0.72,0.32 0.72,0.72l0 5.12c0,0.39 -0.32,0.72 -0.72,0.72l0 -0zm0 3.28l-8.4 0c-0.4,0 -0.72,-0.32 -0.72,-0.72l0 -1.02c0,-0.4 0.32,-0.72 0.72,-0.72l8.4 0c0.4,0 0.72,0.32 0.72,0.72l0 1.02c0,0.4 -0.32,0.72 -0.72,0.72l0 0zm-0.51 -5.22l0 -2.66c0,-0.39 -0.32,-0.72 -0.72,-0.72l-2.25 0c-0.4,0 -0.72,0.32 -0.72,0.72l0 2.66c0,0.39 0.32,0.72 0.72,0.72l2.25 0c0.4,0 0.72,-0.32 0.72,-0.72l0 0zm-4.81 -1.54l-2.25 0c-0.17,0 -0.31,0.14 -0.31,0.31 0,0.17 0.14,0.31 0.31,0.31l2.25 0c0.17,0 0.31,-0.14 0.31,-0.31 0,-0.17 -0.14,-0.31 -0.31,-0.31l0 0zm0.31 -0.92c0,-0.17 -0.14,-0.31 -0.31,-0.31l-2.25 0c-0.17,0 -0.31,0.14 -0.31,0.31 0,0.17 0.14,0.31 0.31,0.31l2.25 0c0.17,0 0.31,-0.14 0.31,-0.31zm-0.31 2.15l-2.25 0c-0.17,0 -0.31,0.14 -0.31,0.31 0,0.17 0.14,0.31 0.31,0.31l2.25 0c0.17,0 0.31,-0.14 0.31,-0.31 0,-0.17 -0.14,-0.31 -0.31,-0.31l0 0z"/>
 </g>
</svg>
