<?xml version="1.0" encoding="UTF-8"?>
<!DOCTYPE svg PUBLIC "-//W3C//DTD SVG 1.1//EN" "http://www.w3.org/Graphics/SVG/1.1/DTD/svg11.dtd">
<!-- Creator: CorelDRAW 2020 (64-Bit) -->
<svg xmlns="http://www.w3.org/2000/svg" xml:space="preserve" width="0.476299in" height="0.319087in" version="1.1" style="shape-rendering:geometricPrecision; text-rendering:geometricPrecision; image-rendering:optimizeQuality; fill-rule:evenodd; clip-rule:evenodd"
viewBox="0 0 5.19 3.48"
 xmlns:xlink="http://www.w3.org/1999/xlink"
 xmlns:xodm="http://www.corel.com/coreldraw/odm/2003">
 <defs>
  <style type="text/css">
   <![CDATA[
    .fil0 {fill:#FEFEFE;fill-rule:nonzero}
   ]]>
  </style>
 </defs>
 <g id="Layer_x0020_1">
  <metadata id="CorelCorpID_0Corel-Layer"/>
  <path class="fil0" d="M0.21 2.8l4.77 0 -0.01 0.14c-0.04,0.34 -0.29,0.54 -0.53,0.54l-3.68 0c-0.28,0 -0.5,-0.24 -0.53,-0.54 -0,-0 0,0.02 -0.01,-0.14zm4.98 -2.09l-0.18 1.78 -4.83 0 -0.17 -1.74c-0.05,-0.41 0.39,-0.6 0.6,-0.36 0.49,0.56 0.54,0.68 0.71,0.66 0.06,-0.01 0.11,-0.04 0.14,-0.07 1,-0.96 0.93,-0.89 0.94,-0.9 0.13,-0.1 0.31,-0.09 0.41,-0 1.01,0.85 0.96,0.81 0.98,0.82 0.09,0.05 0.2,0.05 0.3,-0.05 0.56,-0.55 0.52,-0.52 0.53,-0.52 0.26,-0.2 0.61,0.03 0.57,0.39l0 0z"/>
 </g>
</svg>
