<?xml version="1.0" encoding="UTF-8"?>
<!DOCTYPE svg PUBLIC "-//W3C//DTD SVG 1.1//EN" "http://www.w3.org/Graphics/SVG/1.1/DTD/svg11.dtd">
<!-- Creator: CorelDRAW 2020 (64-Bit) -->
<svg xmlns="http://www.w3.org/2000/svg" xml:space="preserve" width="0.427339in" height="0.427339in" version="1.1" style="shape-rendering:geometricPrecision; text-rendering:geometricPrecision; image-rendering:optimizeQuality; fill-rule:evenodd; clip-rule:evenodd"
viewBox="0 0 7.71 7.71"
 xmlns:xlink="http://www.w3.org/1999/xlink"
 xmlns:xodm="http://www.corel.com/coreldraw/odm/2003">
 <defs>
  <style type="text/css">
   <![CDATA[
    .fil0 {fill:#FEFEFE;fill-rule:nonzero}
   ]]>
  </style>
 </defs>
 <g id="Layer_x0020_1">
  <metadata id="CorelCorpID_0Corel-Layer"/>
  <path class="fil0" d="M3.1 7.71l-1.29 0c-1,0 -1.81,-0.81 -1.81,-1.81l0 -4.09c0,-1 0.81,-1.81 1.81,-1.81l4.09 0c1,0 1.81,0.81 1.81,1.81l0 1.51c0,0.17 -0.13,0.3 -0.3,0.3 -0.17,0 -0.3,-0.13 -0.3,-0.3l0 -1.51c0,-0.66 -0.54,-1.2 -1.2,-1.2l-4.09 0c-0.66,0 -1.2,0.54 -1.2,1.2l0 4.09c0,0.66 0.54,1.2 1.2,1.2l1.29 0c0.17,0 0.3,0.13 0.3,0.3 0,0.17 -0.13,0.3 -0.3,0.3l0 0zm3.1 -5.54l-1.87 0c-0.17,0 -0.3,-0.13 -0.3,-0.3 0,-0.17 0.13,-0.3 0.3,-0.3l1.87 0c0.17,0 0.3,0.13 0.3,0.3 0,0.17 -0.13,0.3 -0.3,0.3zm-2.58 1.95c0.11,-0.12 0.1,-0.31 -0.02,-0.43 -0.25,-0.23 -0.57,-0.35 -0.9,-0.35l-0.19 0c-0.34,0 -0.66,0.12 -0.9,0.35 -0.12,0.11 -0.13,0.3 -0.02,0.43 0.11,0.12 0.3,0.13 0.43,0.02 0.14,-0.12 0.31,-0.19 0.5,-0.19l0.19 0c0.19,0 0.36,0.07 0.5,0.19 0.06,0.05 0.13,0.08 0.2,0.08 0.08,0 0.16,-0.03 0.22,-0.1l0 0zm-0.12 -2.01c0,-0.5 -0.41,-0.9 -0.9,-0.9 -0.5,0 -0.9,0.41 -0.9,0.9 0,0.5 0.41,0.9 0.9,0.9 0.5,0 0.9,-0.41 0.9,-0.9zm-0.6 0c0,0.17 -0.14,0.3 -0.3,0.3 -0.17,0 -0.3,-0.14 -0.3,-0.3 0,-0.17 0.14,-0.3 0.3,-0.3 0.17,0 0.3,0.14 0.3,0.3zm3.6 0.81c0,-0.17 -0.13,-0.3 -0.3,-0.3l-1.87 0c-0.17,0 -0.3,0.13 -0.3,0.3 0,0.17 0.13,0.3 0.3,0.3l1.87 0c0.17,0 0.3,-0.13 0.3,-0.3zm-2.23 2.11c0,-0.17 -0.13,-0.3 -0.3,-0.3l-2.2 0c-0.17,0 -0.3,0.13 -0.3,0.3 0,0.17 0.13,0.3 0.3,0.3l2.2 0c0.17,0 0.3,-0.13 0.3,-0.3l0 0zm-1.2 1.05c0,-0.17 -0.13,-0.3 -0.3,-0.3l-0.99 0c-0.17,0 -0.3,0.13 -0.3,0.3 0,0.17 0.13,0.3 0.3,0.3l0.99 0c0.17,0 0.3,-0.13 0.3,-0.3zm1.29 1.62l0.85 -0.17c0.42,-0.08 0.81,-0.29 1.11,-0.6l1.06 -1.06c0.21,-0.21 0.32,-0.48 0.32,-0.78 0,-0.29 -0.11,-0.57 -0.32,-0.78 -0.21,-0.21 -0.48,-0.32 -0.78,-0.32 -0.29,0 -0.57,0.11 -0.78,0.32l-1.06 1.06c-0.31,0.31 -0.51,0.69 -0.6,1.11l-0.17 0.85c-0.02,0.1 0.01,0.2 0.08,0.27 0.06,0.06 0.13,0.09 0.21,0.09 0.02,0 0.04,-0 0.06,-0.01l0 0zm2.6 -2.95c0.09,0.09 0.15,0.22 0.15,0.35 0,0.13 -0.05,0.26 -0.15,0.35l-1.06 1.06c-0.22,0.22 -0.5,0.37 -0.81,0.43l-0.41 0.08 0.08 -0.41c0.06,-0.31 0.21,-0.58 0.43,-0.81l1.06 -1.06c0.09,-0.09 0.22,-0.15 0.35,-0.15 0.13,0 0.26,0.05 0.35,0.15l0 0z"/>
 </g>
</svg>
