<?xml version="1.0" encoding="UTF-8"?>
<!DOCTYPE svg PUBLIC "-//W3C//DTD SVG 1.1//EN" "http://www.w3.org/Graphics/SVG/1.1/DTD/svg11.dtd">
<!-- Creator: CorelDRAW 2020 (64-Bit) -->
<svg xmlns="http://www.w3.org/2000/svg" xml:space="preserve" width="0.471307in" height="0.471307in" version="1.1" style="shape-rendering:geometricPrecision; text-rendering:geometricPrecision; image-rendering:optimizeQuality; fill-rule:evenodd; clip-rule:evenodd"
viewBox="0 0 6.46 6.46"
 xmlns:xlink="http://www.w3.org/1999/xlink"
 xmlns:xodm="http://www.corel.com/coreldraw/odm/2003">
 <defs>
  <style type="text/css">
   <![CDATA[
    .fil0 {fill:#FEFEFE}
   ]]>
  </style>
 </defs>
 <g id="Layer_x0020_1">
  <metadata id="CorelCorpID_0Corel-Layer"/>
  <path id="Oval_1_" class="fil0" d="M2.54 0.58c0,-0.06 -0.05,-0.12 -0.12,-0.12 -0.06,0 -0.12,0.05 -0.12,0.12 0,0.06 0.05,0.12 0.12,0.12 0.06,0 0.12,-0.05 0.12,-0.12zm-1.42 2.68c-0.27,-0.27 -0.26,-0.71 0.01,-0.98 0.27,-0.27 0.71,-0.27 0.98,0 0.27,0.27 0.27,0.7 0.01,0.98 0.21,0.06 0.38,0.23 0.42,0.45 0.37,-0.47 0.31,-1.15 -0.13,-1.56 -0.44,-0.41 -1.12,-0.41 -1.56,0 -0.44,0.41 -0.5,1.08 -0.13,1.56 0.04,-0.22 0.2,-0.39 0.42,-0.45l-0 0zm0.84 0.21l-0.69 0c-0.19,0 -0.35,0.16 -0.35,0.35l0 0.11c0.41,0.31 0.98,0.31 1.38,0l0 -0.11c0,-0.19 -0.15,-0.35 -0.35,-0.35l0 0zm0.12 -0.69c0,-0.25 -0.21,-0.46 -0.46,-0.46 -0.25,0 -0.46,0.21 -0.46,0.46 0,0.25 0.21,0.46 0.46,0.46 0.25,0 0.46,-0.21 0.46,-0.46zm1.73 1.38l2.08 0c0.06,0 0.12,-0.05 0.12,-0.12l0 -2.08c0,-0.06 -0.05,-0.12 -0.12,-0.12l-2.08 0c-0.06,0 -0.12,0.05 -0.12,0.12l0 2.08c0,0.06 0.05,0.12 0.12,0.12zm0.64 -1.83l0.4 -0.2c0.08,-0.04 0.17,-0.03 0.24,0.02l0.32 0.24 0.16 -0.16c0.05,-0.04 0.12,-0.04 0.16,0 0.04,0.04 0.05,0.12 0,0.16l-0.16 0.16c-0.08,0.08 -0.21,0.09 -0.3,0.02l-0.32 -0.24 -0.4 0.2c-0.06,0.03 -0.13,0.01 -0.15,-0.05 -0.03,-0.06 -0.01,-0.13 0.05,-0.15l0 -0zm1.09 0.68l0 0.35c0,0.06 -0.05,0.12 -0.12,0.12 -0.06,0 -0.12,-0.05 -0.12,-0.12l0 -0.35c0,-0.06 0.05,-0.12 0.12,-0.12 0.06,0 0.12,0.05 0.12,0.12zm-0.46 -0.23l0 0.35c0,0.06 -0.05,0.12 -0.12,0.12 -0.06,0 -0.12,-0.05 -0.12,-0.12l0 -0.35c0,-0.06 0.05,-0.12 0.12,-0.12 0.06,0 0.12,0.05 0.12,0.12zm-0.69 0.12c0,-0.06 0.05,-0.12 0.12,-0.12 0.06,0 0.12,0.05 0.12,0.12l0 0.35c0,0.06 -0.05,0.12 -0.12,0.12 -0.06,0 -0.12,-0.05 -0.12,-0.12l0 -0.35zm-0.46 -0.69c0,-0.06 0.05,-0.12 0.12,-0.12 0.06,0 0.12,0.05 0.12,0.12l0 1.5 1.5 0c0.06,0 0.12,0.05 0.12,0.12 0,0.06 -0.05,0.12 -0.12,0.12l-1.5 0c-0.13,0 -0.23,-0.1 -0.23,-0.23l0 -1.5zm2.08 -2.19l-5.54 0c-0.25,0 -0.46,0.21 -0.46,0.46l0 0.69 6.46 0 0 -0.69c0,-0.25 -0.21,-0.46 -0.46,-0.46l0 0zm-5.42 0.92c-0.19,0 -0.35,-0.15 -0.35,-0.35 0,-0.19 0.15,-0.35 0.35,-0.35 0.19,0 0.35,0.15 0.35,0.35 0,0.09 -0.04,0.18 -0.1,0.24 -0.06,0.06 -0.15,0.1 -0.24,0.1zm0.92 0c-0.19,0 -0.35,-0.15 -0.35,-0.35 0,-0.19 0.15,-0.35 0.35,-0.35 0.19,0 0.35,0.15 0.35,0.35 0,0.09 -0.04,0.18 -0.1,0.24 -0.06,0.06 -0.15,0.1 -0.24,0.1zm0.92 0c-0.19,0 -0.35,-0.15 -0.35,-0.35 0,-0.19 0.15,-0.35 0.35,-0.35 0.19,0 0.35,0.16 0.35,0.35 0,0.09 -0.04,0.18 -0.1,0.24 -0.06,0.06 -0.15,0.1 -0.24,0.1zm3.46 0l-1.15 0c-0.19,0 -0.35,-0.15 -0.35,-0.35 0,-0.19 0.15,-0.35 0.35,-0.35l1.15 0c0.19,0 0.35,0.15 0.35,0.35 0,0.19 -0.16,0.35 -0.35,0.35l0 0zm-5.88 5.08c0,0.25 0.21,0.46 0.46,0.46l5.54 0c0.25,0 0.46,-0.21 0.46,-0.46l0 -4.62 -6.46 0 0 4.62zm2.54 0.23l-1.85 0c-0.06,0 -0.12,-0.05 -0.12,-0.12 0,-0.06 0.05,-0.12 0.12,-0.12l1.85 0c0.06,0 0.12,0.05 0.12,0.12 0,0.06 -0.05,0.12 -0.12,0.12zm0 -0.46l-1.85 0c-0.06,0 -0.12,-0.05 -0.12,-0.12 0,-0.06 0.05,-0.12 0.12,-0.12l1.85 0c0.06,0 0.12,0.05 0.12,0.12 0,0.06 -0.05,0.12 -0.12,0.12zm-0.12 -0.46l-1.62 0c-0.19,0 -0.35,-0.16 -0.35,-0.35 0,-0.19 0.15,-0.35 0.35,-0.35l1.62 0c0.19,0 0.35,0.15 0.35,0.35 0,0.19 -0.15,0.35 -0.35,0.35l0 0zm3.58 0.92l-1.5 0c-0.06,0 -0.12,-0.05 -0.12,-0.12 0,-0.06 0.05,-0.12 0.12,-0.12l1.5 0c0.06,0 0.12,0.05 0.12,0.12 0,0.06 -0.05,0.12 -0.12,0.12zm0 -0.46l-1.5 0c-0.06,0 -0.12,-0.05 -0.12,-0.12 0,-0.06 0.05,-0.12 0.12,-0.12l1.5 0c0.06,0 0.12,0.05 0.12,0.12 0,0.06 -0.05,0.12 -0.12,0.12zm0 -0.46l-1.5 0c-0.06,0 -0.12,-0.05 -0.12,-0.12 0,-0.06 0.05,-0.12 0.12,-0.12l1.5 0c0.06,0 0.12,0.05 0.12,0.12 0,0.06 -0.05,0.12 -0.12,0.12l0 0zm0 -0.46l-1.5 0c-0.06,0 -0.12,-0.05 -0.12,-0.12 0,-0.06 0.05,-0.12 0.12,-0.12l1.5 0c0.06,0 0.12,0.05 0.12,0.12 0,0.06 -0.05,0.12 -0.12,0.12zm-2.54 -2.88c0,-0.19 0.15,-0.35 0.35,-0.35l2.08 0c0.19,0 0.35,0.15 0.35,0.35l0 2.08c0,0.19 -0.15,0.35 -0.35,0.35l-2.08 0c-0.19,0 -0.35,-0.15 -0.35,-0.35l0 -2.08 0 0zm-1.85 -0.35c0.76,0 1.38,0.62 1.38,1.38 0,0.76 -0.62,1.38 -1.38,1.38 -0.76,0 -1.38,-0.62 -1.38,-1.38 0,-0.76 0.62,-1.38 1.38,-1.38zm0 -1.04c0,-0.06 -0.05,-0.12 -0.12,-0.12 -0.06,0 -0.12,0.05 -0.12,0.12 0,0.06 0.05,0.12 0.12,0.12 0.06,0 0.12,-0.05 0.12,-0.12zm0.81 4.27l-1.62 0c-0.06,0 -0.12,0.05 -0.12,0.12 0,0.06 0.05,0.12 0.12,0.12l1.62 0c0.06,0 0.12,-0.05 0.12,-0.12 0,-0.06 -0.05,-0.12 -0.12,-0.12l0 0zm-1.73 -4.27c0,-0.06 -0.05,-0.12 -0.12,-0.12 -0.06,0 -0.12,0.05 -0.12,0.12 0,0.06 0.05,0.12 0.12,0.12 0.06,0 0.12,-0.05 0.12,-0.12zm5.19 -0.12l-1.15 0c-0.06,0 -0.12,0.05 -0.12,0.12 0,0.06 0.05,0.12 0.12,0.12l1.15 0c0.06,0 0.12,-0.05 0.12,-0.12 0,-0.06 -0.05,-0.12 -0.12,-0.12z"/>
 </g>
</svg>
