<?xml version="1.0" encoding="UTF-8"?>
<!DOCTYPE svg PUBLIC "-//W3C//DTD SVG 1.1//EN" "http://www.w3.org/Graphics/SVG/1.1/DTD/svg11.dtd">
<!-- Creator: CorelDRAW 2020 (64-Bit) -->
<svg xmlns="http://www.w3.org/2000/svg" xml:space="preserve" width="0.346945in" height="0.462591in" version="1.1" style="shape-rendering:geometricPrecision; text-rendering:geometricPrecision; image-rendering:optimizeQuality; fill-rule:evenodd; clip-rule:evenodd"
viewBox="0 0 3.27 4.36"
 xmlns:xlink="http://www.w3.org/1999/xlink"
 xmlns:xodm="http://www.corel.com/coreldraw/odm/2003">
 <defs>
  <style type="text/css">
   <![CDATA[
    .fil0 {fill:#FEFEFE;fill-rule:nonzero}
   ]]>
  </style>
 </defs>
 <g id="Layer_x0020_1">
  <metadata id="CorelCorpID_0Corel-Layer"/>
  <path class="fil0" d="M3.18 1.63l-0.27 0 0 -0.36c0,-0.7 -0.57,-1.27 -1.27,-1.27 -0.7,0 -1.27,0.57 -1.27,1.27l0 0.36 -0.27 0c-0.05,0 -0.09,0.04 -0.09,0.09l0 2.27c0,0.2 0.16,0.36 0.36,0.36l2.54 0c0.2,0 0.36,-0.16 0.36,-0.36l0 -2.27c0,-0.05 -0.04,-0.09 -0.09,-0.09zm-1.27 1.9c0,0.03 -0.01,0.05 -0.02,0.07 -0.02,0.02 -0.04,0.03 -0.07,0.03l-0.36 0c-0.03,0 -0.05,-0.01 -0.07,-0.03 -0.02,-0.02 -0.03,-0.04 -0.02,-0.07l0.06 -0.52c-0.09,-0.07 -0.15,-0.17 -0.15,-0.29 0,-0.2 0.16,-0.36 0.36,-0.36 0.2,0 0.36,0.16 0.36,0.36 0,0.12 -0.06,0.22 -0.15,0.29l0.06 0.52zm0.45 -1.9l-1.45 0 0 -0.36c0,-0.4 0.33,-0.73 0.73,-0.73 0.4,0 0.73,0.33 0.73,0.73l0 0.36z"/>
 </g>
</svg>
