<?xml version="1.0" encoding="UTF-8"?>
<!DOCTYPE svg PUBLIC "-//W3C//DTD SVG 1.1//EN" "http://www.w3.org/Graphics/SVG/1.1/DTD/svg11.dtd">
<!-- Creator: CorelDRAW 2020 (64-Bit) -->
<svg xmlns="http://www.w3.org/2000/svg" xml:space="preserve" width="0.391138in" height="0.44415in" version="1.1" style="shape-rendering:geometricPrecision; text-rendering:geometricPrecision; image-rendering:optimizeQuality; fill-rule:evenodd; clip-rule:evenodd"
viewBox="0 0 4.15 4.71"
 xmlns:xlink="http://www.w3.org/1999/xlink"
 xmlns:xodm="http://www.corel.com/coreldraw/odm/2003">
 <defs>
  <style type="text/css">
   <![CDATA[
    .fil0 {fill:#FEFEFE;fill-rule:nonzero}
   ]]>
  </style>
 </defs>
 <g id="Layer_x0020_1">
  <metadata id="CorelCorpID_0Corel-Layer"/>
  <path class="fil0" d="M3.46 0.83l-0.28 0c-0.08,0 -0.14,0.06 -0.14,0.14 0,0.08 0.06,0.14 0.14,0.14l0.28 0c0.08,0 0.14,-0.06 0.14,-0.14 0,-0.08 -0.06,-0.14 -0.14,-0.14zm0.69 1.76c-0.02,-0.21 -0.22,-0.37 -0.44,-0.37l-1.08 0c0.09,-0.16 0.14,-0.63 0.14,-0.82 -0,-0.31 -0.26,-0.57 -0.58,-0.57l-0.11 0c-0.08,0 -0.14,0.06 -0.14,0.14 0,0.32 -0.12,0.9 -0.36,1.13 -0.16,0.16 -0.29,0.22 -0.47,0.3l0 2.08c0.27,0.09 0.62,0.22 1.14,0.22l0.9 0c0.3,0 0.53,-0.28 0.41,-0.57 0.18,-0.05 0.31,-0.21 0.31,-0.4 0,-0.05 -0.01,-0.11 -0.03,-0.15 0.3,-0.08 0.41,-0.45 0.2,-0.68 0.08,-0.08 0.12,-0.2 0.1,-0.32zm-3.46 -0.37l-0.55 0c-0.08,0 -0.14,0.06 -0.14,0.14l-0 2.21c0,0.08 0.06,0.14 0.14,0.14l0.55 0c0.08,0 0.14,-0.06 0.14,-0.14l0 -2.21c0,-0.08 -0.06,-0.14 -0.14,-0.14zm0.83 -1.39l-0.28 0c-0.08,0 -0.14,0.06 -0.14,0.14 0,0.08 0.06,0.14 0.14,0.14l0.28 0c0.08,0 0.14,-0.06 0.14,-0.14 0,-0.08 -0.06,-0.14 -0.14,-0.14zm1.45 -0.82c-0.07,-0.03 -0.15,-0.01 -0.19,0.06l-0.14 0.28c-0.03,0.07 -0.01,0.15 0.06,0.19 0.07,0.03 0.15,0.01 0.19,-0.06l0.14 -0.28c0.03,-0.07 0.01,-0.15 -0.06,-0.19zm-0.91 0.34l-0.14 -0.28c-0.03,-0.07 -0.12,-0.1 -0.19,-0.06 -0.07,0.03 -0.1,0.12 -0.06,0.19l0.14 0.28c0.03,0.07 0.12,0.1 0.19,0.06 0.07,-0.03 0.1,-0.12 0.06,-0.19z"/>
 </g>
</svg>
