<?xml version="1.0" encoding="UTF-8"?>
<!DOCTYPE svg PUBLIC "-//W3C//DTD SVG 1.1//EN" "http://www.w3.org/Graphics/SVG/1.1/DTD/svg11.dtd">
<!-- Creator: CorelDRAW 2020 (64-Bit) -->
<svg xmlns="http://www.w3.org/2000/svg" xml:space="preserve" width="2.53345in" height="1.59742in" version="1.1" style="shape-rendering:geometricPrecision; text-rendering:geometricPrecision; image-rendering:optimizeQuality; fill-rule:evenodd; clip-rule:evenodd"
viewBox="0 0 136.46 86.04"
 xmlns:xlink="http://www.w3.org/1999/xlink"
 xmlns:xodm="http://www.corel.com/coreldraw/odm/2003">
 <defs>
  <style type="text/css">
   <![CDATA[
    .fil8 {fill:#F48234;fill-rule:nonzero}
    .fil14 {fill:#111022;fill-rule:nonzero}
    .fil13 {fill:#1E1B38;fill-rule:nonzero}
    .fil17 {fill:#23234F;fill-rule:nonzero}
    .fil22 {fill:#C0C9D3;fill-rule:nonzero}
    .fil24 {fill:#D36C25;fill-rule:nonzero}
    .fil15 {fill:#F79244;fill-rule:nonzero}
    .fil19 {fill:#FF5700;fill-rule:nonzero}
    .fil10 {fill:#FF8200;fill-rule:nonzero}
    .fil23 {fill:white;fill-rule:nonzero}
    .fil6 {fill:black;fill-rule:nonzero;fill-opacity:0.200000}
    .fil12 {fill:black;fill-rule:nonzero;fill-opacity:0.670588}
    .fil0 {fill:#F9FAFB;fill-rule:nonzero}
    .fil5 {fill:#1E1B38;fill-rule:nonzero}
    .fil3 {fill:#23234F;fill-rule:nonzero}
    .fil1 {fill:#D6D6D6;fill-rule:nonzero}
    .fil2 {fill:#FF8200;fill-rule:nonzero}
    .fil7 {fill:url(#id0);fill-rule:nonzero}
    .fil20 {fill:url(#id1);fill-rule:nonzero}
    .fil21 {fill:url(#id2);fill-rule:nonzero}
    .fil18 {fill:url(#id3);fill-rule:nonzero}
    .fil11 {fill:url(#id4);fill-rule:nonzero}
    .fil16 {fill:url(#id5);fill-rule:nonzero}
    .fil9 {fill:url(#id6);fill-rule:nonzero}
    .fil4 {fill:url(#id7);fill-rule:nonzero}
   ]]>
  </style>
  <linearGradient id="id0" gradientUnits="userSpaceOnUse" x1="97.13" y1="25.73" x2="97.13" y2="15.76">
   <stop offset="0" style="stop-opacity:1; stop-color:#F8E6D9"/>
   <stop offset="0.129412" style="stop-opacity:1; stop-color:#FBF2EC"/>
   <stop offset="1" style="stop-opacity:1; stop-color:white"/>
  </linearGradient>
  <linearGradient id="id1" gradientUnits="userSpaceOnUse" x1="73.24" y1="41.23" x2="80.99" y2="41.23">
   <stop offset="0" style="stop-opacity:1; stop-color:#EFB384"/>
   <stop offset="0.780392" style="stop-opacity:1; stop-color:#F0A06C"/>
   <stop offset="1" style="stop-opacity:1; stop-color:#F28C53"/>
  </linearGradient>
  <linearGradient id="id2" gradientUnits="userSpaceOnUse" x1="70.14" y1="26.07" x2="70.33" y2="26.07">
   <stop offset="0" style="stop-opacity:1; stop-color:#30D1D6"/>
   <stop offset="0.780392" style="stop-opacity:1; stop-color:#3ABAE7"/>
   <stop offset="1" style="stop-opacity:1; stop-color:#45A3F9"/>
  </linearGradient>
  <linearGradient id="id3" gradientUnits="userSpaceOnUse" xlink:href="#id1" x1="82.67" y1="25.28" x2="88.46" y2="23.34">
  </linearGradient>
  <linearGradient id="id4" gradientUnits="userSpaceOnUse" xlink:href="#id0" x1="78.92" y1="97.35" x2="80.75" y2="50.3">
  </linearGradient>
  <linearGradient id="id5" gradientUnits="userSpaceOnUse" xlink:href="#id1" x1="73.74" y1="20.9" x2="64.14" y2="20.52">
  </linearGradient>
  <linearGradient id="id6" gradientUnits="userSpaceOnUse" xlink:href="#id0" x1="65.56" y1="39.23" x2="46.04" y2="55.87">
  </linearGradient>
  <linearGradient id="id7" gradientUnits="userSpaceOnUse" xlink:href="#id1" x1="32.14" y1="49.26" x2="24.99" y2="49.26">
  </linearGradient>
 </defs>
 <g id="Layer_x0020_1">
  <metadata id="CorelCorpID_0Corel-Layer"/>
  <g id="_1645048797312">
   <g>
    <path class="fil0" d="M127.95 77.92l-0.18 -0.09 -117.95 0c-4.02,-2.43 -7.18,-6.27 -8.81,-10.68 -0.9,-2.46 -1.34,-5.16 -0.76,-7.72 1.67,-7.39 10.8,-10.97 13.13,-18.18 1.41,-4.37 0,-9.09 0.08,-13.68 0.08,-4.99 2.15,-10.11 6.17,-13.05 7.88,-5.76 19.3,-1.44 28.48,-4.74 6.08,-2.18 10.71,-7.57 16.95,-9.25 5.27,-1.42 11.25,0.22 15.06,4.11 4.76,4.87 6.29,12.81 12.28,16.06 6.13,3.33 15.19,0.61 19.58,6.05 4.59,5.7 -0.43,15.31 4.09,21.06 1.47,1.88 3.72,2.95 5.67,4.33 7.88,5.58 10.66,17.25 6.21,25.8z"/>
    <path class="fil1" d="M134.29 77.82l-117.95 0c-4.02,-2.43 -7.18,-6.27 -8.81,-10.68 -0.9,-2.46 -1.34,-5.16 -0.76,-7.72 1.67,-7.39 10.8,-10.97 13.13,-18.18 1.41,-4.37 0,-9.09 0.08,-13.68 0.08,-4.99 2.15,-10.11 6.17,-13.05 7.88,-5.76 19.3,-1.44 28.48,-4.74 6.08,-2.18 10.71,-7.57 16.95,-9.25 5.27,-1.42 11.25,0.22 15.06,4.11 4.76,4.87 6.29,12.81 12.28,16.06 6.13,3.33 15.19,0.61 19.58,6.05 4.59,5.7 -0.43,15.31 4.09,21.06 1.47,1.88 3.72,2.95 5.67,4.33 7.88,5.58 10.48,17.16 6.03,25.71z"/>
    <path class="fil1" d="M9.78 77.82l124.37 0c0,0 -11.48,8.22 -63.37,8.22 -51.89,0 -61,-8.22 -61,-8.22z"/>
   </g>
   <g>
    <g>
     <path class="fil2" d="M30.05 77.83l0 -26.38c0,0 0.2,1.22 1.05,1.22 0.85,0 1.05,-1.22 1.05,-1.22l0 26.38 -2.1 0z"/>
     <path class="fil2" d="M24.99 77.83l0 -26.38c0,0 0.2,1.07 0.89,1.07 0.69,0 0.89,-1.07 0.89,-1.07l0 26.38 -1.79 0z"/>
     <path class="fil3" d="M26.78 77.83l0 -26.38c0,0 0.35,1.36 1.63,1.36 1.28,0 1.63,-1.36 1.63,-1.36l0 26.38 -3.27 0z"/>
     <path class="fil4" d="M24.99 51.45l2.15 -5.73c0.76,1.68 2.97,0.84 2.97,0.84l2.03 4.88c0,0 -0.2,1.22 -1.05,1.22 -0.85,0 -1.05,-1.22 -1.05,-1.22 0,0 -0.36,1.36 -1.63,1.36 -1.28,0 -1.63,-1.36 -1.63,-1.36 0,0 -0.2,1.07 -0.89,1.07 -0.7,0 -0.89,-1.07 -0.89,-1.07z"/>
     <path class="fil5" d="M27.14 45.72l0 -0 0 0 0.15 -0.39c0.07,-0.19 0.21,-0.34 0.39,-0.42l0.77 -0.35c0.38,-0.18 0.84,0 1,0.39l0.67 1.61c0,0 -2.21,0.83 -2.97,-0.84z"/>
    </g>
   </g>
   <g>
    <g>
     <g>
      <path class="fil6" d="M111.64 24.38l-30.33 0c-1.43,0 -2.61,-1.17 -2.61,-2.61l0 -2.73c0,-1.43 1.17,-2.61 2.61,-2.61l30.33 0c1.43,0 2.61,1.17 2.61,2.61l0 2.73c0,1.43 -1.17,2.61 -2.61,2.61z"/>
     </g>
     <g>
      <path class="fil7" d="M112.29 23.73l-30.33 0c-1.43,0 -2.61,-1.17 -2.61,-2.61l0 -2.73c0,-1.43 1.17,-2.61 2.61,-2.61l30.33 0c1.43,0 2.61,1.17 2.61,2.61l0 2.73c0,1.43 -1.17,2.61 -2.61,2.61z"/>
     </g>
    </g>
    <polygon class="fil8" points="84.07,16.85 84.85,18.44 86.6,18.7 85.34,19.93 85.63,21.68 84.07,20.85 82.5,21.68 82.8,19.93 81.53,18.7 83.28,18.44 "/>
    <polygon class="fil8" points="89.8,16.85 90.58,18.44 92.34,18.7 91.07,19.93 91.37,21.68 89.8,20.85 88.23,21.68 88.53,19.93 87.26,18.7 89.02,18.44 "/>
    <polygon class="fil8" points="96.84,19.88 97.14,21.63 95.57,20.8 96.36,18.39 98.11,18.64 "/>
    <polygon class="fil8" points="96.36,18.39 95.57,20.8 94,21.63 94.3,19.88 93.04,18.64 94.79,18.39 95.57,16.8 "/>
    <polygon class="fil8" points="101.31,16.8 102.09,18.39 103.84,18.65 102.57,19.88 102.87,21.63 101.31,20.8 99.74,21.63 100.04,19.88 98.77,18.65 100.52,18.39 "/>
    <polygon class="fil8" points="110.78,13.32 111.55,17.38 115.32,19.05 111.7,21.03 111.28,25.14 108.27,22.3 104.24,23.17 106.01,19.44 103.93,15.87 108.03,16.39 "/>
   </g>
   <g>
    <g>
     <path class="fil9" d="M30.58 54.09c0,0 -3.82,4.05 -0.5,7.75 0,0 -2.49,4.42 1.94,7.63 0,0 -0.84,7.22 5.6,8.33l31.36 0 -3.31 -21.09c0,0 -0.97,-4.73 -4.59,-7.69 -3.62,-2.96 -7.23,-11.24 -6.92,-16.68 0.33,-5.46 -12.27,-4.27 -8.83,6.45 3.42,10.72 2.19,10.88 -2.19,9.81 -4.38,-1.07 -11.91,-2.89 -12.56,5.49z"/>
    </g>
    <path class="fil10" d="M83.81 77.8l-18.24 0 0 -21.49c0,-1.43 1.17,-2.61 2.61,-2.61l13.03 0c1.43,0 2.61,1.17 2.61,2.61l0 21.49z"/>
    <path class="fil11" d="M82.28 73.76c0,1.35 -1.09,2.44 -2.44,2.44 -1.35,0 -2.44,-1.09 -2.44,-2.44 0,-1.35 1.09,-2.44 2.44,-2.44 1.35,0 2.44,1.09 2.44,2.44z"/>
    <path class="fil12" d="M62.62 50.55c0,0 2.05,16.31 21.2,19.36l0 -13.6c0,0 0.09,-2.42 -2.61,-2.61l-13.03 0c0,0 -2.42,-0.04 -2.61,2.61 0,0 -1.04,-3.73 -2.95,-5.76z"/>
   </g>
   <g>
    <g>
     <path class="fil13" d="M56.77 31.62c-0.59,1.27 -0.57,2.81 0.03,4.07l-0.12 0.06c-0.21,-0.46 -0.38,-0.95 -0.69,-1.35 -0.51,-0.67 -1.34,-1 -2.11,-1.37 -0.76,-0.36 -1.55,-0.87 -1.81,-1.67 -0.24,-0.74 0.05,-1.56 0.43,-2.24 0.38,-0.68 0.88,-1.32 1.1,-2.07 0.61,-2.06 -0.94,-4.39 -0.06,-6.35 0.49,-1.09 1.62,-1.75 2.75,-2.13 1.13,-0.38 2.33,-0.57 3.41,-1.09 0.93,-0.45 1.75,-1.13 2.35,-1.97 0.91,-1.27 1.37,-2.93 2.66,-3.79 0.77,-0.52 1.73,-0.67 2.66,-0.62 1.38,0.07 2.76,0.58 3.79,1.5 0.97,0.86 1.63,2.1 1.73,3.39 -0.47,-1.37 -1.37,-2.01 -1.68,-2.2 0.02,1.03 -0.41,2.04 -1.08,2.82 -0.69,0.8 -1.62,1.37 -2.61,1.76 -0.42,0.16 -0.88,0.3 -1.33,0.26 -0.15,-0.25 -0.45,-0.41 -0.74,-0.39 -0.31,0.02 -0.61,0.22 -0.73,0.51 -0.08,0.18 -0.08,0.39 -0.05,0.59 0.1,0.69 0.65,1.28 1.31,1.46 -0.02,1 -0.99,1.82 -1.98,2.09 -1.05,0.28 -2.16,0.16 -3.24,0.3 -0.88,0.11 -1.73,0.4 -2.5,0.85 -0.46,0.27 -0.91,0.61 -1.13,1.09 -0.65,1.37 0.76,2.92 0.55,4.43 -0.1,0.76 -0.6,1.39 -0.92,2.08z"/>
     <path class="fil14" d="M66.15 20.82c0.4,1.42 -0.2,3.07 -1.44,3.88 -0.63,0.41 -1.37,0.61 -2.1,0.82 -0.69,0.2 -1.4,0.43 -1.97,0.86 -0.5,0.38 -0.8,0.97 -0.88,1.59 -0.25,2.04 0.13,5.33 0.61,8.26 -0.83,0.74 -2.09,1.17 -2.97,0.52 -0.34,-0.26 -0.55,-0.62 -0.73,-1.01l0.12 -0.06c-0.6,-1.27 -0.62,-2.8 -0.03,-4.07 0.32,-0.69 0.82,-1.32 0.92,-2.08 0.21,-1.5 -1.2,-3.05 -0.55,-4.43 0.23,-0.48 0.67,-0.83 1.13,-1.09 0.76,-0.45 1.62,-0.73 2.5,-0.85 1.08,-0.14 2.19,-0.02 3.24,-0.3 0.99,-0.27 1.96,-1.08 1.98,-2.09 0.06,0.02 0.11,0.03 0.17,0.03z"/>
    </g>
    <g>
     <path class="fil15" d="M69.66 22.95l0.48 2.91c-0.29,-0.05 -0.57,-0.1 -0.8,-0.14 -2.03,-1.22 -2.11,-3.67 -2.11,-3.67l2.43 0.9z"/>
     <path class="fil16" d="M66.15 20.82c-0.06,-0.01 -0.11,-0.02 -0.17,-0.03 -0.66,-0.18 -1.21,-0.77 -1.31,-1.46 -0.03,-0.2 -0.02,-0.4 0.05,-0.59 0.12,-0.29 0.41,-0.5 0.73,-0.51 0.29,-0.02 0.59,0.14 0.74,0.39 0.45,0.04 0.9,-0.1 1.33,-0.26 0.99,-0.38 1.92,-0.95 2.61,-1.76 0.67,-0.78 1.1,-1.79 1.08,-2.82 0.31,0.19 1.21,0.83 1.68,2.2 0.28,0.82 0.41,1.89 0.17,3.28 -0.73,4.23 -3.13,3.67 -3.4,3.69l-2.43 -0.9c0,0 0.08,2.44 2.11,3.67 0.24,0.15 0.5,0.27 0.8,0.38 -0.89,4.17 -5.43,-1.39 -5.43,-1.39 1.24,-0.81 1.84,-2.47 1.44,-3.88z"/>
    </g>
    <g>
     <polygon class="fil13" points="104.51,76.77 97.78,78.15 95.08,73.37 96.47,78.15 95.08,78.15 91.14,67.31 96.42,67.31 99.65,73.09 "/>
     <path class="fil17" d="M98.86 70.34l-0.89 0.4 -4.44 1.98 -0.98 0.44 -3.72 -8.96 0 -0 -4.13 -10.51 -0.91 -2.32c0,0 -5.44,4.09 -14.15,4.37 -8.7,0.28 -7.2,-8.74 -7.2,-8.74l9.58 -3.11 0.88 0.11 0.33 -1.3 0.88 -0.23c0.19,0.06 0.39,0.08 0.59,0.06l0 1.48 12.9 0c0.38,0.17 1.76,3.23 3.37,7.07 2.82,6.74 7.89,19.29 7.89,19.29z"/>
     <path class="fil17" d="M87.6 43.98l3.68 0c0,0 -0.14,4.23 -0.31,7.07 -1.61,-3.84 -2.99,-6.9 -3.37,-7.07z"/>
     <polygon class="fil13" points="87.05,72.99 88.83,78.61 83.12,76.41 83.29,70.63 80.88,75.42 79.82,74.86 83.12,64.94 87.95,66.74 "/>
     <polygon class="fil17" points="88.83,64.19 88.83,64.19 87.72,70.27 81.42,68.18 84.7,53.68 "/>
    </g>
    <g>
     <path class="fil18" d="M85.92 21.54c0.24,-0.49 0.49,-0.99 0.89,-1.37 0.03,-0.03 0.07,-0.06 0.12,-0.06 0.05,0.01 0.08,0.07 0.09,0.12 0.07,0.29 0.01,0.6 -0.07,0.89 -0.1,0.39 -0.24,0.76 -0.38,1.14 -0.14,0.38 -0.27,0.75 -0.41,1.13l0.01 0c0.38,0.31 0.76,0.62 1.12,0.96 0.29,0.27 0.57,0.57 0.68,0.94 0.15,0.52 -0.08,1.09 -0.42,1.51 -0.35,0.42 -0.8,0.73 -1.2,1.1 -0.2,0.18 -0.39,0.38 -0.56,0.59l-2.68 -0.72c0.87,-2.11 1.81,-4.18 2.81,-6.23z"/>
     <path class="fil19" d="M70.16 25.99l-0.02 -0.13c0.75,0.14 1.62,0.33 2.07,0.53 2.13,0.92 7.11,4.51 7.11,4.51l4.1 -4.14 0.25 0.17 2.31 1.54 0.12 0.08 -5.83 6.3c-0.47,0.44 -1.15,0.58 -1.75,0.36l-4.05 -1.47c0.08,-0.18 0.11,-0.3 0.11,-0.3 0.19,-2.76 -3.41,-6.45 -4.25,-7.27 -0.11,-0.11 -0.17,-0.16 -0.17,-0.16l0 -0z"/>
     <path class="fil15" d="M70.16 25.99l0 0c-0.01,0.03 -0.01,0.07 -0.02,0.1 -0.3,-0.1 -0.56,-0.23 -0.8,-0.38 0.23,0.04 0.51,0.09 0.8,0.14l0.02 0.13z"/>
     <path class="fil20" d="M73.89 42.71l-0.15 0 0 0.01c-0.17,0.02 -0.34,-0 -0.5,-0.05l0.36 -1.4c1.45,-0.15 2.78,-0.85 4.17,-1.32 0.66,-0.22 1.44,-0.38 2.03,-0.01 0.53,0.32 0.76,0.95 0.93,1.54 0.09,0.31 0.18,0.63 0.26,0.94l0 0.03 -7.1 0.24z"/>
     <path class="fil10" d="M74.47 33.72c-0.18,0.39 -0.63,1.08 -1.58,1.43l0.57 5.54 -7.68 -1.7c0,0 -1.05,-8.28 -1.11,-10.81 -0.06,-2.54 -2.04,-2.66 -2.04,-2.66 0.72,-0.21 1.47,-0.41 2.1,-0.82 0,0 4.54,5.56 5.43,1.39 0.06,0.02 0.13,0.05 0.19,0.07 0.84,0.82 4.44,4.51 4.25,7.27 0,0 -0.03,0.12 -0.11,0.3z"/>
     <path class="fil19" d="M60.37 36.23c-0.48,-2.94 -0.85,-6.22 -0.61,-8.26 0.08,-0.63 0.38,-1.21 0.88,-1.59 0.58,-0.43 1.28,-0.66 1.97,-0.86 0,0 1.98,0.13 2.04,2.66 0.06,2.54 1.11,10.81 1.11,10.81l7.68 1.7 0.28 0.06 -0.14 0.53 -0.36 1.4 -0.33 1.3 -0.88 -0.11 -0 0 -9.37 -1.15c-0.63,-0.08 -1.14,-0.54 -1.27,-1.16 -0.25,-1.15 -0.66,-3.14 -1.01,-5.32z"/>
     <polygon class="fil10" points="72.02,43.87 62.44,46.98 62.66,42.72 "/>
     <path class="fil21" d="M70.33 26.15c-0.07,-0.02 -0.13,-0.04 -0.19,-0.07 0.01,-0.03 0.02,-0.07 0.02,-0.1 0,0 0.06,0.06 0.17,0.16z"/>
     <path class="fil22" d="M96.92 31.23l-5.65 12.75 -3.54 0 -3.11 0 -10.89 0 0 -1.25c0.05,0 0.1,-0.01 0.15,-0.02l7.1 -0.24 1.73 -0.06 4.3 -11.18 9.9 0z"/>
     <path class="fil23" d="M65.95 28.44c-0.01,-0.14 -0.23,-0.14 -0.22,0 0.02,0.31 0.05,0.62 0.07,0.94 0.01,0.14 0.23,0.14 0.22,-0 -0.02,-0.31 -0.05,-0.62 -0.07,-0.94z"/>
     <path class="fil23" d="M67.85 28.57c-0.03,-0.14 -0.23,-0.08 -0.21,0.06 0.05,0.29 0.1,0.57 0.16,0.86 0.03,0.14 0.23,0.08 0.21,-0.06 -0.05,-0.29 -0.1,-0.57 -0.16,-0.86z"/>
     <path class="fil23" d="M69.82 29.4c-0.06,-0.29 -0.12,-0.57 -0.18,-0.86 -0.03,-0.14 -0.24,-0.08 -0.21,0.06 0.06,0.29 0.12,0.57 0.18,0.86 0.03,0.14 0.24,0.08 0.21,-0.06z"/>
     <path class="fil23" d="M71.52 28.33c-0.01,-0.14 -0.23,-0.14 -0.22,0 0.02,0.27 0.04,0.55 0.07,0.82 0.01,0.14 0.23,0.14 0.22,-0 -0.02,-0.27 -0.04,-0.55 -0.07,-0.82z"/>
     <path class="fil23" d="M66.84 30.47c-0.01,-0.14 -0.23,-0.14 -0.22,0 0.02,0.26 0.05,0.52 0.07,0.78 0.01,0.14 0.23,0.14 0.22,-0 -0.02,-0.26 -0.05,-0.52 -0.07,-0.78z"/>
     <path class="fil23" d="M69.04 31.23c-0.05,-0.22 -0.09,-0.44 -0.14,-0.67 -0.03,-0.14 -0.24,-0.08 -0.21,0.06 0.05,0.22 0.09,0.44 0.14,0.67 0.03,0.14 0.24,0.08 0.21,-0.06z"/>
     <path class="fil23" d="M71.35 31.07c-0.06,-0.22 -0.12,-0.45 -0.18,-0.67 -0.04,-0.14 -0.25,-0.08 -0.21,0.06 0.06,0.22 0.12,0.45 0.18,0.67 0.04,0.14 0.25,0.08 0.21,-0.06z"/>
     <path class="fil23" d="M66.03 32.28c-0.03,-0.14 -0.24,-0.08 -0.21,0.06 0.05,0.24 0.09,0.47 0.14,0.71 0.03,0.14 0.24,0.08 0.21,-0.06 -0.05,-0.24 -0.09,-0.47 -0.14,-0.71z"/>
     <path class="fil23" d="M68.23 33.34l-0.19 -0.67c-0.04,-0.13 -0.25,-0.08 -0.21,0.06 0.06,0.22 0.12,0.44 0.19,0.67 0.04,0.13 0.25,0.08 0.21,-0.06z"/>
     <path class="fil23" d="M70.12 32.47c-0.02,-0.14 -0.23,-0.08 -0.21,0.06 0.03,0.21 0.07,0.42 0.1,0.63 0.02,0.14 0.23,0.08 0.21,-0.06l-0.1 -0.63z"/>
     <path class="fil23" d="M72.68 32.31c-0.01,-0.14 -0.22,-0.14 -0.22,0 0.01,0.26 0.02,0.52 0.04,0.78 0.01,0.14 0.22,0.14 0.22,-0 -0.01,-0.26 -0.02,-0.52 -0.04,-0.78z"/>
     <path class="fil23" d="M66.98 34.54c-0.02,-0.14 -0.23,-0.14 -0.22,0 0.04,0.31 0.07,0.63 0.11,0.94 0.02,0.14 0.23,0.14 0.22,-0 -0.04,-0.31 -0.07,-0.63 -0.11,-0.94z"/>
     <path class="fil23" d="M69.41 34.66c-0.03,-0.14 -0.24,-0.08 -0.21,0.06 0.05,0.27 0.1,0.55 0.16,0.82 0.03,0.14 0.24,0.08 0.21,-0.06 -0.05,-0.27 -0.1,-0.55 -0.16,-0.82z"/>
     <path class="fil23" d="M71.48 34.7c-0.02,-0.14 -0.23,-0.08 -0.21,0.06 0.04,0.22 0.08,0.44 0.12,0.66 0.02,0.14 0.23,0.08 0.21,-0.06 -0.04,-0.22 -0.08,-0.44 -0.12,-0.66z"/>
     <path class="fil23" d="M73.47 30.86c-0.01,-0.14 -0.23,-0.14 -0.22,0 0.02,0.27 0.05,0.55 0.07,0.82 0.01,0.14 0.23,0.14 0.22,-0 -0.02,-0.27 -0.05,-0.55 -0.07,-0.82z"/>
     <path class="fil23" d="M66.37 37.07c-0.01,-0.14 -0.23,-0.14 -0.22,0 0.02,0.26 0.05,0.52 0.07,0.78 0.01,0.14 0.23,0.14 0.22,-0 -0.02,-0.26 -0.05,-0.52 -0.07,-0.78z"/>
     <path class="fil23" d="M68.16 37.23c-0.01,-0.14 -0.23,-0.14 -0.22,0 0.02,0.23 0.04,0.47 0.07,0.7 0.01,0.14 0.23,0.14 0.22,-0 -0.02,-0.23 -0.04,-0.47 -0.07,-0.7z"/>
     <path class="fil23" d="M70.41 37c-0.01,-0.14 -0.23,-0.14 -0.22,0 0.02,0.23 0.04,0.47 0.05,0.7 0.01,0.14 0.23,0.14 0.22,-0 -0.02,-0.23 -0.04,-0.47 -0.05,-0.7z"/>
     <path class="fil23" d="M72.6 36.76c-0,-0.14 -0.22,-0.14 -0.22,0 0.01,0.3 0.02,0.6 0.03,0.9 0,0.14 0.22,0.14 0.22,-0 -0.01,-0.3 -0.02,-0.6 -0.03,-0.9z"/>
     <path class="fil23" d="M69.38 38.36c-0.01,-0.14 -0.22,-0.14 -0.22,0 0.01,0.25 0.02,0.49 0.04,0.74 0.01,0.14 0.22,0.14 0.22,-0 -0.01,-0.25 -0.02,-0.49 -0.04,-0.74z"/>
     <path class="fil23" d="M71.78 38.56c-0.01,-0.14 -0.23,-0.14 -0.22,0 0.01,0.22 0.03,0.44 0.04,0.66 0.01,0.14 0.23,0.14 0.22,-0 -0.01,-0.22 -0.03,-0.44 -0.04,-0.66z"/>
     <path class="fil23" d="M64.1 43.47c-0.02,-0.14 -0.23,-0.14 -0.22,0 0.03,0.21 0.05,0.42 0.08,0.62 0.02,0.14 0.23,0.14 0.22,-0 -0.03,-0.21 -0.05,-0.42 -0.08,-0.62z"/>
     <path class="fil23" d="M66.59 43.55c-0.02,-0.14 -0.23,-0.14 -0.22,0 0.03,0.21 0.05,0.42 0.08,0.62 0.02,0.14 0.23,0.14 0.22,-0 -0.03,-0.21 -0.05,-0.42 -0.08,-0.62z"/>
     <path class="fil23" d="M65.17 44.57l0 0.7c0,0.14 0.22,0.14 0.22,-0l0 -0.7c0,-0.14 -0.22,-0.14 -0.22,0z"/>
     <path class="fil23" d="M63.44 44.84c-0.01,-0.14 -0.23,-0.14 -0.22,0l0.04 0.62c0.01,0.14 0.23,0.14 0.22,-0l-0.04 -0.62z"/>
     <path class="fil23" d="M68.39 44.07c-0.02,-0.14 -0.23,-0.08 -0.21,0.06 0.03,0.18 0.05,0.36 0.08,0.55 0.02,0.14 0.23,0.08 0.21,-0.06 -0.03,-0.18 -0.05,-0.36 -0.08,-0.55z"/>
    </g>
    <path class="fil14" d="M70.27 16.47c-0.49,-0.07 -0.94,0.05 -1.31,0.37 -0.21,0.18 0.09,0.49 0.3,0.31 0.25,-0.21 0.58,-0.31 0.9,-0.26 0.27,0.04 0.39,-0.38 0.11,-0.42z"/>
    <path class="fil14" d="M73.13 16.39c-0.44,-0.2 -0.93,-0.13 -1.3,0.18 -0.21,0.18 0.09,0.49 0.3,0.31 0.21,-0.18 0.52,-0.23 0.78,-0.12 0.25,0.11 0.47,-0.26 0.22,-0.38z"/>
    <path class="fil24" d="M72.03 20.07c-0,-0 0,-0 0,-0.01 -0.18,-0.92 -0.36,-1.84 -0.54,-2.75 -0.03,-0.14 -0.24,-0.08 -0.21,0.06 0.18,0.9 0.36,1.8 0.53,2.7 -0.2,0.03 -0.4,0.05 -0.6,0.08 -0.14,0.02 -0.14,0.24 0,0.22l0.74 -0.1c0.1,-0.01 0.13,-0.14 0.08,-0.19z"/>
    <path class="fil14" d="M71.93 21.05c-0.57,0.27 -1.2,0.29 -1.77,0.04 -0.13,-0.05 -0.24,0.13 -0.11,0.19 0.66,0.28 1.35,0.27 1.99,-0.04 0.13,-0.06 0.02,-0.25 -0.11,-0.19z"/>
    <path class="fil14" d="M70.2 17.65c0,0.28 -0.17,0.5 -0.38,0.5 -0.21,0 -0.38,-0.23 -0.38,-0.5 0,-0.28 0.17,-0.51 0.38,-0.51 0.21,0 0.38,0.23 0.38,0.51z"/>
    <path class="fil14" d="M72.98 17.58c0,0.28 -0.17,0.51 -0.38,0.51 -0.21,0 -0.38,-0.23 -0.38,-0.51 0,-0.28 0.17,-0.5 0.38,-0.5 0.21,0 0.38,0.23 0.38,0.5z"/>
   </g>
  </g>
 </g>
</svg>
