<?xml version="1.0" encoding="UTF-8"?>
<!DOCTYPE svg PUBLIC "-//W3C//DTD SVG 1.1//EN" "http://www.w3.org/Graphics/SVG/1.1/DTD/svg11.dtd">
<!-- Creator: CorelDRAW 2020 (64-Bit) -->
<svg xmlns="http://www.w3.org/2000/svg" xml:space="preserve" width="0.975787in" height="0.975787in" version="1.1" style="shape-rendering:geometricPrecision; text-rendering:geometricPrecision; image-rendering:optimizeQuality; fill-rule:evenodd; clip-rule:evenodd"
viewBox="0 0 43.89 43.89"
 xmlns:xlink="http://www.w3.org/1999/xlink"
 xmlns:xodm="http://www.corel.com/coreldraw/odm/2003">
 <defs>
  <style type="text/css">
   <![CDATA[
    .fil1 {fill:#FEFEFE}
    .fil0 {fill:#FF8200}
   ]]>
  </style>
 </defs>
 <g id="Layer_x0020_1">
  <metadata id="CorelCorpID_0Corel-Layer"/>
  <rect class="fil0" x="-0" y="-0" width="43.89" height="43.89" rx="21.95" ry="21.95"/>
  <path class="fil1" d="M8.65 34.72c0,-1.22 0.03,-1.7 0.32,-3.11 0.24,-1.15 0.61,-1.91 1.14,-2.88 0.12,-0.22 0.25,-0.41 0.39,-0.61l0.43 -0.57c0.16,-0.2 0.29,-0.35 0.47,-0.53 0.16,-0.17 0.23,-0.31 0.51,-0.52l0.53 -0.47c0.19,-0.16 0.35,-0.29 0.56,-0.44l1.21 -0.81 1.05 0.89c0.3,0.25 0.86,0.6 1.2,0.77 0.46,0.23 0.88,0.4 1.42,0.55 0.51,0.14 1.1,0.21 1.76,0.21 1.21,0 2.18,-0.19 3.22,-0.71 0.66,-0.33 0.94,-0.52 1.49,-0.95l0.78 -0.72c0.1,-0.03 0.58,0.31 0.68,0.38 0.12,0.07 0.21,0.13 0.32,0.21 0.34,0.22 0.9,0.64 1.2,0.91 0.09,0.08 0.19,0.18 0.29,0.24 -0.09,0.13 -1.41,1.43 -1.68,1.69 -0.07,0.07 -0.08,0.1 -0.15,0.17l-0.51 0.51c-0.08,0.08 -0.1,0.1 -0.17,0.19 -0.06,0.08 -0.11,0.11 -0.16,0.19 0.37,0 0.64,0.03 1.03,0.03l3.17 0c-0.01,0.1 -0.04,0.26 -0.05,0.36 -0.16,1.16 -0.55,2.33 -1.25,3.26 -0.29,0.39 -0.65,0.77 -1.02,1.06 -0.52,0.41 -1.12,0.87 -1.66,1.24 -0.05,0.04 -0.12,0.05 -0.21,0.06l-0.55 0c-0,0 -0,0 -0,0l-15.72 0 0 -0.59zm28.74 -9.86c-0.01,0.14 -0.09,0.21 -0.59,0.21l-1.67 0c-0.1,0 -0.34,-0.3 -0.42,-0.37l-1.98 -1.98c-0.19,-0.19 -0.62,-0.66 -0.8,-0.78l-2.46 2.44c-0.14,-0.04 -0.23,-0.18 -0.32,-0.28 -0.65,-0.65 -1.19,-1.15 -1.97,-1.67 -0.13,-0.09 -0.26,-0.14 -0.39,-0.23 0,-0.3 0.12,-0.79 0.19,-1.1 0.05,-0.21 0.24,-0.93 0.25,-1.07 0.33,0 0.84,0.12 1.44,0.12 1.53,0 2.75,-0.55 3.8,-1.45 0.05,-0.04 0.06,-0.06 0.11,-0.1 0.09,-0.07 0.12,-0.09 0.2,-0.18 0.1,-0.1 0.1,-0.12 0.23,-0.18 0.49,0.33 0.72,0.46 1.19,0.83l0.71 0.64c1.21,1.2 1.93,2.77 2.35,4.43 0.04,0.16 0.12,0.41 0.12,0.58l0 0.14zm-0.59 3.52c-0.83,0 -1.61,0.06 -2.46,0.06l-0.36 1.37c-0.08,0.24 -0.14,0.42 -0.23,0.65 -0.34,0.87 -0.92,1.72 -1.57,2.39 -0.2,0.2 -0.92,0.8 -1.2,0.97 -0.19,0.11 -0.35,0.23 -0.55,0.33 -0.74,0.4 -1.05,0.52 -1.85,0.79l-1.03 0.29c-0.13,0.03 -0.25,0.04 -0.37,0.07 0.07,-0.1 0.49,-0.39 0.68,-0.58 0.46,-0.46 0.52,-0.5 0.91,-0.97 0.78,-0.92 1.16,-1.88 1.43,-3.05 0.16,-0.68 0.19,-1.5 0.26,-2.29 -0.91,0 -1.72,-0.03 -2.61,-0.03 0.03,-0.12 0.15,-0.21 0.25,-0.28 0.12,-0.09 0.18,-0.16 0.29,-0.27l3.92 -3.73c0.14,0.04 0.98,0.87 1.14,1.03 0.1,0.1 0.18,0.15 0.28,0.25l2.82 2.7c0.09,0.09 0.22,0.17 0.26,0.3zm-2.93 -14.69c0,1.06 -0.11,1.56 -0.52,2.39 -0.14,0.28 -0.31,0.55 -0.5,0.79 -0.78,1.04 -1.93,1.83 -3.24,2.01 -0.62,0.09 -1.34,0.15 -1.96,0 -0,-0.13 -0.03,-0.14 -0.03,-0.29 -0,-0.15 -0.02,-0.18 -0.03,-0.3 -0.02,-0.23 -0.03,-0.38 -0.06,-0.58 -0.19,-1.12 -0.71,-2.23 -1.39,-3.13 -0.1,-0.13 -0.19,-0.22 -0.29,-0.36 -0.18,-0.23 -0.44,-0.44 -0.65,-0.64 -0.31,-0.28 -0.79,-0.58 -1.19,-0.75 -0.51,-0.21 -0.4,-0.42 -0.05,-1.21 0.17,-0.38 0.41,-0.8 0.68,-1.11 0.32,-0.37 0.51,-0.59 0.92,-0.9 0.24,-0.18 0.45,-0.33 0.73,-0.47 2.14,-1.06 4.56,-0.65 6.22,1.07l0.53 0.68c0.17,0.25 0.28,0.5 0.42,0.78 0.26,0.51 0.42,1.25 0.42,2.01zm-7.6 5.31c0,1.42 -0.21,2.14 -0.82,3.31 -0.16,0.31 -0.41,0.67 -0.64,0.95 -1.08,1.33 -2.93,2.43 -4.76,2.43 -1.19,0 -2.21,-0.09 -3.2,-0.59 -0.55,-0.28 -0.74,-0.41 -1.21,-0.76 -0.1,-0.07 -0.13,-0.11 -0.22,-0.19 -0.08,-0.07 -0.12,-0.09 -0.21,-0.18 -0.08,-0.08 -0.13,-0.13 -0.21,-0.21 -0.43,-0.43 -0.73,-0.82 -1.04,-1.34 -0.05,-0.09 -0.08,-0.16 -0.14,-0.25 -0.42,-0.69 -0.74,-1.84 -0.74,-2.87 0,-1.22 0.09,-2.01 0.62,-3.05l0.41 -0.73c1.01,-1.68 3.22,-2.99 5.19,-2.99 1.49,0 1.92,0.04 3.23,0.62 0.17,0.08 0.34,0.18 0.51,0.28 0.56,0.34 0.86,0.58 1.34,1.06 0.67,0.67 0.9,1.1 1.29,1.87 0.38,0.75 0.58,1.73 0.58,2.62z"/>
 </g>
</svg>
