<?xml version="1.0" encoding="UTF-8"?>
<!DOCTYPE svg PUBLIC "-//W3C//DTD SVG 1.1//EN" "http://www.w3.org/Graphics/SVG/1.1/DTD/svg11.dtd">
<!-- Creator: CorelDRAW 2020 (64-Bit) -->
<svg xmlns="http://www.w3.org/2000/svg" xml:space="preserve" width="0.316071in" height="0.421433in" version="1.1" style="shape-rendering:geometricPrecision; text-rendering:geometricPrecision; image-rendering:optimizeQuality; fill-rule:evenodd; clip-rule:evenodd"
viewBox="0 0 2.89 3.85"
 xmlns:xlink="http://www.w3.org/1999/xlink"
 xmlns:xodm="http://www.corel.com/coreldraw/odm/2003">
 <defs>
  <style type="text/css">
   <![CDATA[
    .fil0 {fill:#FEFEFE;fill-rule:nonzero}
   ]]>
  </style>
 </defs>
 <g id="Layer_x0020_1">
  <metadata id="CorelCorpID_0Corel-Layer"/>
  <path class="fil0" d="M1.92 0l0 0.96 0.96 0 -0.96 -0.96zm0 1.2c-0.13,0 -0.24,-0.11 -0.24,-0.24l0 -0.96 -1.44 0c-0.13,0 -0.24,0.11 -0.24,0.24l0 3.37c0,0.13 0.11,0.24 0.24,0.24l2.41 0c0.13,0 0.24,-0.11 0.24,-0.24l-0 -2.41 -0.96 0zm-0.96 2.17l-0.48 0 0 -0.72 0.48 0 0 0.72zm0.72 0l-0.48 0 0 -1.2 0.48 0 0 1.2zm0.72 0l-0.48 0 0 -1.68 0.48 0 0 1.68z"/>
 </g>
</svg>
