<?xml version="1.0" encoding="UTF-8"?>
<!DOCTYPE svg PUBLIC "-//W3C//DTD SVG 1.1//EN" "http://www.w3.org/Graphics/SVG/1.1/DTD/svg11.dtd">
<!-- Creator: CorelDRAW 2020 (64-Bit) -->
<svg xmlns="http://www.w3.org/2000/svg" xml:space="preserve" width="0.436252in" height="0.436252in" version="1.1" style="shape-rendering:geometricPrecision; text-rendering:geometricPrecision; image-rendering:optimizeQuality; fill-rule:evenodd; clip-rule:evenodd"
viewBox="0 0 5.85 5.85"
 xmlns:xlink="http://www.w3.org/1999/xlink"
 xmlns:xodm="http://www.corel.com/coreldraw/odm/2003">
 <defs>
  <style type="text/css">
   <![CDATA[
    .fil0 {fill:#FEFEFE;fill-rule:nonzero}
   ]]>
  </style>
 </defs>
 <g id="Layer_x0020_1">
  <metadata id="CorelCorpID_0Corel-Layer"/>
  <path class="fil0" d="M5.13 0l-2.2 0c-0.4,0 -0.72,0.32 -0.72,0.72l0 3.31c0,0.14 0.16,0.22 0.27,0.14l0.69 -0.52 1.96 0c0.4,0 0.72,-0.32 0.72,-0.72l0 -2.2c0,-0.4 -0.32,-0.72 -0.72,-0.72zm-4.04 4.38c-0.6,0 -1.09,0.49 -1.09,1.09l0 0.22c0,0.09 0.08,0.17 0.17,0.17l1.84 0c0.09,0 0.17,-0.08 0.17,-0.17l0 -0.22c0,-0.6 -0.49,-1.09 -1.09,-1.09zm0.81 -0.81c0,0.45 -0.36,0.81 -0.81,0.81 -0.45,0 -0.81,-0.36 -0.81,-0.81 0,-0.45 0.36,-0.81 0.81,-0.81 0.45,0 0.81,0.36 0.81,0.81zm2.13 -0.74c-0.09,0 -0.17,-0.08 -0.17,-0.17 0,-0.09 0.08,-0.17 0.17,-0.17 0.09,0 0.17,0.08 0.17,0.17 0,0.09 -0.08,0.17 -0.17,0.17zm0.17 -0.76l0 0.04c0,0.09 -0.08,0.17 -0.17,0.17 -0.09,0 -0.17,-0.08 -0.17,-0.17l0 -0.18c0,-0.09 0.08,-0.17 0.17,-0.17 0.16,0 0.29,-0.13 0.29,-0.29 0,-0.16 -0.13,-0.29 -0.29,-0.29 -0.16,0 -0.29,0.13 -0.29,0.29 0,0.09 -0.08,0.17 -0.17,0.17 -0.09,0 -0.17,-0.08 -0.17,-0.17l0 -0c0,-0.35 0.28,-0.63 0.63,-0.63 0.35,0 0.63,0.28 0.63,0.63 0,0.29 -0.19,0.53 -0.46,0.61l0 0z"/>
 </g>
</svg>
