<?xml version="1.0" encoding="UTF-8"?>
<!DOCTYPE svg PUBLIC "-//W3C//DTD SVG 1.1//EN" "http://www.w3.org/Graphics/SVG/1.1/DTD/svg11.dtd">
<!-- Creator: CorelDRAW 2020 (64-Bit) -->
<svg xmlns="http://www.w3.org/2000/svg" xml:space="preserve" width="0.407693in" height="0.407717in" version="1.1" style="shape-rendering:geometricPrecision; text-rendering:geometricPrecision; image-rendering:optimizeQuality; fill-rule:evenodd; clip-rule:evenodd"
viewBox="0 0 4.25 4.25"
 xmlns:xlink="http://www.w3.org/1999/xlink"
 xmlns:xodm="http://www.corel.com/coreldraw/odm/2003">
 <defs>
  <style type="text/css">
   <![CDATA[
    .fil0 {fill:#FEFEFE;fill-rule:nonzero}
   ]]>
  </style>
 </defs>
 <g id="Layer_x0020_1">
  <metadata id="CorelCorpID_0Corel-Layer"/>
  <path class="fil0" d="M1.91 3.64c-0.1,-0.01 -0.19,-0.04 -0.28,-0.07l0.09 -0.25c0.08,0.03 0.15,0.05 0.23,0.06l-0.04 0.26zm0.45 -1.51c0,-0.06 0.05,-0.12 0.12,-0.12l0.58 0c-0.06,-0.49 -0.49,-0.84 -0.98,-0.81 -0.49,0.03 -0.87,0.44 -0.87,0.93 0,0.49 0.38,0.9 0.87,0.93 0.49,0.03 0.92,-0.32 0.98,-0.81l-0.58 0c-0.06,0 -0.12,-0.05 -0.12,-0.12l0 0zm1.89 -1.59l-0.93 0 0 0.93 0.27 0 0 -0.48c0.57,0.74 0.51,1.79 -0.16,2.45 -0.66,0.66 -1.71,0.72 -2.45,0.14 -0.74,-0.58 -0.92,-1.61 -0.44,-2.41 0.49,-0.8 1.49,-1.11 2.34,-0.73 0.06,0.03 0.14,0.01 0.18,-0.06 0.02,-0.03 0.02,-0.07 0.01,-0.11 -0.01,-0.04 -0.04,-0.06 -0.07,-0.08 -0.86,-0.39 -1.87,-0.16 -2.49,0.55 -0.61,0.71 -0.69,1.75 -0.17,2.54 0.51,0.79 1.48,1.15 2.39,0.89 0.9,-0.27 1.53,-1.1 1.53,-2.04 0,-0.48 -0.16,-0.95 -0.47,-1.33l0.47 0 0 -0.27zm-1.77 3.08l-0.06 -0.26c0.08,-0.02 0.15,-0.05 0.23,-0.08l0.11 0.24c-0.09,0.04 -0.18,0.07 -0.27,0.1zm-1.36 -0.33c-0.07,-0.06 -0.14,-0.13 -0.2,-0.21l0.21 -0.16c0.05,0.06 0.11,0.12 0.17,0.17l-0.17 0.2zm2.11 -0.1l-0.19 -0.18c0.06,-0.06 0.11,-0.12 0.15,-0.19l0.22 0.14c-0.05,0.08 -0.11,0.16 -0.18,0.23l0 0zm-2.57 -0.62c-0.03,-0.09 -0.05,-0.19 -0.05,-0.29l0.26 -0.03c0.01,0.08 0.02,0.16 0.05,0.24l-0.26 0.07zm2.97 -0.14l-0.26 -0.05c0.02,-0.08 0.02,-0.16 0.02,-0.24l0.27 0c0,0.1 -0.01,0.19 -0.03,0.29l0 0zm-2.71 -0.65l-0.26 -0.07c0.03,-0.09 0.06,-0.18 0.11,-0.27l0.24 0.12c-0.04,0.07 -0.07,0.15 -0.09,0.22l0 0zm0.39 -0.6l-0.17 -0.2c0.07,-0.06 0.15,-0.12 0.24,-0.17l0.13 0.23c-0.07,0.04 -0.13,0.09 -0.2,0.14l0 0zm1.56 -0.07c-0.07,-0.05 -0.14,-0.09 -0.21,-0.12l0.11 -0.24c0.09,0.04 0.17,0.09 0.25,0.15l-0.15 0.22zm-0.91 -0.22l-0.04 -0.26c0.1,-0.01 0.19,-0.02 0.29,-0.01l-0.01 0.27c-0.08,-0 -0.16,-0 -0.24,0.01l0 0z"/>
 </g>
</svg>
