<?xml version="1.0" encoding="UTF-8"?>
<!DOCTYPE svg PUBLIC "-//W3C//DTD SVG 1.1//EN" "http://www.w3.org/Graphics/SVG/1.1/DTD/svg11.dtd">
<!-- Creator: CorelDRAW 2020 (64-Bit) -->
<svg xmlns="http://www.w3.org/2000/svg" xml:space="preserve" width="0.461622in" height="0.461559in" version="1.1" style="shape-rendering:geometricPrecision; text-rendering:geometricPrecision; image-rendering:optimizeQuality; fill-rule:evenodd; clip-rule:evenodd"
viewBox="0 0 5.45 5.44"
 xmlns:xlink="http://www.w3.org/1999/xlink"
 xmlns:xodm="http://www.corel.com/coreldraw/odm/2003">
 <defs>
  <style type="text/css">
   <![CDATA[
    .fil0 {fill:#FEFEFE;fill-rule:nonzero}
   ]]>
  </style>
 </defs>
 <g id="Layer_x0020_1">
  <metadata id="CorelCorpID_0Corel-Layer"/>
  <path class="fil0" d="M5.45 4.85c-0,-0.07 -0.03,-0.14 -0.09,-0.19l-1.51 -1.34c-0.15,0.21 -0.33,0.39 -0.53,0.53l1.34 1.51c0.1,0.11 0.28,0.12 0.38,0.01l0.33 -0.33c0.05,-0.05 0.08,-0.12 0.08,-0.19 0,-0 -0,-0 -0,-0.01l0 0zm-1.32 -2.79c0,-1.14 -0.92,-2.06 -2.06,-2.06 -1.14,0 -2.06,0.92 -2.06,2.06 0,1.14 0.92,2.06 2.06,2.06 1.14,0 2.06,-0.92 2.06,-2.06zm-2.06 1.57c-0.87,0 -1.57,-0.7 -1.57,-1.57 0,-0.87 0.7,-1.57 1.57,-1.57 0.87,0 1.57,0.7 1.57,1.57 0,0.87 -0.7,1.57 -1.57,1.57z"/>
 </g>
</svg>
