<?xml version="1.0" encoding="UTF-8"?>
<!DOCTYPE svg PUBLIC "-//W3C//DTD SVG 1.1//EN" "http://www.w3.org/Graphics/SVG/1.1/DTD/svg11.dtd">
<!-- Creator: CorelDRAW 2020 (64-Bit) -->
<svg xmlns="http://www.w3.org/2000/svg" xml:space="preserve" width="0.366787in" height="0.366791in" version="1.1" style="shape-rendering:geometricPrecision; text-rendering:geometricPrecision; image-rendering:optimizeQuality; fill-rule:evenodd; clip-rule:evenodd"
viewBox="0 0 3.65 3.65"
 xmlns:xlink="http://www.w3.org/1999/xlink"
 xmlns:xodm="http://www.corel.com/coreldraw/odm/2003">
 <defs>
  <style type="text/css">
   <![CDATA[
    .fil0 {fill:#FEFEFE;fill-rule:nonzero}
   ]]>
  </style>
 </defs>
 <g id="Layer_x0020_1">
  <metadata id="CorelCorpID_0Corel-Layer"/>
  <path class="fil0" d="M3.62 1.06l-0.99 -1.03c-0.03,-0.03 -0.08,-0.04 -0.12,-0.03 -0.04,0.02 -0.07,0.06 -0.07,0.11l0 0.49 -0.04 0c-0.82,0 -1.48,0.67 -1.48,1.48l0 0.23c0,0.05 0.04,0.1 0.09,0.11 0.01,0 0.02,0 0.03,0 0.04,0 0.08,-0.03 0.1,-0.06 0.21,-0.43 0.64,-0.69 1.12,-0.69l0.18 0 0 0.49c0,0.05 0.03,0.09 0.07,0.11 0.04,0.02 0.09,0.01 0.12,-0.03l0.99 -1.03c0.04,-0.04 0.04,-0.11 0,-0.16zm-0.42 2.59l-2.74 0c-0.25,0 -0.46,-0.2 -0.46,-0.46l0 -2.13c0,-0.25 0.2,-0.46 0.46,-0.46l0.46 0c0.08,0 0.15,0.07 0.15,0.15 0,0.08 -0.07,0.15 -0.15,0.15l-0.46 0c-0.08,0 -0.15,0.07 -0.15,0.15l0 2.13c0,0.08 0.07,0.15 0.15,0.15l2.74 0c0.08,0 0.15,-0.07 0.15,-0.15l0 -1.22c0,-0.08 0.07,-0.15 0.15,-0.15 0.08,0 0.15,0.07 0.15,0.15l0 1.22c0,0.25 -0.2,0.46 -0.46,0.46l0 0z"/>
 </g>
</svg>
