<?xml version="1.0" encoding="UTF-8"?>
<!DOCTYPE svg PUBLIC "-//W3C//DTD SVG 1.1//EN" "http://www.w3.org/Graphics/SVG/1.1/DTD/svg11.dtd">
<!-- Creator: CorelDRAW 2020 (64-Bit) -->
<svg xmlns="http://www.w3.org/2000/svg" xml:space="preserve" width="0.975787in" height="0.975787in" version="1.1" style="shape-rendering:geometricPrecision; text-rendering:geometricPrecision; image-rendering:optimizeQuality; fill-rule:evenodd; clip-rule:evenodd"
viewBox="0 0 57.15 57.15"
 xmlns:xlink="http://www.w3.org/1999/xlink"
 xmlns:xodm="http://www.corel.com/coreldraw/odm/2003">
 <defs>
  <style type="text/css">
   <![CDATA[
    .fil0 {fill:#FF8200}
    .fil1 {fill:#FEFEFE;fill-rule:nonzero}
   ]]>
  </style>
 </defs>
 <g id="Layer_x0020_1">
  <metadata id="CorelCorpID_0Corel-Layer"/>
  <rect class="fil0" x="-0" y="-0" width="57.15" height="57.15" rx="28.58" ry="28.58"/>
  <g id="_2132599636672">
   <path id="XMLID_4_" class="fil1" d="M30.37 30.61l-20.27 0c-1.12,0 -2.03,-0.91 -2.03,-2.03 0,-1.12 0.91,-2.03 2.03,-2.03l20.27 0 -2.62 -2.62c-0.79,-0.79 -0.79,-2.08 0,-2.87 0.79,-0.79 2.08,-0.79 2.87,0l6.09 6.09c0.05,0.05 0.09,0.1 0.13,0.15 0.01,0.01 0.02,0.03 0.03,0.04 0.03,0.04 0.06,0.08 0.09,0.12 0.01,0.01 0.01,0.03 0.02,0.04 0.03,0.04 0.06,0.09 0.08,0.13 0,0.01 0.01,0.02 0.01,0.03 0.03,0.05 0.05,0.1 0.07,0.15 0,0.01 0,0.01 0.01,0.02 0.02,0.05 0.04,0.11 0.06,0.17 0,0.01 0,0.01 0.01,0.02 0.02,0.06 0.03,0.11 0.04,0.17 0,0.02 0,0.03 0.01,0.05 0.01,0.05 0.02,0.1 0.02,0.14 0.01,0.07 0.01,0.13 0.01,0.2 0,0.07 -0,0.14 -0.01,0.2 -0,0.05 -0.01,0.1 -0.02,0.15 -0,0.02 -0,0.03 -0.01,0.05 -0.01,0.06 -0.03,0.12 -0.04,0.17 -0,0.01 -0,0.01 -0.01,0.02 -0.02,0.06 -0.04,0.11 -0.06,0.17 -0,0.01 -0,0.01 -0.01,0.02 -0.02,0.05 -0.05,0.1 -0.07,0.15 -0,0.01 -0.01,0.02 -0.01,0.03 -0.02,0.05 -0.05,0.09 -0.08,0.13 -0.01,0.01 -0.01,0.02 -0.02,0.04 -0.03,0.04 -0.06,0.08 -0.09,0.12 -0.01,0.01 -0.02,0.03 -0.03,0.04 -0.04,0.05 -0.09,0.1 -0.13,0.15l-6.09 6.09c-0.4,0.4 -0.92,0.59 -1.43,0.59 -0.52,0 -1.04,-0.2 -1.43,-0.59 -0.79,-0.79 -0.79,-2.08 0,-2.87l2.62 -2.62z"/>
   <path id="XMLID_5_" class="fil1" d="M32.49 11.98c-5.54,0 -10.69,2.75 -13.78,7.35 -0.62,0.93 -0.38,2.19 0.55,2.82 0.93,0.62 2.19,0.38 2.82,-0.55 2.34,-3.48 6.23,-5.55 10.41,-5.55 6.91,0 12.54,5.62 12.54,12.54 0,6.91 -5.62,12.54 -12.54,12.54 -4.17,0 -8.06,-2.07 -10.4,-5.53 -0.63,-0.93 -1.89,-1.17 -2.82,-0.55 -0.93,0.63 -1.17,1.89 -0.55,2.82 3.09,4.58 8.24,7.32 13.76,7.32 9.15,0 16.6,-7.44 16.6,-16.6 0,-9.15 -7.44,-16.6 -16.6,-16.6z"/>
  </g>
 </g>
</svg>
