<?xml version="1.0" encoding="UTF-8"?>
<!DOCTYPE svg PUBLIC "-//W3C//DTD SVG 1.1//EN" "http://www.w3.org/Graphics/SVG/1.1/DTD/svg11.dtd">
<!-- Creator: CorelDRAW 2020 (64-Bit) -->
<svg xmlns="http://www.w3.org/2000/svg" xml:space="preserve" width="0.975787in" height="0.975787in" version="1.1" style="shape-rendering:geometricPrecision; text-rendering:geometricPrecision; image-rendering:optimizeQuality; fill-rule:evenodd; clip-rule:evenodd"
viewBox="0 0 50.49 50.49"
 xmlns:xlink="http://www.w3.org/1999/xlink"
 xmlns:xodm="http://www.corel.com/coreldraw/odm/2003">
 <defs>
  <style type="text/css">
   <![CDATA[
    .fil0 {fill:#FF8200}
    .fil1 {fill:#FEFEFE;fill-rule:nonzero}
   ]]>
  </style>
 </defs>
 <g id="Layer_x0020_1">
  <metadata id="CorelCorpID_0Corel-Layer"/>
  <rect class="fil0" x="-0" y="-0" width="50.49" height="50.49" rx="25.25" ry="25.25"/>
  <g id="_2092348791664">
   <path id="XMLID_4_" class="fil1" d="M12.3 27.04l17.91 0c0.99,0 1.79,-0.8 1.79,-1.79 0,-0.99 -0.8,-1.79 -1.79,-1.79l-17.91 0 2.32 -2.32c0.7,-0.7 0.7,-1.83 0,-2.53 -0.7,-0.7 -1.83,-0.7 -2.53,0l-5.38 5.38c-0.04,0.04 -0.08,0.08 -0.12,0.13 -0.01,0.01 -0.02,0.02 -0.03,0.03 -0.03,0.03 -0.05,0.07 -0.08,0.11 -0.01,0.01 -0.01,0.02 -0.02,0.03 -0.02,0.04 -0.05,0.08 -0.07,0.12 -0,0.01 -0.01,0.02 -0.01,0.02 -0.02,0.04 -0.04,0.09 -0.06,0.13 -0,0.01 -0,0.01 -0.01,0.02 -0.02,0.05 -0.04,0.1 -0.05,0.15 -0,0.01 -0,0.01 -0,0.02 -0.01,0.05 -0.03,0.1 -0.04,0.15 -0,0.02 -0,0.03 -0.01,0.05 -0.01,0.04 -0.01,0.08 -0.02,0.13 -0.01,0.06 -0.01,0.12 -0.01,0.18 0,0.06 0,0.12 0.01,0.18 0,0.04 0.01,0.09 0.02,0.13 0,0.01 0,0.03 0.01,0.04 0.01,0.05 0.02,0.1 0.04,0.15 0,0.01 0,0.01 0,0.02 0.02,0.05 0.03,0.1 0.05,0.15 0,0.01 0,0.01 0.01,0.02 0.02,0.05 0.04,0.09 0.06,0.14 0,0.01 0.01,0.02 0.01,0.02 0.02,0.04 0.05,0.08 0.07,0.12 0.01,0.01 0.01,0.02 0.02,0.03 0.02,0.04 0.05,0.07 0.08,0.11 0.01,0.01 0.02,0.02 0.03,0.03 0.04,0.05 0.08,0.09 0.12,0.13l5.38 5.38c0.35,0.35 0.81,0.52 1.27,0.52 0.46,0 0.92,-0.17 1.27,-0.52 0.7,-0.7 0.7,-1.83 0,-2.53l-2.32 -2.32z"/>
   <path id="XMLID_5_" class="fil1" d="M29.66 10.59c-4.89,0 -9.44,2.43 -12.18,6.49 -0.55,0.82 -0.33,1.94 0.49,2.49 0.82,0.55 1.94,0.33 2.49,-0.49 2.06,-3.07 5.5,-4.91 9.2,-4.91 6.11,0 11.08,4.97 11.08,11.08 0,6.11 -4.97,11.08 -11.08,11.08 -3.69,0 -7.12,-1.83 -9.19,-4.88 -0.55,-0.82 -1.67,-1.04 -2.49,-0.48 -0.82,0.55 -1.04,1.67 -0.48,2.49 2.73,4.05 7.28,6.46 12.16,6.46 8.08,0 14.66,-6.58 14.66,-14.66 0,-8.08 -6.58,-14.66 -14.66,-14.66z"/>
  </g>
 </g>
</svg>
