<?xml version="1.0" encoding="UTF-8"?>
<!DOCTYPE svg PUBLIC "-//W3C//DTD SVG 1.1//EN" "http://www.w3.org/Graphics/SVG/1.1/DTD/svg11.dtd">
<!-- Creator: CorelDRAW 2020 (64-Bit) -->
<svg xmlns="http://www.w3.org/2000/svg" xml:space="preserve" width="0.402346in" height="0.40235in" version="1.1" style="shape-rendering:geometricPrecision; text-rendering:geometricPrecision; image-rendering:optimizeQuality; fill-rule:evenodd; clip-rule:evenodd"
viewBox="0 0 4.39 4.39"
 xmlns:xlink="http://www.w3.org/1999/xlink"
 xmlns:xodm="http://www.corel.com/coreldraw/odm/2003">
 <defs>
  <style type="text/css">
   <![CDATA[
    .fil0 {fill:black;fill-rule:nonzero}
    .fil1 {fill:white;fill-rule:nonzero}
   ]]>
  </style>
 </defs>
 <g id="Layer_x0020_1">
  <metadata id="CorelCorpID_0Corel-Layer"/>
  <g id="_1441164725568">
   <g>
    <path class="fil0" d="M2.24 2.31l0.1 0 0 -0.33 -0.17 0.17c0.01,0.04 0.03,0.08 0.04,0.11 0.01,0.02 0.02,0.03 0.03,0.05z"/>
    <path class="fil0" d="M2.59 2.31l0.26 0 0 -0.07c-0.05,0.03 -0.1,0.04 -0.17,0.04 -0.03,0 -0.06,-0 -0.08,-0.01l0 0.03zm0.26 -0.27l0 -0.03 -0.26 -0.13 0 0.14c0,0 0,0 0,0 0.03,0.04 0.08,0.06 0.14,0.06 0.05,0 0.09,-0.01 0.12,-0.04z"/>
    <path class="fil1" d="M2.72 0c-0.92,0 -1.67,0.75 -1.67,1.67 0,0.41 0.15,0.79 0.4,1.09l-0.16 0.16 -0.18 -0.18 -1.11 1.11 0.55 0.55 1.11 -1.11 -0.18 -0.18 0.16 -0.16c0.29,0.25 0.67,0.4 1.09,0.4 0.92,0 1.67,-0.75 1.67,-1.67 0,-0.92 -0.75,-1.67 -1.67,-1.67l0 0zm-0.04 2.29c-0.11,0 -0.2,-0.04 -0.26,-0.11 -0.06,-0.08 -0.09,-0.19 -0.09,-0.34l0 -0.34c0,-0.15 0.03,-0.25 0.1,-0.33 0.07,-0.07 0.17,-0.11 0.3,-0.11 0.13,0 0.23,0.04 0.3,0.11 0.07,0.07 0.1,0.18 0.1,0.33l0 0.41 0 0 0 0.05c0,0.04 0.01,0.08 0.02,0.1 0.02,0.03 0.04,0.04 0.07,0.04 0.03,0 0.06,-0.01 0.07,-0.04 0.02,-0.02 0.02,-0.06 0.02,-0.11l0 -0.54c0,-0.13 -0.02,-0.24 -0.07,-0.34 -0.04,-0.09 -0.11,-0.16 -0.2,-0.2 -0.09,-0.05 -0.19,-0.07 -0.32,-0.07 -0.13,0 -0.24,0.02 -0.33,0.07 -0.09,0.04 -0.15,0.11 -0.2,0.2 -0.04,0.09 -0.07,0.2 -0.07,0.34 -0,0.09 -0,0.18 -0,0.27 0,0.09 0,0.18 0,0.28 0,0.12 0.02,0.23 0.07,0.31 0.04,0.08 0.11,0.14 0.2,0.19 0.09,0.04 0.2,0.06 0.33,0.06l0.34 0 0 0.2 -0.34 0c-0.18,0 -0.33,-0.03 -0.44,-0.08 -0.12,-0.06 -0.21,-0.14 -0.27,-0.25 -0.06,-0.11 -0.09,-0.25 -0.09,-0.42 0,-0.09 0,-0.18 0,-0.28 0,-0.09 0,-0.18 0,-0.27 0,-0.18 0.03,-0.32 0.09,-0.44 0.06,-0.12 0.15,-0.21 0.27,-0.27 0.12,-0.06 0.26,-0.09 0.44,-0.09 0.17,0 0.32,0.03 0.43,0.09 0.12,0.06 0.21,0.15 0.26,0.27 0.06,0.12 0.09,0.27 0.09,0.44l0 0.52c0,0.12 -0.03,0.21 -0.08,0.27 -0.05,0.06 -0.13,0.09 -0.23,0.09 -0.1,0 -0.18,-0.03 -0.23,-0.08 -0.02,-0.02 -0.04,-0.04 -0.05,-0.06 -0,-0 -0,-0 -0,-0l-0 0 -0 0 -0 0 -0 0 -0 0 -0 0 -0 0c-0.01,0.02 -0.03,0.04 -0.06,0.07 -0.05,0.05 -0.12,0.07 -0.21,0.07zm0.05 -0.2c0.06,0 0.11,-0.02 0.14,-0.06 0.03,-0.04 0.04,-0.1 0.04,-0.18l0 -0.37c0,-0.07 -0.01,-0.13 -0.04,-0.17 -0.03,-0.04 -0.08,-0.05 -0.14,-0.05 -0.12,0 -0.18,0.07 -0.18,0.22l0 0.36c0,0.08 0.01,0.14 0.04,0.18 0.03,0.04 0.08,0.06 0.14,0.06z"/>
   </g>
  </g>
 </g>
</svg>
