<?xml version="1.0" encoding="UTF-8"?>
<!DOCTYPE svg PUBLIC "-//W3C//DTD SVG 1.1//EN" "http://www.w3.org/Graphics/SVG/1.1/DTD/svg11.dtd">
<!-- Creator: CorelDRAW 2020 (64-Bit) -->
<svg xmlns="http://www.w3.org/2000/svg" xml:space="preserve" width="0.519685in" height="0.519685in" version="1.1" style="shape-rendering:geometricPrecision; text-rendering:geometricPrecision; image-rendering:optimizeQuality; fill-rule:evenodd; clip-rule:evenodd"
viewBox="0 0 6.17 6.17"
 xmlns:xlink="http://www.w3.org/1999/xlink"
 xmlns:xodm="http://www.corel.com/coreldraw/odm/2003">
 <defs>
  <style type="text/css">
   <![CDATA[
    .fil0 {fill:#FEFEFE}
   ]]>
  </style>
 </defs>
 <g id="Layer_x0020_1">
  <metadata id="CorelCorpID_0Corel-Layer"/>
  <path class="fil0" d="M-0 0.41l0 3.87c0,0.15 0.11,0.29 0.2,0.34 0.05,0.03 0.13,0.06 0.21,0.06l1.37 -0c0.02,0.03 0.06,0.07 0.08,0.09l0.14 0.16c0.01,0.01 0.01,0.02 0.02,0.03l0.16 0.18c0.07,0.08 0.17,0.2 0.24,0.28l0.24 0.28c0.03,0.03 0.05,0.06 0.08,0.09l0.3 0.35c0.01,0.01 0.01,0.01 0.02,0.03 0.02,-0.01 0.25,-0.28 0.29,-0.32 0.01,-0.01 0.01,-0.01 0.02,-0.02l0.33 -0.37c0.01,-0.01 0.01,-0.01 0.02,-0.02 0.07,-0.08 0.17,-0.2 0.24,-0.28l0.14 -0.16c0.01,-0.01 0.01,-0.01 0.02,-0.02l0.16 -0.19c0.02,-0.02 0.06,-0.07 0.08,-0.1l1.37 0c0.22,0 0.42,-0.19 0.42,-0.41l0 -3.87c0,-0.21 -0.2,-0.41 -0.41,-0.41l-5.36 0c-0.15,0 -0.3,0.11 -0.37,0.24 -0.02,0.04 -0.04,0.11 -0.04,0.17zm4.16 2.58c-0,0.11 -0.02,0.22 -0.06,0.33 -0.15,0.35 -0.48,0.6 -0.86,0.64 -0.05,0.01 -0.1,0.01 -0.15,0.01 -0.59,0 -1.08,-0.44 -1.08,-0.98 -0,-0.1 0.02,-0.2 0.05,-0.3 0.08,-0.23 0.25,-0.42 0.47,-0.54 0.02,0.22 0.14,0.41 0.31,0.54 0.03,0.02 0.07,0.05 0.11,0.07 -0.02,-0.02 -0.03,-0.05 -0.05,-0.07 -0.12,-0.18 -0.18,-0.4 -0.18,-0.61 -0,-0 0,-0.01 0,-0.01 0,-0.23 0.07,-0.44 0.2,-0.63 0.13,-0.19 0.3,-0.34 0.5,-0.44 -0.03,0.1 -0.05,0.21 -0.06,0.32 -0,0.01 -0,0.03 -0,0.05 0,0.33 0.15,0.65 0.4,0.87 0,0 0,0 0,0 0,0 0,0 0,0 0.11,0.09 0.21,0.21 0.29,0.33 0.07,0.13 0.11,0.28 0.11,0.42z"/>
 </g>
</svg>
