<?xml version="1.0" encoding="UTF-8"?>
<!DOCTYPE svg PUBLIC "-//W3C//DTD SVG 1.1//EN" "http://www.w3.org/Graphics/SVG/1.1/DTD/svg11.dtd">
<!-- Creator: CorelDRAW 2020 (64-Bit) -->
<svg xmlns="http://www.w3.org/2000/svg" xml:space="preserve" width="0.374988in" height="0.449469in" version="1.1" style="shape-rendering:geometricPrecision; text-rendering:geometricPrecision; image-rendering:optimizeQuality; fill-rule:evenodd; clip-rule:evenodd"
viewBox="0 0 3.22 3.87"
 xmlns:xlink="http://www.w3.org/1999/xlink"
 xmlns:xodm="http://www.corel.com/coreldraw/odm/2003">
 <defs>
  <style type="text/css">
   <![CDATA[
    .fil0 {fill:#FEFEFE;fill-rule:nonzero}
   ]]>
  </style>
 </defs>
 <g id="Layer_x0020_1">
  <metadata id="CorelCorpID_0Corel-Layer"/>
  <path class="fil0" d="M1.59 1.86c0.26,0 0.48,-0.09 0.66,-0.27 0.18,-0.18 0.27,-0.4 0.27,-0.66 0,-0.26 -0.09,-0.48 -0.27,-0.66 -0.18,-0.18 -0.4,-0.27 -0.66,-0.27 -0.26,0 -0.48,0.09 -0.66,0.27 -0.18,0.18 -0.27,0.4 -0.27,0.66 0,0.26 0.09,0.48 0.27,0.66 0.18,0.18 0.4,0.27 0.66,0.27l0 0zm1.63 1.11c-0.01,-0.08 -0.02,-0.16 -0.03,-0.24 -0.02,-0.09 -0.04,-0.17 -0.06,-0.25 -0.02,-0.08 -0.06,-0.16 -0.1,-0.23 -0.04,-0.08 -0.09,-0.14 -0.15,-0.2 -0.06,-0.06 -0.13,-0.1 -0.22,-0.14 -0.08,-0.03 -0.18,-0.05 -0.28,-0.05 -0.04,0 -0.08,0.02 -0.15,0.06 -0.05,0.03 -0.1,0.06 -0.16,0.1 -0.05,0.03 -0.12,0.06 -0.2,0.09 -0.08,0.03 -0.17,0.04 -0.25,0.04 -0.08,0 -0.17,-0.01 -0.25,-0.04 -0.08,-0.03 -0.15,-0.06 -0.2,-0.09 -0.06,-0.04 -0.11,-0.07 -0.16,-0.1 -0.07,-0.05 -0.11,-0.06 -0.15,-0.06 -0.1,0 -0.19,0.02 -0.28,0.05 -0.09,0.03 -0.16,0.08 -0.22,0.14 -0.06,0.05 -0.11,0.12 -0.15,0.2 -0.04,0.07 -0.08,0.15 -0.1,0.23 -0.02,0.08 -0.04,0.16 -0.06,0.25 -0.02,0.09 -0.03,0.17 -0.03,0.24 -0.01,0.07 -0.01,0.15 -0.01,0.23 0,0.2 0.06,0.37 0.19,0.49 0.12,0.12 0.29,0.18 0.49,0.18l1.86 0c0.2,0 0.37,-0.06 0.49,-0.18 0.13,-0.12 0.19,-0.28 0.19,-0.49 -0,-0.08 -0,-0.15 -0.01,-0.23z"/>
 </g>
</svg>
