<?xml version="1.0" encoding="UTF-8"?>
<!DOCTYPE svg PUBLIC "-//W3C//DTD SVG 1.1//EN" "http://www.w3.org/Graphics/SVG/1.1/DTD/svg11.dtd">
<!-- Creator: CorelDRAW 2020 (64-Bit) -->
<svg xmlns="http://www.w3.org/2000/svg" xml:space="preserve" width="0.523992in" height="0.523992in" version="1.1" style="shape-rendering:geometricPrecision; text-rendering:geometricPrecision; image-rendering:optimizeQuality; fill-rule:evenodd; clip-rule:evenodd"
viewBox="0 0 6.62 6.62"
 xmlns:xlink="http://www.w3.org/1999/xlink"
 xmlns:xodm="http://www.corel.com/coreldraw/odm/2003">
 <defs>
  <style type="text/css">
   <![CDATA[
    .fil0 {fill:#FEFEFE;fill-rule:nonzero}
   ]]>
  </style>
 </defs>
 <g id="Layer_x0020_1">
  <metadata id="CorelCorpID_0Corel-Layer"/>
  <path class="fil0" d="M3.98 2.5c-0.06,-0.06 -0.11,-0.05 -0.14,-0.02l-0.1 0.1 0.16 0.16 0.11 -0.11c0.03,-0.03 0.03,-0.07 -0.03,-0.13zm2.04 -0.69c-0.34,0.34 -0.88,0.34 -1.21,0 -0.34,-0.34 -0.34,-0.88 0,-1.21l-0.59 -0.59 -4.22 4.22 0.59 0.59c0.34,-0.34 0.88,-0.34 1.21,0 0.34,0.34 0.34,0.88 0,1.21l0.59 0.59 4.22 -4.22 -0.59 -0.59zm-2.97 2.6l-1.03 -0.47 0.22 -0.22 0.64 0.34 -0.35 -0.64 0.22 -0.22 0.47 1.02 -0.17 0.17zm0.61 -0.61l-0.75 -0.75 0.21 -0.21 0.75 0.75 -0.21 0.21zm0.44 -0.44l-0.75 -0.75 0.32 -0.32c0.15,-0.15 0.38,-0.12 0.51,0.01 0.13,0.13 0.16,0.36 0.01,0.51l-0.12 0.12 0.23 0.23 -0.21 0.21z"/>
 </g>
</svg>
