<?xml version="1.0" encoding="UTF-8"?>
<!DOCTYPE svg PUBLIC "-//W3C//DTD SVG 1.1//EN" "http://www.w3.org/Graphics/SVG/1.1/DTD/svg11.dtd">
<!-- Creator: CorelDRAW 2020 (64-Bit) -->
<svg xmlns="http://www.w3.org/2000/svg" xml:space="preserve" width="0.424386in" height="0.424366in" version="1.1" style="shape-rendering:geometricPrecision; text-rendering:geometricPrecision; image-rendering:optimizeQuality; fill-rule:evenodd; clip-rule:evenodd"
viewBox="0 0 5.19 5.19"
 xmlns:xlink="http://www.w3.org/1999/xlink"
 xmlns:xodm="http://www.corel.com/coreldraw/odm/2003">
 <defs>
  <style type="text/css">
   <![CDATA[
    .fil0 {fill:#FEFEFE;fill-rule:nonzero}
   ]]>
  </style>
 </defs>
 <g id="Layer_x0020_1">
  <metadata id="CorelCorpID_0Corel-Layer"/>
  <path class="fil0" d="M2.59 0c-1.43,0 -2.59,1.16 -2.59,2.59 0,1.43 1.16,2.59 2.59,2.59 0.16,0 0.32,-0.02 0.48,-0.04l-0.18 -0.53c-0.03,0.03 -0.05,0.05 -0.08,0.07l0 -0.32 -0.4 -1.2c-0.02,-0.06 -0.03,-0.13 -0.03,-0.19l0 0.44c-0.21,0.01 -0.41,0.03 -0.6,0.06 -0.04,-0.2 -0.06,-0.42 -0.08,-0.66l0.67 0 0 0.16c0,-0.15 0.06,-0.3 0.18,-0.42 0.11,-0.11 0.26,-0.18 0.42,-0.18 0.06,0 0.13,0.01 0.19,0.03l1.19 0.4 0.39 0c-0,0.04 -0.01,0.08 -0.02,0.13l0.42 0.14c0.03,-0.16 0.04,-0.31 0.04,-0.48 0,-1.43 -1.16,-2.59 -2.59,-2.59zm1.06 5.19c-0,0 -0,0 -0,0 -0.07,-0 -0.13,-0.05 -0.15,-0.11l-0.68 -2.05c-0.02,-0.06 -0,-0.12 0.04,-0.17 0.04,-0.04 0.11,-0.06 0.17,-0.04l2.05 0.68c0.06,0.02 0.11,0.08 0.11,0.15 0,0.07 -0.04,0.13 -0.1,0.16l-0.92 0.35 -0.35 0.92c-0.02,0.06 -0.08,0.1 -0.15,0.1l0 0zm-1.28 -1.35l0 0.84c-0.19,-0.13 -0.36,-0.4 -0.49,-0.79 0.16,-0.02 0.32,-0.04 0.49,-0.05zm-1.6 -2.42c0.17,0.08 0.37,0.15 0.58,0.21 -0.05,0.23 -0.07,0.48 -0.08,0.74l-0.83 0c0.03,-0.35 0.16,-0.67 0.34,-0.95zm-0.34 1.38l0.83 0c0.01,0.27 0.04,0.52 0.08,0.75 -0.21,0.06 -0.41,0.13 -0.58,0.21 -0.18,-0.28 -0.3,-0.61 -0.34,-0.96l0 0zm1.27 1.76c-0.25,-0.11 -0.47,-0.27 -0.66,-0.46 0.12,-0.05 0.26,-0.1 0.4,-0.14 0.07,0.22 0.16,0.42 0.26,0.59l0 0zm-0.26 -3.36c-0.14,-0.04 -0.28,-0.08 -0.4,-0.14 0.19,-0.19 0.41,-0.35 0.66,-0.46 -0.1,0.17 -0.19,0.37 -0.26,0.59l-0 0zm0.92 1.16l-0.67 0c0.01,-0.23 0.04,-0.45 0.08,-0.65 0.19,0.03 0.39,0.05 0.6,0.06l0 0.59zm0 -1.03c-0.17,-0.01 -0.33,-0.02 -0.49,-0.05 0.13,-0.39 0.3,-0.67 0.49,-0.79l0 0.84zm0.43 -0.84c0.19,0.13 0.36,0.4 0.49,0.79 -0.16,0.02 -0.32,0.04 -0.49,0.05l0 -0.84zm0 1.87l0 -0.59c0.21,-0.01 0.41,-0.03 0.6,-0.06 0.04,0.2 0.06,0.42 0.08,0.65l-0.67 0zm0.66 -1.75c0.25,0.11 0.47,0.27 0.66,0.46 -0.12,0.05 -0.26,0.1 -0.4,0.14 -0.07,-0.22 -0.16,-0.42 -0.26,-0.59l0 0zm0.44 1.75c-0.01,-0.26 -0.04,-0.51 -0.08,-0.74 0.21,-0.06 0.41,-0.13 0.58,-0.21 0.18,0.28 0.3,0.6 0.34,0.95l-0.83 0z"/>
 </g>
</svg>
