<?xml version="1.0" encoding="UTF-8"?>
<!DOCTYPE svg PUBLIC "-//W3C//DTD SVG 1.1//EN" "http://www.w3.org/Graphics/SVG/1.1/DTD/svg11.dtd">
<!-- Creator: CorelDRAW 2020 (64-Bit) -->
<svg xmlns="http://www.w3.org/2000/svg" xml:space="preserve" width="0.443102in" height="0.443102in" version="1.1" style="shape-rendering:geometricPrecision; text-rendering:geometricPrecision; image-rendering:optimizeQuality; fill-rule:evenodd; clip-rule:evenodd"
viewBox="0 0 11.54 11.54"
 xmlns:xlink="http://www.w3.org/1999/xlink"
 xmlns:xodm="http://www.corel.com/coreldraw/odm/2003">
 <defs>
  <style type="text/css">
   <![CDATA[
    .fil0 {fill:#FEFEFE;fill-rule:nonzero}
   ]]>
  </style>
 </defs>
 <g id="Layer_x0020_1">
  <metadata id="CorelCorpID_0Corel-Layer"/>
  <path class="fil0" d="M5.77 0l-0 0c-3.18,0 -5.77,2.59 -5.77,5.77 0,1.26 0.41,2.43 1.1,3.38l-0.72 2.14 2.22 -0.71c0.91,0.6 2,0.95 3.17,0.95 3.18,0 5.77,-2.59 5.77,-5.77 0,-3.18 -2.59,-5.77 -5.77,-5.77zm3.36 8.14c-0.14,0.39 -0.69,0.72 -1.13,0.81 -0.3,0.06 -0.69,0.12 -2.02,-0.43 -1.69,-0.7 -2.79,-2.42 -2.87,-2.54 -0.08,-0.11 -0.68,-0.91 -0.68,-1.74 0,-0.83 0.42,-1.23 0.59,-1.4 0.14,-0.14 0.37,-0.21 0.59,-0.21 0.07,0 0.14,0 0.19,0.01 0.17,0.01 0.25,0.02 0.37,0.28 0.14,0.34 0.48,1.16 0.52,1.25 0.04,0.09 0.08,0.2 0.02,0.31 -0.05,0.12 -0.1,0.17 -0.19,0.26 -0.09,0.1 -0.17,0.17 -0.25,0.28 -0.08,0.09 -0.17,0.19 -0.07,0.36 0.1,0.17 0.44,0.72 0.94,1.16 0.64,0.57 1.17,0.76 1.35,0.83 0.14,0.06 0.3,0.04 0.41,-0.06 0.13,-0.14 0.29,-0.37 0.45,-0.6 0.12,-0.16 0.26,-0.18 0.41,-0.13 0.16,0.05 0.98,0.46 1.15,0.55 0.17,0.09 0.28,0.13 0.32,0.2 0.04,0.07 0.04,0.41 -0.1,0.8z"/>
 </g>
</svg>
