<?xml version="1.0" encoding="UTF-8"?>
<!DOCTYPE svg PUBLIC "-//W3C//DTD SVG 1.1//EN" "http://www.w3.org/Graphics/SVG/1.1/DTD/svg11.dtd">
<!-- Creator: CorelDRAW 2020 (64-Bit) -->
<svg xmlns="http://www.w3.org/2000/svg" xml:space="preserve" width="1.08457in" height="1.08672in" version="1.1" style="shape-rendering:geometricPrecision; text-rendering:geometricPrecision; image-rendering:optimizeQuality; fill-rule:evenodd; clip-rule:evenodd"
viewBox="0 0 53.06 53.16"
 xmlns:xlink="http://www.w3.org/1999/xlink"
 xmlns:xodm="http://www.corel.com/coreldraw/odm/2003">
 <defs>
  <style type="text/css">
   <![CDATA[
    .fil0 {fill:#FF8200}
   ]]>
  </style>
 </defs>
 <g id="Layer_x0020_1">
  <metadata id="CorelCorpID_0Corel-Layer"/>
  <path class="fil0" d="M51.5 21.29l-12.15 0c-0.86,0 -1.56,0.7 -1.56,1.56l0 22.69c0,2.1 0.86,4.01 2.24,5.39 1.38,1.38 3.29,2.24 5.39,2.24 2.1,0 4.01,-0.86 5.39,-2.24 1.38,-1.38 2.24,-3.29 2.24,-5.39l0 -22.69c0,-0.86 -0.7,-1.56 -1.56,-1.56zm-34.16 -7.58c1.06,-0.64 3.97,-3.17 3.97,-4.88 0,-0.56 -0.64,-1.01 -1.23,-1.01 -0.59,0 -1.1,0.29 -1.21,0.83 -0.11,0.6 -0.58,1.11 -1.22,1.23 -0.84,0.17 -1.66,-0.38 -1.83,-1.22 -0.05,-0.24 -0.18,-0.44 -0.37,-0.59 -0.46,-0.35 -1.26,-0.35 -1.75,0.11 -0.2,0.18 -0.32,0.41 -0.32,0.65 0,1.72 2.88,4.24 3.97,4.88zm-9.86 29.69l2.91 0 0 -3.11 -2.91 0 0 3.11zm27.21 -41.84c0,-0.86 -0.7,-1.56 -1.56,-1.56l-31.57 0c-0.86,0 -1.56,0.7 -1.56,1.56l0 44.13c0,4.12 3.36,7.48 7.48,7.48l30.39 0c-2.01,-2 -3.19,-4.74 -3.19,-7.63 0,-14.66 0.01,-29.31 0.01,-43.97zm-20.09 3.14c1.06,0 2.01,0.34 2.74,0.9 1.67,-1.29 4.14,-1.2 5.75,0.28 0.81,0.75 1.33,1.78 1.33,2.94 0,1.55 -0.84,3.09 -1.94,4.4 -1.63,1.93 -4.04,3.5 -4.77,3.68 -0.36,0.09 -0.72,0.04 -1.03,-0.1 -0.96,-0.41 -3.02,-1.84 -4.47,-3.56 -1.1,-1.31 -1.95,-2.86 -1.95,-4.42 0,-2.31 2.08,-4.13 4.34,-4.13zm9.07 19.29c0,0.86 -0.7,1.56 -1.56,1.56l-3.95 0c-0.86,0 -1.56,-0.7 -1.56,-1.56 0,-0.86 0.7,-1.56 1.56,-1.56l3.95 0c0.86,0 1.56,0.7 1.56,1.56zm-10.18 20.97c0,0.86 -0.7,1.56 -1.56,1.56l-6.02 0c-0.86,0 -1.56,-0.7 -1.56,-1.56l0 -6.23c0,-0.86 0.7,-1.56 1.56,-1.56l6.02 0c0.86,0 1.56,0.7 1.56,1.56l0 6.23zm0 -14.74c0,0.86 -0.7,1.56 -1.56,1.56l-6.02 0c-0.86,0 -1.56,-0.7 -1.56,-1.56l0 -6.23c0,-0.86 0.7,-1.56 1.56,-1.56l6.02 0c0.86,0 1.56,0.7 1.56,1.56l0 6.23zm15.27 16.3l-10.59 0c-0.86,0 -1.56,-0.7 -1.56,-1.56 0,-0.86 0.7,-1.56 1.56,-1.56l10.59 0c0.86,0 1.56,0.7 1.56,1.56 0,0.86 -0.7,1.56 -1.56,1.56zm-12.15 -7.79c0,-0.86 0.7,-1.56 1.56,-1.56l3.95 0c0.86,0 1.56,0.7 1.56,1.56 0,0.86 -0.7,1.56 -1.56,1.56l-3.95 0c-0.86,0 -1.56,-0.7 -1.56,-1.56zm12.15 -6.96l-10.59 0c-0.86,0 -1.56,-0.7 -1.56,-1.56 0,-0.86 0.7,-1.56 1.56,-1.56l10.59 0c0.86,0 1.56,0.7 1.56,1.56 0,0.86 -0.7,1.56 -1.56,1.56zm-21.29 -3.11l2.91 0 0 -3.12 -2.91 0 0 3.12z"/>
 </g>
</svg>
